<?xml version="1.0" encoding="utf-8"?>
<!-- Generator: Adobe Illustrator 22.0.0, SVG Export Plug-In . SVG Version: 6.00 Build 0)  -->
<svg version="1.1" id="Capa_1" xmlns="http://www.w3.org/2000/svg" xmlns:xlink="http://www.w3.org/1999/xlink" x="0px" y="0px"
	 viewBox="0 0 4.4 4.4" style="enable-background:new 0 0 4.4 4.4;" xml:space="preserve">
<style type="text/css">
	.st0{fill-rule:evenodd;clip-rule:evenodd;fill:#FFFFFF;}
</style>
<g>
	<path class="st0" d="M0,2.2c0-0.3,0-0.6,0-0.9c0-0.3,0.1-0.5,0.2-0.7C0.4,0.3,0.7,0.1,1,0c0.2,0,0.4,0,0.6,0c0.4,0,0.9,0,1.3,0
		c0.2,0,0.5,0,0.7,0.1C4.1,0.2,4.3,0.5,4.4,1c0,0.2,0,0.4,0.1,0.6c0,0.4,0,0.9,0,1.3c0,0.2,0,0.5-0.1,0.7C4.2,4,3.9,4.3,3.5,4.4
		c-0.2,0-0.4,0-0.6,0.1c-0.4,0-0.9,0-1.3,0c-0.2,0-0.5,0-0.7-0.1C0.4,4.2,0.1,3.9,0.1,3.5C0,3.3,0,3,0,2.8C0,2.6,0,2.4,0,2.2L0,2.2z
		 M4.1,2.2C4.1,2.2,4.1,2.2,4.1,2.2c0,0,0-0.1,0-0.1c0-0.3,0-0.6,0-1c0-0.4-0.3-0.6-0.6-0.7c-0.2,0-0.4,0-0.6,0c-0.4,0-0.8,0-1.2,0
		c-0.2,0-0.3,0-0.5,0C0.8,0.5,0.5,0.7,0.5,1.1c0,0.2,0,0.3,0,0.5c0,0.3,0,0.6,0,0.9c0,0.3,0,0.5,0,0.8c0,0.4,0.3,0.6,0.6,0.7
		c0.2,0,0.4,0,0.6,0C2,4,2.4,4,2.8,4C3,4,3.1,4,3.3,4c0.2,0,0.3-0.1,0.4-0.2C3.9,3.7,4,3.5,4,3.2C4,2.9,4,2.5,4.1,2.2z"/>
	<path class="st0" d="M2.2,1.1c0.6,0,1.1,0.5,1.1,1.1c0,0.6-0.5,1.2-1.1,1.2c-0.6,0-1.1-0.5-1.1-1.1C1.1,1.6,1.6,1.1,2.2,1.1z
		 M1.5,2.2C1.5,2.6,1.8,3,2.2,3C2.6,3,3,2.6,3,2.2c0-0.4-0.3-0.7-0.7-0.7C1.8,1.5,1.5,1.8,1.5,2.2z"/>
	<path class="st0" d="M3.7,1c0,0.1-0.1,0.3-0.3,0.3C3.3,1.3,3.1,1.2,3.1,1c0-0.2,0.1-0.3,0.3-0.3C3.6,0.8,3.7,0.9,3.7,1z"/>
</g>
</svg>
