<?xml version="1.0" encoding="utf-8"?>
<!-- Generator: Adobe Illustrator 22.0.0, SVG Export Plug-In . SVG Version: 6.00 Build 0)  -->
<svg version="1.1" id="Capa_1" xmlns="http://www.w3.org/2000/svg" xmlns:xlink="http://www.w3.org/1999/xlink" x="0px" y="0px"
	 viewBox="0 0 5.3 4.5" style="enable-background:new 0 0 5.3 4.5;" xml:space="preserve">
<style type="text/css">
	.st0{fill:#FFFFFF;}
</style>
<path class="st0" d="M1.9,3.6H1.3V1.8h0.6V3.6z M1.9,1.2c0-0.2-0.1-0.3-0.3-0.3C1.4,0.9,1.3,1,1.3,1.2c0,0.2,0.1,0.3,0.3,0.3
	C1.8,1.5,1.9,1.4,1.9,1.2z M4,2.6c0-0.5-0.1-0.9-0.7-0.9C3,1.8,2.9,1.9,2.8,2l0,0V1.8H2.2v1.8h0.6V2.7c0-0.2,0.1-0.5,0.4-0.5
	c0.3,0,0.3,0.3,0.3,0.5v0.9H4V2.6z M4.7,3.9V0.7c0-0.3-0.2-0.5-0.5-0.5H1.1c-0.3,0-0.5,0.2-0.5,0.5v3.2c0,0.3,0.2,0.5,0.5,0.5h3.2
	C4.5,4.3,4.7,4.1,4.7,3.9z M4.2,0.5c0.1,0,0.2,0.1,0.2,0.2v3.2C4.4,3.9,4.3,4,4.2,4H1.1C1,4,0.9,3.9,0.9,3.9V0.7
	c0-0.1,0.1-0.2,0.2-0.2H4.2z"/>
</svg>
