<?xml version="1.0" encoding="utf-8"?>
<!-- Generator: Adobe Illustrator 22.0.0, SVG Export Plug-In . SVG Version: 6.00 Build 0)  -->
<svg version="1.1" id="Capa_1" xmlns="http://www.w3.org/2000/svg" xmlns:xlink="http://www.w3.org/1999/xlink" x="0px" y="0px"
	 viewBox="0 0 77.8 98.6" style="enable-background:new 0 0 77.8 98.6;" xml:space="preserve">
<style type="text/css">
	.st0{fill-rule:evenodd;clip-rule:evenodd;fill:#FFFFFF;}
	.st1{fill-rule:evenodd;clip-rule:evenodd;fill:#FFCADE;}
	.st2{fill-rule:evenodd;clip-rule:evenodd;fill:#80E5E5;}
	.st3{fill-rule:evenodd;clip-rule:evenodd;fill:#CBA5DD;}
	.st4{fill:#FFFFFF;}
</style>
<g>
	<path class="st0" d="M38.8,27.2c0-0.1,0-0.3,0-0.4l0-1.2c0-5.1,0-10.2,0-15.3c0-1.3-0.4-1.7-1.7-1.6c-0.7,0.1-1.4,0.2-2,0.3
		c-1.8,0.2-3.6,0.5-5.4,0.7c-1.2,0.2-1.6,1.2-0.9,2.2c0.2,0.3,0.4,0.6,0.7,0.8c0.6,0.7,0.9,1.6,0.9,2.5c0,3.1,0.1,6.3,0,9.4
		c0,1.1-0.4,2.3-0.9,3.4c-0.5,1.1-1.5,1.5-2.7,1.4c-1.2-0.1-2-0.9-2.2-2c-0.2-1-0.4-2.1-0.4-3.2c0-4.6,0.1-9.2,0.1-13.8
		c0-1.3-0.4-1.7-1.7-1.6c-0.7,0-1.4,0.2-2.1,0.3c-1.8,0.2-3.5,0.5-5.3,0.7c-1.4,0.2-1.8,1.2-0.9,2.3c0.1,0.1,0.2,0.3,0.3,0.4
		c0.9,0.9,1.2,2,1.2,3.3c0,2.8-0.1,5.6,0.1,8.3c0.2,3.4,1.6,6.3,4.9,7.6c3.8,1.6,7.4,1.4,10.5-1.6c0.1,0.3,0.2,0.5,0.2,0.5
		c0,0,0,0,0,0c0.7,1.2,2,2,3.4,2c2.3,0,4.1-2.1,4.1-4.8V27.2L38.8,27.2z"/>
	<path class="st0" d="M64.6,63c-3-0.3-5.7-1.1-8.1-2.9c-6.7-5-6.2-14.9,0.9-19.3c4.8-3,11.5-2.6,15.9,0.9c3.9,3.1,5.3,7.2,4.2,12
		c-1.1,4.8-4.3,7.6-9,8.8C67.2,62.8,66.5,63,64.6,63z M69,55.4c0-4.1-0.6-7.6-2-10.9c-0.4-1-1.1-2-1.8-2.7c-1.2-1.2-3.1-0.8-4,0.7
		c-0.3,0.5-0.5,1.1-0.6,1.7c-0.7,3.5-0.2,6.9,0.7,10.3c0.5,1.8,1.1,3.5,2.3,5c1.6,1.8,3.8,1.4,4.6-0.8C68.7,57.5,68.8,56.1,69,55.4z
		"/>
	<path class="st0" d="M10.6,91.3c-2.4-0.1-4.9-0.3-7.2-1.5c-0.9-0.5-1.8-1.2-2.5-2c-1.2-1.5-1-3.7,0.3-4.6c1.5-1.1,4-0.8,5.1,0.7
		c0.5,0.7,0.8,1.4,1.2,2.2c0.3,0.6,0.6,1.3,1,1.9c0.7,1.1,1.9,1.4,3.2,1c1.1-0.4,1.6-1.3,1.5-2.6c-0.1-1.4-0.8-2.5-2-3.1
		c-1.2-0.5-2.4-0.9-3.6-1.4c-1.1-0.4-2.2-0.8-3.3-1.3c-4.8-2.1-5-8.8-0.7-11.5c2.5-1.6,5.3-2,8.2-1.8c2.1,0.1,4.1,0.5,5.9,1.6
		c1,0.6,2,1.3,2.5,2.4c0.9,1.6,0.5,3.3-0.9,4.2c-1.5,0.9-3.6,0.6-4.6-0.9c-0.5-0.7-0.8-1.6-1.1-2.4c-0.3-0.6-0.5-1.2-0.8-1.8
		c-0.9-1.4-2.8-1.3-3.6,0.2c-0.8,1.5-0.4,3.6,1.1,4.6c0.9,0.6,1.9,1,2.8,1.4c1.3,0.5,2.6,0.9,3.8,1.5c2.6,1.1,4,3,4.1,5.8
		c0,2.8-1.4,4.6-3.7,5.8C15.3,91,13,91.3,10.6,91.3z"/>
	<path class="st0" d="M51.6,16.3c0,4.8,0,9.6,0,14.3c0,1.2,0.3,2.2,1.2,3.1c0.3,0.3,0.6,0.7,0.8,1.1c0.4,0.9,0,1.6-1,1.6
		c-3.4,0-6.9,0-10.3,0c-1,0-1.4-0.6-1.1-1.5c0.2-0.5,0.5-0.9,0.8-1.3c0.6-0.8,0.9-1.6,0.9-2.7c0-7.1,0-14.3,0-21.4
		c0-1-0.3-1.9-1-2.7c-0.2-0.3-0.5-0.6-0.7-0.9C40.8,5.1,41,4.4,41.8,4c1.2-0.7,2.5-1.3,3.8-1.9c1.2-0.6,2.4-1.2,3.6-1.8
		c1.6-0.8,2.4-0.3,2.4,1.5C51.6,6.6,51.6,11.5,51.6,16.3z"/>
	<path class="st0" d="M40.1,62.8c-8.7-0.1-14.6-8.2-11.8-16.4c1.6-4.6,5.9-7.6,11.2-7.7c2.6-0.1,5.1,0.4,7.4,1.9
		c1.8,1.1,2.9,2.7,3.1,4.9c0.1,1.8-0.9,2.9-2.6,3.1c-1.8,0.2-3.2-0.5-4.2-1.9c-0.6-0.9-1.1-1.9-1.6-2.8c-0.3-0.6-0.7-1.2-1.1-1.7
		c-1-1.3-2.7-1.4-3.8-0.1c-0.5,0.6-1,1.5-1.2,2.3c-0.7,3.3-0.2,6.5,1.6,9.3c2.4,3.9,8.2,4.5,11.1,0.7c0.4-0.5,0.8-0.8,1.5-0.6
		c0.6,0.3,0.5,0.8,0.5,1.4c-0.3,3.5-3,6.5-6.8,7.3C42.2,62.6,41.1,62.7,40.1,62.8z"/>
	<path class="st1" d="M77.1,29.7C77.1,29.6,77.1,29.6,77.1,29.7c0,0,0-0.1,0-0.1c0-0.1,0-0.2,0-0.3c0,0,0,0,0,0v0
		c-0.3-2.2-0.5-4.4-0.8-6.6c-0.2-1.4-0.4-5.9-0.8-7.2c-1-3.2-3.1-5.4-6.3-6.5C65.4,7.7,61.6,7.9,58,9.4c-1.5,0.6-2.6,1.7-3,3.3
		c-0.6,2.4,0.9,4.3,3.4,4.2c1.4-0.1,2.2-0.8,2.8-2c0.5-1,0.9-2.1,1.4-3.2c0.4-0.8,1-1.3,2-1.2c1,0,1.7,0.5,2.1,1.4
		c0.9,2.2,1,7.6,1.2,10c-0.4-0.2-0.6-0.3-0.9-0.4c-3.1-1.2-6.2-1.1-9.1,0.5c-4.6,2.5-4.8,9.2-0.4,11.9c3.6,2.2,8.8,1.9,12-0.9
		c0,0,0,0,0,0c0,0,0,0,0,0.1c0,0,0,0,0,0c0.8,1.3,2,2.1,3.4,2.1c2.3,0,4.2-2.2,4.2-4.8C77.1,30.1,77.1,29.9,77.1,29.7z M68.4,30.4
		c0,0.4-0.2,0.8-0.4,1.1c-0.9,1.6-2.6,1.7-3.7,0.2c-1-1.5-1.2-3.2-1.4-5c0.2-0.7,0.2-1.5,0.5-2.2c0.7-1.6,2.7-1.9,3.8-0.6
		c0.2,0.2,0.4,0.5,0.5,0.8C68.4,26.6,68.6,28.5,68.4,30.4z"/>
	<path class="st2" d="M22.9,58.9C22.9,58.8,22.9,58.8,22.9,58.9c0,0,0-0.1,0-0.1c0-0.1,0-0.2,0-0.3c0,0,0,0,0,0v0
		c-0.3-2.2-0.5-4.4-0.8-6.6c-0.2-1.4-0.4-2.7-0.8-4c-1-3.2-3.1-5.4-6.3-6.5c-3.8-1.3-7.6-1.1-11.3,0.4c-1.5,0.6-2.6,1.7-3,3.3
		c-0.6,2.4,0.9,4.3,3.4,4.2c1.4-0.1,2.2-0.8,2.8-2c0.5-1,0.9-2.1,1.4-3.2c0.4-0.8,1-1.3,2-1.2c1,0,1.7,0.5,2.1,1.4
		c0.9,2.2,1,4.5,1.2,6.8c-0.4-0.2-0.6-0.3-0.9-0.4c-3.1-1.2-6.2-1.1-9.1,0.5c-4.6,2.5-4.8,9.2-0.4,11.9c3.6,2.2,8.8,1.9,12-0.9
		c0,0,0,0,0,0c0,0,0,0,0,0.1c0,0,0,0,0,0c0.8,1.3,2,2.1,3.4,2.1c2.3,0,4.2-2.2,4.2-4.8C23,59.3,22.9,59.1,22.9,58.9z M14.2,59.6
		c0,0.4-0.2,0.8-0.4,1.1c-0.9,1.6-2.6,1.7-3.7,0.2c-1-1.5-1.2-3.2-1.4-5c0.2-0.7,0.2-1.5,0.5-2.2c0.7-1.6,2.7-1.9,3.8-0.6
		c0.2,0.2,0.4,0.5,0.5,0.8C14.3,55.8,14.5,57.7,14.2,59.6z"/>
	<path class="st3" d="M62.1,86.4C62.1,86.4,62.1,86.4,62.1,86.4c0,0,0-0.1,0-0.1c0-0.1,0-0.2,0-0.3c0,0,0,0,0,0l0,0
		c-0.3-2.2-0.5-4.4-0.8-6.6c-0.2-1.4-0.6-6.6-1-7.9c-1-3.2-3.1-5.4-6.3-6.5c-3.8-1.3-7.6-1.1-11.3,0.4c-1.5,0.6-2.6,1.7-3,3.3
		c-0.6,2.4,0.9,4.3,3.4,4.2c1.4-0.1,2.2-0.8,2.8-2c0.5-1,0.9-2.1,1.4-3.2c0.4-0.8,1-1.3,2-1.2c1,0,1.7,0.5,2.1,1.4
		c0.9,2.2,1.2,8.3,1.4,10.7c-0.4-0.2-0.6-0.3-0.9-0.4c-3.1-1.2-6.2-1.1-9.1,0.5c-4.6,2.5-4.8,9.2-0.4,11.9c3.6,2.2,8.8,1.9,12-0.9
		c0,0,0,0,0,0c0,0,0,0,0,0.1c0,0,0,0,0,0c0.8,1.3,2,2.1,3.4,2.1c2.3,0,4.2-2.2,4.2-4.8C62.1,86.8,62.1,86.6,62.1,86.4z M52.6,87.2
		c0,0.4-0.1,0.9-0.3,1.2c-0.9,1.6-2.7,1.7-3.8,0.1c-1-1.5-1.4-3.1-1.3-5c0-0.9,0.1-1.5,0.4-2.2c0.7-1.6,2.7-1.9,3.8-0.6
		c0.2,0.2,0.4,0.5,0.5,0.7C52.6,83.4,52.8,85.3,52.6,87.2z"/>
	<path class="st4" d="M22.5,35.6c-7.9,0.6-10.5-4.2-11.2-5.9c-0.6-1.6-0.8-3.2-0.9-4.3c0-3.1,0-6.1,0-9.2c0-4.8,0-9.6,0-14.4
		c0-1.8-0.8-2.3-2.4-1.5C6.9,0.9,5.7,1.5,4.5,2.1C3.2,2.8,2,3.4,0.7,4c-0.8,0.4-0.9,1-0.5,1.8c0.2,0.3,0.4,0.6,0.7,0.9
		c0.7,0.8,1,1.7,1,2.7c0,7.1,0,14.3,0,21.4c0,1-0.3,1.9-0.9,2.7c-0.3,0.4-0.7,0.8-0.8,1.3c-0.3,0.9,0.1,1.5,1.1,1.5c2.7,0,5.3,0,8,0
		l0,0c10.9-0.1,12,5.9,15.1,6.1C29.2,42.9,28.8,35.1,22.5,35.6z"/>
	<path class="st0" d="M39.9,94.5L39.9,94.5c-5.8-0.6-5.8-7.1-5.8-7.1l0,0c0-4-0.1-10.3-0.1-11.3v-0.3h0c0-2.3,0-4.2,0-5.3
		c0-0.3,0-0.6,0-1.1c0.6,0,1.2,0,1.7,0c0.8,0,1.2-0.4,1.2-1.2c0-0.3,0-0.6,0-0.9c0-0.7-0.4-1.1-1.1-1.1c-0.6,0-1.4-0.2-2-0.4
		c-1.8-0.6-4.2-2.2-5.3-4.1c-0.7-1.2-1.1-1.6-1.9-1.6c-0.8,0.1-1.2,0.4-1.2,1.5c0,0.5,0,1,0,1.5c-0.1,1.3-0.6,3.1-2.3,3.1
		c-0.4,0-0.6,0-0.8,0.1c0,0,0,0-0.1,0c-0.7,0-1.1,0.4-1.1,1.1c0,0.3,0,0.6,0,0.9c0,0.8,0.4,1.2,1.2,1.2c0.5,0,2.2,0,3.1,0v0v6.1h0
		c0,5.6,0,12.4,0,15c0.1,4.7,2.6,7.6,6.7,8c0.3,0,0.5,0.1,0.8,0.1c4.7,0.1,7.3-1.7,7.8-2.3C41,95.9,41.3,94.6,39.9,94.5z"/>
</g>
</svg>
