<?xml version="1.0" encoding="utf-8"?>
<!-- Generator: Adobe Illustrator 22.0.0, SVG Export Plug-In . SVG Version: 6.00 Build 0)  -->
<svg version="1.1" id="Capa_1" xmlns="http://www.w3.org/2000/svg" xmlns:xlink="http://www.w3.org/1999/xlink" x="0px" y="0px"
	 viewBox="0 0 5.3 4.5" style="enable-background:new 0 0 5.3 4.5;" xml:space="preserve">
<style type="text/css">
	.st0{fill-rule:evenodd;clip-rule:evenodd;fill:#FFFFFF;}
</style>
<path class="st0" d="M2.7,0.3c0.7,0,1.3,0,2,0c0.3,0,0.4,0.1,0.4,0.5c0,1,0,2,0,3.1c0,0.4-0.1,0.5-0.4,0.5c-1.4,0-2.7,0-4.1,0
	c-0.3,0-0.4-0.1-0.4-0.5c0-1,0-2.1,0-3.1c0-0.3,0.1-0.5,0.4-0.5C1.3,0.3,2,0.3,2.7,0.3z M4.8,4.1C4.3,3.5,3.7,2.9,3.2,2.3
	C3,2.5,2.9,2.6,2.7,2.7c-0.1,0.1-0.1,0.1-0.2,0C2.4,2.6,2.3,2.5,2.1,2.3C1.6,2.9,1,3.5,0.5,4.1C1.9,4.1,3.4,4.1,4.8,4.1z M2.7,2.5
	c0.7-0.7,1.4-1.3,2.1-2c-1.4,0-2.8,0-4.2,0C1.3,1.2,2,1.9,2.7,2.5z M3.3,2.2c0.5,0.6,1.1,1.2,1.6,1.7c0-1.1,0-2.1,0-3.2
	C4.4,1.2,3.8,1.7,3.3,2.2z M2,2.2c-0.5-0.5-1.1-1-1.6-1.5c0,1.1,0,2.1,0,3.2C1,3.3,1.5,2.8,2,2.2z"/>
</svg>
