<?xml version="1.0" encoding="utf-8"?>
<!-- Generator: Adobe Illustrator 22.0.0, SVG Export Plug-In . SVG Version: 6.00 Build 0)  -->
<svg version="1.1" id="Capa_1" xmlns="http://www.w3.org/2000/svg" xmlns:xlink="http://www.w3.org/1999/xlink" x="0px" y="0px"
	 viewBox="0 0 731 734.2" style="enable-background:new 0 0 731 734.2;" xml:space="preserve">
<style type="text/css">
	.st0{fill-rule:evenodd;clip-rule:evenodd;fill:#FFFFFF;}
</style>
<g>
	<g id="K52NGN.tif_1_">
		<g>
			<path class="st0" d="M239.3,454.2c0,8.1-0.2,16,0.1,23.7c0.2,6.3-2.7,7.4-8.7,5.7c0-21.2-0.1-42.4,0.2-63.7
				c0.1-1.7,2.9-4.7,4.6-4.9c7.2-0.5,14.5-1,21.6-0.2c8.5,0.9,14.8,5.6,16.3,14.5c1.4,8.3-1.9,14.8-9.2,19.1c-0.8,0.5-1.5,1.2,0,1.4
				c3.9,11.1,8,22.2,11.9,33.3c-6.8,2.7-9.8,0.4-11-5.1c-0.6-2.9-1.3-5.8-2-8.7C259.5,454.9,256,452.5,239.3,454.2z M239.4,447.8
				c6.1-0.5,11.1-0.3,15.6-1.5c9.1-2.4,13.2-12.3,8.4-19.8c-3.9-6.4-10.6-6.5-17.2-6.7c-4.9-0.2-7.3,1.9-7,7.3
				C239.7,433.6,239.4,440,239.4,447.8z"/>
			<path class="st0" d="M386.4,495.3c3.9,0,5.9,0,8.6,0c0,24.2,0,48.1,0,74.7c-3.6-2.3-6.1-3.9-8.7-5.6c-5.5,1.7-12.3,5-19.2,5.3
				c-4.3,0.1-9.6-3.7-13-7.1c-8.3-8.4-8.1-26.4-0.6-36.2c7.5-9.8,17.8-11,32.9-3.1C386.4,513.8,386.4,504.9,386.4,495.3z
				 M386.7,541.2c-0.1-0.4,0.1-3.2-0.3-5.8c-1.1-6.3-5.1-10.9-11.2-10.9c-4.7-0.1-10.8,1.8-14,5c-6.6,6.6-6.4,20.2-1,27.9
				c3.5,5.2,8.5,7.2,14.6,6C383.2,561.8,386.7,556,386.7,541.2z"/>
			<path class="st0" d="M615.5,326.6c3.4,0,5.7,0,8.4,0c0,24.4,0,48.3,0,75.2c-4-2.9-6.5-4.8-9.5-7c-13.1,8.8-22.3,9.3-30.7,0.5
				c-8.6-9.2-9.3-27.2-1.5-37.6c7.5-9.9,18.3-11.1,33.4-2.7c0-5,0-9.4,0-13.9C615.5,336.5,615.5,331.9,615.5,326.6z M616.2,375.1
				c-0.3-0.1-0.5-0.2-0.5-0.2c-0.3-2.2-0.2-4.4-0.3-6.4c-0.6-7-4.3-11.5-11.2-13c-6.8-1.6-12.2,0.7-15.7,6.9
				c-4.4,7.8-5.3,16.4-0.7,23.8c2.6,4,8.6,8.1,13.2,8.3c4,0.1,9.3-4.3,12.5-8C615.7,383.8,615.3,379,616.2,375.1z"/>
			<path class="st0" d="M282.8,568c-6.1,1.9-9,0.3-10.8-5.4c-5.6-16.8-5.8-16.6-24.1-16.4c-5.1,0.1-8.1,1.6-9.3,6.7
				c-0.9,3.4-2.5,6.6-3.2,10c-1.2,5.6-4.2,7-10.2,4.7c3.8-11.2,7.5-22.4,11.4-33.6c3.5-10.5,6.8-21,10.8-31.4c0.8-2,4-4,6.4-4.4
				c2-0.3,5.2,1.3,6.4,3.1c1.8,2.9,2.5,6.5,3.6,9.8C270.1,530.1,276.5,549,282.8,568z M264.5,539.9c-3.6-11.3-6.9-21.8-10.8-34.2
				c-4,12.4-7.3,23-10.8,34.2C250.4,539.9,257,539.9,264.5,539.9z"/>
			<path class="st0" d="M230.6,329.4c11.9,0,22.7-0.2,33.4,0.2c1.5,0.1,2.9,2,4.4,3.2c-1.5,1.2-2.9,3.5-4.4,3.5
				c-7.8,0.3-15.6,0.2-24.1,0.2c0,7.9,0,15.3,0,23.7c7.1,0,14-0.3,20.9,0.1c2,0.2,4,2.2,6,3.3c-2,1.2-4,3.4-6,3.5
				c-6.7,0.5-13.5,0.2-20.9,0.2c0,8.4,0,16.3,0,25.7c8,0,16.3-0.3,24.5,0.2c2.2,0,4.3,2.6,6.4,4c-0.5,0.8-1,1.6-1.3,2.4
				c-12.6,0-25.2,0-38.8,0c0-12,0-23.5,0-35C230.6,353.2,230.6,341.9,230.6,329.4z"/>
			<path class="st0" d="M292,519c4.5,0.3,6.6,0.5,9.4,0.8c0,10.6-0.4,20.9,0.1,31.1c0.5,8.6,4.9,12.6,11.8,12.5
				c7.8-0.2,12.7-5.2,13.3-13.4c0-1.9,0-3.8,0-5.7c0-6,0.3-11.9,0-17.8c-0.4-6.3,1.9-8.5,8.3-6.4c0,16.1,0,32.2,0,51.1
				c-4-3.5-6.5-5.5-9-7.6c-2.6,1.6-6.1,4.3-10,5.8c-10.1,3.7-20.1-1-21.7-11.6C292.5,545.3,292.7,532.5,292,519z"/>
			<path class="st0" d="M370,350.9c3.7,0,6,0,9.2,0c0,9.4-0.1,18.6,0.1,27.7c0.1,11,3.9,15.9,11.8,15.9c8.7,0,13.4-5.7,13.5-16.4
				c0.1-6.8,0.3-13.5-0.1-20.3c-0.3-6,1.6-8.8,8.4-6.8c0,16,0,32.1,0,50.8c-3.9-3-6.4-5-9.1-7.2c-2,1.3-5.1,4-8.7,5.5
				c-10.7,4.3-21.3-0.5-22.9-11.8C370.3,376.2,370.6,363.7,370,350.9z"/>
			<path class="st0" d="M651.4,519.4c0,16.7,0,32.5,0,50.9c-3.7-2.7-6.3-4.4-8.7-6.1c0.4-0.5,0.7-1,1-1.3c-0.5,0.1-1.1-0.2-1.4,0.1
				c-6.5,6.4-13.7,9.8-22.7,5.9c-9.3-3.9-10.3-12.5-10.5-21c-0.4-9.1-0.1-18.3-0.1-27.9c2.9-0.2,5.2-0.4,7.4-0.7
				c0.5,1.2,1,1.9,1,2.6c0.1,9,0,17.8,0.2,26.7c0.3,10.2,4.4,14.9,12.2,14.8c8.1-0.2,12.9-5.7,13.1-15.2c0.1-9.2,0-18.3,0-28.4
				C646.2,519.6,648.6,519.5,651.4,519.4z"/>
			<path class="st0" d="M669.1,433.9c2.4,1.9,4.9,3.9,7.6,6.1c1.9-1.2,4.8-3.8,8.1-5.2c11.2-4.6,22.4,0.9,23.7,12.7
				c1.3,11.7,0.3,23.7,0.3,36.3c-1.8,0.1-4.3,0.2-7.6,0.4c0-9.9,0.1-19-0.1-28.2c-0.1-10.8-3.9-15.9-11.8-15.9
				c-8.5-0.1-13.3,5.4-13.4,15.6c-0.2,9.2,0,18.3,0,27.8c-3.2,0-5.6,0-8.3,0c0-16,0-31.9,0-47.7
				C668.1,435.4,668.7,434.6,669.1,433.9z"/>
			<path class="st0" d="M653.4,459.3c0,15.3-10.3,26.5-24.6,26.7c-13.8,0.2-24.5-11-24.6-25.7c-0.2-15.6,10.6-27.3,25.1-27.1
				C643.6,433.4,653.3,443.9,653.4,459.3z M645.4,459.8c-1.1-4.3-1.6-8.2-3.1-11.5c-4.9-10.8-18.7-12.1-25.6-2.5
				c-5.3,7.4-5.2,20.9,0.4,28.1c6.6,8.6,19,7.9,24.2-1.7C643.5,468.3,644.2,463.7,645.4,459.8z"/>
			<path class="st0" d="M481.4,544.6c-0.1,14.7-11.3,25.9-25.6,25.7c-13.3-0.1-23.6-11.3-23.6-25.7c-0.1-15.5,10.7-26.9,25.2-26.9
				C471.7,517.8,481.6,528.9,481.4,544.6z M472.8,543.1c-0.3-6.3-1.8-13.6-9.3-17.8c-6.1-3.4-13.4-1.6-18.1,4
				c-5.9,7.1-6.2,20.9-0.5,28.7c4.1,5.6,11.7,7.7,18,4.6C470.3,559,472.5,552.3,472.8,543.1z"/>
			<path class="st0" d="M487.2,441.3c0.4-2,0.2-3.9,0.9-4.3c7.4-4.2,15.3-5.3,23.4-2.2c7.2,2.7,10,8.9,10.3,16
				c0.5,10.7,0.1,21.5,0.1,34.7c-3.8-2.2-6.5-3.6-9.1-5.1c-3,1.5-6.7,3.9-10.7,5c-7.6,2.1-15.5-1.8-18.2-8.3c-3-6.8-1-15.2,6.3-18.8
				c6.8-3.5,14.6-4.9,22.5-7.3C513.9,440.2,510.1,438.4,487.2,441.3z M513,457.6c-5.6,1.2-11,1.7-15.8,3.7c-5.9,2.3-7.7,7.6-5,13.3
				c2.8,6.1,8.3,6.5,13.7,4C512.9,475.7,514.8,470.4,513,457.6z"/>
			<path class="st0" d="M301.8,282c0.6-11-5.4-13.6-25.7-8.7c1.1-2.6,1.3-5.2,2.6-5.8c7.6-3.5,15.5-4.6,23.4-0.8
				c7.3,3.6,8.8,10.5,9,17.8c0.2,9.4,0.1,18.9,0.1,28.3c0,0.5-0.3,1-1,3.3c-3-1.7-5.7-3.1-7.9-4.3c-4.4,1.7-9,4.3-13.8,5.1
				c-7.5,1.1-13.2-2.4-15.9-9.7c-2.5-7-0.8-13.7,5.4-17C285.3,286.5,293.5,284.7,301.8,282z M301.6,289.2c-4.8,0.8-9.9,1.1-14.5,2.7
				c-5.9,1.9-8.4,8.6-6.1,13.8c2.4,5.2,8.6,6.9,14.6,4C302.2,306.4,304.2,300.3,301.6,289.2z"/>
			<path class="st0" d="M367.1,451.6c-0.8-12.1-3.9-13.3-26.9-9.9c1.8-2.7,2.5-5,3.9-5.7c15.9-8.7,31.6,0.3,31.8,18.1
				c0.2,9.7,0,19.4,0,31.4c-3.9-2.1-6.5-3.6-9.6-5.2c-1.6,1-3.9,2.9-6.6,4c-9.2,4-18.4,0.8-22-7.3c-3.5-8.1,0.4-17.3,9.9-20.8
				C353.6,453.9,360.2,453.1,367.1,451.6z M366.4,457.9c-5,1-10.5,1.3-15.2,3.3c-5.6,2.4-7.8,7.6-5.1,13.4c2.6,5.7,7.5,6.4,12.9,4.4
				C366.8,476.3,369.4,469.5,366.4,457.9z"/>
			<path class="st0" d="M534.2,366.1c-0.6-11-4.4-12.5-26.6-8.8c1.5-2.6,2-4.9,3.4-5.7c15.9-9,31.8,0.3,32.1,18.5
				c0.1,9.7,0,19.4,0,31.2c-3.8-2.1-6.4-3.6-9.5-5.3c-2.8,1.4-6.4,3.8-10.4,5.1c-7.1,2.1-14.9-1.6-18-7.7c-3.1-6.2-1.7-14.9,5-18.4
				C517.2,371,525.4,369.2,534.2,366.1z M534.2,373.5c-5.4,1-10.5,1.2-15.2,2.9c-5.8,1.9-8.5,8.7-5.9,13.8c2.8,5.7,7.6,6.4,13,4.5
				C533.6,392.1,536,386.5,534.2,373.5z"/>
			<path class="st0" d="M252.5,252c0,21.8,0,42.3,0,63.1c-2.9,0-5.2,0-8.3,0c0-20.7,0-41.1,0-63.1c-6,0-11.3,0.3-16.6-0.2
				c-1.8-0.1-3.3-2.2-5.1-3.5c1.6-1.1,3.3-3.3,5-3.3c13.8-0.3,27.6-0.3,41.4,0c1.7,0.1,3.4,2.2,5.1,3.3c-1.7,1.2-3.3,3.3-5.1,3.4
				C263.9,252.3,258.8,252,252.5,252z"/>
			<path class="st0" d="M694.9,536.5c-0.6-9.8-4.9-13.7-13.8-12.8c-2.4,0.2-4.6,1.2-7.1,1.5c-1.6,0.2-3.2-0.4-4.9-0.6
				c1.1-1.5,1.9-3.7,3.3-4.4c16.6-8.1,31.1,0.5,31.2,18.8c0.2,9.7,0,19.4,0,31.2c-3.8-2.2-6.5-3.6-9.3-5.2c-3,1.4-6.6,3.8-10.6,4.9
				c-7.7,2.2-15.4-1.7-18.2-8.4c-2.8-6.9-0.6-14.7,6.4-19c3.3-2,7.3-3.1,11.2-4C686.7,537.4,690.5,537.1,694.9,536.5z M694.6,542.1
				c-5.7,1.2-11.1,1.6-15.9,3.6c-5.4,2.2-7.2,7.3-5.1,12.8c2.2,5.7,7,6.9,12.7,5.1C694.3,561,696.7,555.4,694.6,542.1z"/>
			<path class="st0" d="M679.7,375.5c-11.1,0-22.3,0-33.4,0c-1.3,14.1,7.7,21.7,21.7,19.8c3-0.4,6.2,0.5,9.3,0.9
				c-3,1.6-5.8,4-8.8,4.6c-13.9,2.6-23.6-1.8-28.6-12.3c-5.1-10.7-2.6-26.4,5.5-33.8c6.9-6.1,17.1-7.5,24.8-3.3
				C677.9,355.6,681.9,365.2,679.7,375.5z M672.3,369.4c-0.8-10.2-4.5-14.6-12.1-14.8c-7.8-0.2-12.7,4.9-14.1,14.8
				C654.7,369.4,663.2,369.4,672.3,369.4z"/>
			<path class="st0" d="M415.7,291.4c-11.7,0-23,0-34.1,0c-0.5,13.1,6.8,20.4,19.1,19.7c2.9-0.2,5.8-1.2,8.8-1.4c1-0.1,2.6,1,3,1.8
				c0.4,0.9-0.3,2.6-1.1,3.2c-5.6,4.4-23.3,2.6-30.1-2.9c-8.4-6.8-11.1-23.1-5.8-34.3c4.4-9.4,14.8-14.5,24.7-12.7
				C408.7,266.4,418.2,276.2,415.7,291.4z M407.7,285.2c-0.5-10.5-4.7-15.3-12.7-15c-7.9,0.2-13.1,6.2-12.8,15
				C390.5,285.2,398.8,285.2,407.7,285.2z"/>
			<path class="st0" d="M468.9,375.7c-11.4,0-22.4,0-33.3,0c-1.8,13.2,7.1,21.3,20.7,19.7c3.3-0.4,6.8,0.5,10.2,0.8
				c-3.3,1.6-6.4,4.1-9.8,4.7c-12,2.3-22.5-2.4-27.2-11.3c-5.1-9.5-3.6-25.3,3.1-33c6.4-7.3,17.4-9.8,25.9-5.8
				C466.5,354.5,470.8,364.2,468.9,375.7z M461.4,369.5c0.2-6.3-1-12.1-7.1-13.4c-4.2-1-9.9-0.5-13.5,1.7c-3.2,1.9-4.4,7.1-6.9,11.7
				C444.6,369.5,452.9,369.5,461.4,369.5z"/>
			<path class="st0" d="M327.9,459.8c-11.2,0-22.3,0-33.5,0c-1.9,13.8,7.3,21.8,21.5,19.9c3-0.4,6.1,0.4,9.2,0.8
				c-3,1.6-5.7,4.2-8.8,4.8c-10.2,1.9-19.8,0.3-26.1-8.7c-6.8-9.6-6.7-20.4-1.8-30.8c4.9-10.4,16.2-14.7,26.6-11.3
				C324.7,437.6,329.9,447.4,327.9,459.8z M320,453.7c-0.3-9.6-4.3-14.5-11.9-14.8c-7.7-0.4-12.6,4.5-14.2,14.8
				C302.5,453.7,311,453.7,320,453.7z"/>
			<path class="st0" d="M433.7,482c9.9-13,19.8-26.1,31.2-41c-8.4,0-14.9,0.3-21.5-0.1c-2.2-0.2-4.2-2.2-6.3-3.3
				c2.2-1,4.3-2.6,6.5-2.7c10.3-0.3,20.4-0.1,32.7-0.1c-7,16.7-20.7,27.2-29.9,43.3c8.5,0,15.6-0.3,22.8,0.1c2,0.2,3.9,2.2,5.9,3.3
				c-1.9,1-3.8,2.6-5.7,2.6c-11.3,0.3-22.5,0.2-33.8,0.2C435,483.6,434.4,482.8,433.7,482z"/>
			<path class="st0" d="M487.8,520.4c6.3-2.6,8.8-0.4,10.6,4.6c3.6,11,7.7,21.8,12.3,34.8c2.2-5.3,3.8-9,5.2-12.7
				c2.7-7.4,5.4-14.7,7.7-22.2c1.5-4.8,4-6.8,10.3-4.7c-2.2,5.6-4.4,11.2-6.6,16.8c-3.7,9.3-7.2,18.6-11.1,27.8
				c-2.2,5-8.6,5.9-10.5,1.5C499.3,551.1,493.7,535.8,487.8,520.4z"/>
			<path class="st0" d="M359,395.3c-1.2,1.6-2.2,3.9-3.8,4.6c-9.7,4.2-23.3,0.7-29.4-7.2c-7.1-9-7.3-23.9-0.4-33.4
				c6.3-8.7,19.6-13.1,29.6-9.4c1.6,0.5,2.4,2.7,3.6,4.1c-1.9,0.6-4,2-6,1.8c-14.7-1.5-23.1,4.9-23.6,18.3
				c-0.5,14.5,8.8,22.8,23.2,20.3c1.5-0.3,3.1-0.5,4.7-0.8C357.5,394.2,358.3,394.8,359,395.3z"/>
			<path class="st0" d="M571.1,435.3c1,6-2.3,5.5-6.3,5c-14.7-2-23.8,5.8-23.5,20c0.3,12.7,9.3,20.5,21.8,18.9
				c2.2-0.3,4.3-0.6,6.4-1c0.6,0.6,1.2,1.1,1.7,1.7c-1.6,1.7-2.9,4.1-4.9,4.7c-10.4,3.4-21.8,0.2-28-7.4c-6.4-7.9-7.3-21.6-1.9-31.3
				c4.9-8.8,16-14,26.9-12.5C566,433.9,568.6,434.7,571.1,435.3z"/>
			<path class="st0" d="M594.7,525.2c-4.6-0.5-8.5-1.8-11.9-1.1c-2.6,0.5-6.1,3.3-6.6,5.7c-0.5,2.3,1.7,6,3.9,7.8
				c2.8,2.4,7.4,2.6,9.8,5.2c3.5,3.9,7.3,8.8,7.9,13.6c0.9,6.4-4,11.5-10.4,12.4c-5.9,0.8-12-0.2-18.1-0.8c-0.9-0.2-1.5-2.3-2.3-3.5
				c1.3-0.8,2.8-2.2,4.2-2.1c3.7,0.1,7.5,1.9,10.9,1.2c2.9-0.6,7-3.6,7.3-5.9c0.3-2.9-2.2-6.6-4.2-9.2c-1.4-1.7-4.4-2-6.5-3
				c-9.1-4.3-12.6-10.2-10.4-17.6c2-7.1,10.8-11.9,19.8-9.9C591.2,518.8,596.9,518.1,594.7,525.2z"/>
			<path class="st0" d="M391.8,410.6c2.9,0.1,5.2,0.3,7.8,0.4c0,24.5,0,48.4,0,72.9c-2.6,0-4.9,0-7.8,0
				C391.8,459.7,391.8,435.8,391.8,410.6z"/>
			<path class="st0" d="M360.5,314.7c-6.1,2.2-8.4,0.4-8.3-5.7c0.2-20.2,0.2-40.5,0-60.8c-0.1-6,2.2-7.7,8.3-5.7
				C360.5,266.3,360.5,290.3,360.5,314.7z"/>
			<path class="st0" d="M721.2,495.6c5.9-1.9,8.3-0.3,8.3,5.8c-0.2,20.2-0.2,40.4,0,60.7c0.1,6.1-2.2,7.8-8.3,5.7
				C721.2,543.8,721.2,519.7,721.2,495.6z"/>
			<path class="st0" d="M278.9,396c1.8-0.6,3.7-1.5,5.6-1.9c1-0.2,2,0.5,3.1,0.8c5.8,1.1,12,1.9,14.6-4.7c2.7-7.3-3.6-9.3-8.5-12.5
				c-4.6-2.9-10.2-6-12.3-10.5c-4-8.7,3.6-17.6,14.6-18.1c3.1-0.2,6.4,0.6,9.5,1.6c1.2,0.3,1.7,2.5,2.5,3.9
				c-1.2,0.6-2.7,1.9-3.7,1.7c-6.3-1.6-13.4-3.3-15.5,4.8c-1.9,7.8,6.1,8.8,11.2,11.4c8.7,4.2,12.4,10.3,10.6,17.7
				c-1.8,7.1-8.5,11.7-17.4,11.4c-4.5-0.2-9-1.5-13.4-2.3C279.5,398.1,279.2,397.1,278.9,396z"/>
			<path class="st0" d="M328.4,242.2c2.7,0,5,0,8.3,0c0,11.2,0,21.9,0,32.7c0,11.1,0.1,22.2,0.1,33.2c-0.1,7.4-0.2,7.4-8.3,6.9
				C328.4,290.9,328.4,266.7,328.4,242.2z"/>
			<path class="st0" d="M492.5,326.2c0,16.2,0,31.6,0,46.9c0,6.8-0.3,13.5,0.1,20.3c0.3,6.3-2.3,7.8-8.3,5.9c0-23.8,0-47.7,0-72.5
				C486.6,326.5,489,326.4,492.5,326.2z"/>
			<path class="st0" d="M438.3,272.9c4.3-3.1,8.8-6.4,14-10.1c2.4,5.7,3.3,8.6-2.4,9.9c-7.7,1.8-10.7,7.6-10.9,15
				c-0.2,8.8,0,17.7,0,26.8c-5.3,1.7-8.8,2.2-8.8-4.7c0.1-14.3,0.1-28.4,0.1-42.7C436.8,266.2,436.8,266.2,438.3,272.9z"/>
			<path class="st0" d="M584.9,435.1c2.6,0,4.7,0,7.5,0c0,16.2,0,32.2,0,48.8c-2.3,0.2-4.6,0.4-7.5,0.6
				C584.9,467.9,584.9,451.9,584.9,435.1z"/>
			<path class="st0" d="M423.4,485.3c-2-1.8-5.9-3.5-5.9-5.3c-0.5-14.8-0.3-29.7-0.3-44.8c3,0,5.4,0,8.1,0c0,16.2,0,32,0,47.9
				C424.8,483.8,424.1,484.6,423.4,485.3z"/>
			<path class="st0" d="M546,519.4c2.8,0,4.9,0,7.6,0c0,16.3,0,32.3,0,48.8c-2.4,0.2-4.7,0.3-7.6,0.5C546,552.2,546,536.2,546,519.4
				z"/>
			<path class="st0" d="M420.9,568.3c-3.2,0-5.4,0-8.1,0c0-16.2,0-32.1,0-50.4c3.5,2.1,7.8,3.4,7.9,4.9
				C421.2,537.8,420.9,552.9,420.9,568.3z"/>
			<path class="st0" d="M641.6,412.6c-5.7,5.1-7.5,12.5-17.3,13.4C629.4,419.4,629.8,410.3,641.6,412.6z"/>
			<path class="st0" d="M587.9,426.3c-2.3-3.3-4.9-5.4-4.6-7.2c0.3-1.9,3.1-3.5,4.8-5.2c1.7,1.8,4.4,3.5,4.6,5.4
				C593,420.9,590.3,423,587.9,426.3z"/>
			<path class="st0" d="M414,419.2c3.1-2.4,5.2-5.2,6.9-5.1c1.9,0.2,4.6,3.1,4.7,5c0.2,1.6-2.9,4.5-4.7,4.7
				C419.2,424,417.1,421.4,414,419.2z"/>
			<path class="st0" d="M548.9,510.5c-2.2-3.2-4.9-5.4-4.6-7.1c0.3-1.9,3.2-3.5,4.9-5.2c1.7,1.8,4.6,3.5,4.9,5.4
				C554.3,505.3,551.4,507.3,548.9,510.5z"/>
			<path class="st0" d="M416,496.5c2.3,3,5,5,4.9,6.9c-0.2,1.8-3.1,4.8-4.7,4.8c-1.7,0.1-4.8-2.9-5-4.6
				C411.1,501.7,413.7,499.7,416,496.5z"/>
		</g>
	</g>
	<rect y="137.5" class="st0" width="185" height="459.1"/>
</g>
</svg>
