<?xml version="1.0" encoding="utf-8"?>
<!-- Generator: Adobe Illustrator 22.0.0, SVG Export Plug-In . SVG Version: 6.00 Build 0)  -->
<svg version="1.1" id="Capa_1" xmlns="http://www.w3.org/2000/svg" xmlns:xlink="http://www.w3.org/1999/xlink" x="0px" y="0px"
	 viewBox="0 0 731 734.2" style="enable-background:new 0 0 731 734.2;" xml:space="preserve">
<style type="text/css">
	.st0{fill:#FFFFFF;}
	.st1{fill-rule:evenodd;clip-rule:evenodd;fill:#FFFFFF;}
</style>
<g>
	<path class="st0" d="M250.5,705.1c0.2-4.1-3.4-7.6-7.5-7.7c-4,0-7.5,3.4-7.5,7.5c0,4.1,3.3,7.4,7.4,7.6
		C247.1,712.5,250.4,709.1,250.5,705.1z M242.9,36.7c4.1,0.1,7.5-3.5,7.6-7.4c0.2-4.1-3.4-7.7-7.3-7.7c-4.2-0.1-7.7,3.3-7.7,7.4
		C235.5,33.2,238.8,36.7,242.9,36.7z M495.5,29.3c0-4.2-3.4-7.6-7.5-7.6c-4.2-0.1-7.5,3.5-7.5,7.6c0,3.9,3.5,7.5,7.5,7.5
		C491.9,36.7,495.5,33.3,495.5,29.3z M495.5,705.1c0.1-4.1-3.4-7.6-7.4-7.7c-4.1,0-7.6,3.4-7.6,7.5c-0.2,4.1,3.3,7.5,7.3,7.7
		C491.9,712.5,495.4,709.2,495.5,705.1z M552.3,52.7c-4.1,0-7.4,3.5-7.6,7.5c0,4.2,3.5,7.6,7.5,7.6c4.1,0,7.6-3.5,7.6-7.5
		C559.7,56.2,556.2,52.7,552.3,52.7z M401,1.8c-4.2,0.1-7.4,3.4-7.4,7.5c0.2,4.2,3.5,7.5,7.6,7.5c4-0.1,7.5-3.6,7.5-7.7
		C408.5,5,405.2,1.7,401,1.8z M312,19c4.1,0.1,7.5-3.2,7.6-7.4c0-4.2-3.5-7.7-7.4-7.7c-4.1,0-7.7,3.5-7.7,7.5
		C304.5,15.4,308,19,312,19z M559.7,70c0.1,4.2,3.5,7.5,7.5,7.5c4.1,0,7.5-3.5,7.5-7.5c-0.1-4.2-3.5-7.4-7.5-7.4
		C563,62.5,559.7,65.8,559.7,70z M528.3,43c0-4.2-3.5-7.5-7.5-7.5c-4.1,0-7.5,3.6-7.5,7.7c0,4,3.5,7.5,7.7,7.3
		C525,50.5,528.3,47.2,528.3,43z M329.7,1.8c-4.2,0-7.5,3.5-7.3,7.5c0,4.2,3.4,7.5,7.5,7.5c4.1-0.1,7.4-3.5,7.4-7.7
		C337.2,5,333.9,1.7,329.7,1.8z M528.3,690.8c-0.1-4.1-3.5-7.5-7.6-7.4c-4.1,0.2-7.5,3.6-7.4,7.7c0.1,4,3.6,7.5,7.7,7.3
		C525.1,698.5,528.4,695,528.3,690.8z M178.6,67.8c4.1,0,7.5-3.3,7.5-7.5c0.2-4-3.1-7.5-7.3-7.6c-4-0.1-7.6,3.4-7.7,7.4
		C171.2,64.1,174.6,67.7,178.6,67.8z M202.7,691.1c0,4.1,3.5,7.6,7.5,7.4c4.1,0,7.4-3.5,7.4-7.5c0-3.9-3.6-7.5-7.7-7.5
		C206,683.5,202.7,687,202.7,691.1z M552.1,681.5c4,0,7.6-3.5,7.6-7.5c0.1-4.1-3.3-7.6-7.4-7.6c-4.2,0-7.5,3.4-7.7,7.5
		C544.6,677.8,547.9,681.4,552.1,681.5z M202.7,43c0,4.2,3.3,7.5,7.3,7.5c4.1,0,7.7-3.3,7.7-7.5c0-3.9-3.5-7.5-7.4-7.5
		C206.1,35.5,202.7,38.9,202.7,43z M55.6,179.8c-4.2,0-7.6,3.1-7.6,7.3c-0.3,4.1,3.2,7.6,7.4,7.7c4,0.1,7.5-3.2,7.5-7.4
		C63,183.3,59.7,179.9,55.6,179.8z M418.8,19c4.2,0,7.6-3.5,7.6-7.5c-0.2-4.2-3.6-7.6-7.6-7.6c-4,0-7.5,3.5-7.5,7.6
		S414.8,19.1,418.8,19z M461.4,18.6c0-4.1-3.3-7.5-7.5-7.5c-4.1,0-7.5,3.4-7.5,7.5c0,4,3.3,7.5,7.4,7.6
		C457.9,26.2,461.2,22.8,461.4,18.6z M171.2,70c0-4.2-3.3-7.4-7.4-7.4c-4.1,0-7.5,3.4-7.5,7.4c0,4.1,3.5,7.5,7.5,7.5
		C167.9,77.5,171.2,74.1,171.2,70z M723.5,383.5c4.1,0,7.5-3.5,7.5-7.5c0-4-3.5-7.5-7.5-7.5c-4.1,0-7.5,3.4-7.5,7.5
		C716,380.3,719.3,383.5,723.5,383.5z M668.1,187.4c0,4.2,3.5,7.4,7.4,7.4c4.1,0,7.6-3.5,7.5-7.5c0-4.2-3.3-7.5-7.5-7.5
		C671.4,179.8,668.1,183.2,668.1,187.4z M401.3,732.3c4,0,7.5-3.4,7.5-7.5c0-4.2-3.6-7.7-7.7-7.5c-4.1,0.1-7.4,3.5-7.4,7.6
		C393.8,729.2,397.1,732.4,401.3,732.3z M718.3,297.1c-4.3,0-7.5,3.2-7.5,7.4c0,4.2,3.1,7.5,7.3,7.7c4,0,7.5-3.5,7.5-7.5
		C725.7,300.6,722.3,297.1,718.3,297.1z M54.2,531.1c0-4.2-3.4-7.5-7.5-7.5c-3.9,0-7.4,3.4-7.4,7.5c0,4.1,3.5,7.5,7.4,7.5
		C51,538.5,54.2,535.2,54.2,531.1z M252.6,710.5c-0.1,4.2,3.3,7.6,7.4,7.6c4,0.1,7.5-3.5,7.5-7.4c0.1-4.1-3.3-7.5-7.5-7.6
		C255.9,703.1,252.6,706.3,252.6,710.5z M260,30.9c4.2,0,7.5-3.3,7.5-7.5c0.1-4-3.4-7.5-7.5-7.5c-4.1-0.1-7.5,3.4-7.5,7.5
		C252.5,27.6,255.6,30.9,260,30.9z M478.4,710.5c0-4.2-3.3-7.5-7.5-7.5c-4.2,0.2-7.5,3.5-7.5,7.6c0,4,3.5,7.5,7.6,7.4
		C475.1,718.2,478.6,714.7,478.4,710.5z M691.9,226.6c4.1,0,7.5-3.5,7.5-7.5c-0.1-4.1-3.5-7.5-7.6-7.5c-4.1,0-7.4,3.4-7.4,7.5
		C684.4,223.4,687.7,226.7,691.9,226.6z M461.4,715.3c-0.2-4-3.6-7.5-7.5-7.3c-4.2,0-7.6,3.6-7.4,7.6c0.1,4.1,3.5,7.5,7.5,7.4
		C458.1,722.9,461.4,719.5,461.4,715.3z M171.2,663.9c0-4-3.4-7.4-7.5-7.4c-4,0-7.5,3.7-7.5,7.7c0.1,4,3.6,7.4,7.6,7.4
		C168,671.6,171.2,668.2,171.2,663.9z M12.8,297.1c-4.1,0-7.5,3.3-7.4,7.5c0,4.1,3.5,7.6,7.5,7.6c4-0.2,7.3-3.5,7.3-7.6
		C20.3,300.3,17,297.1,12.8,297.1z M269.6,715.5c0,4.2,3.5,7.5,7.6,7.5c4,0,7.5-3.4,7.5-7.5c0-4-3.5-7.4-7.6-7.4
		C273,707.8,269.6,711.4,269.6,715.5z M269.6,18.6c0.2,4.2,3.5,7.5,7.6,7.5c4-0.1,7.5-3.6,7.5-7.6s-3.5-7.5-7.6-7.5
		C272.9,11.1,269.6,14.5,269.6,18.6z M683.9,195.5c-4.2,0-7.4,3.5-7.4,7.6c0.2,4,3.6,7.5,7.7,7.5c3.9-0.2,7.5-3.6,7.4-7.7
		C691.6,198.7,688.2,195.5,683.9,195.5z M337.4,724.9c0-4.2-3.2-7.5-7.4-7.6c-4.1-0.2-7.5,3.4-7.5,7.5c-0.3,4.1,3.1,7.5,7.3,7.5
		C333.9,732.4,337.2,729.2,337.4,724.9z M716,358c-0.1,4.2,3.2,7.5,7.4,7.6c3.9,0.2,7.5-3.4,7.6-7.5c0-4-3.4-7.5-7.4-7.6
		C719.4,350.6,716,353.8,716,358z M47.1,195.5c-4.2-0.1-7.5,3.2-7.7,7.4c-0.1,4,3.3,7.5,7.4,7.7c4.1,0.1,7.5-3.3,7.5-7.4
		C54.4,199,51.2,195.7,47.1,195.5z M478.4,23.4c0-4.2-3.4-7.5-7.5-7.5c-4,0-7.5,3.5-7.5,7.7c0,4,3.5,7.3,7.6,7.3
		C475.3,30.9,478.6,27.6,478.4,23.4z M178.9,681.5c4-0.1,7.4-3.6,7.3-7.7c0-4.1-3.4-7.5-7.5-7.5c-4.1,0-7.5,3.5-7.5,7.6
		C171.3,677.9,174.9,681.5,178.9,681.5z M684.4,515.1c0,4.2,3.5,7.5,7.5,7.5c4.1-0.1,7.5-3.6,7.5-7.7c-0.1-4-3.5-7.5-7.6-7.5
		C687.6,507.6,684.4,510.9,684.4,515.1z M319.7,722.4c-0.2-4.2-3.5-7.4-7.6-7.4c-4,0.1-7.5,3.6-7.5,7.6c0.2,4,3.7,7.6,7.7,7.4
		C316.5,730.1,319.7,726.6,319.7,722.4z M20.3,429.4c0-4.2-3.4-7.5-7.5-7.5c-4,0-7.5,3.5-7.4,7.6c0,4.1,3.4,7.5,7.5,7.4
		C17.2,436.9,20.3,433.6,20.3,429.4z M706.3,498.3c-0.1-4.2-3.5-7.5-7.6-7.4c-4.2,0.1-7.5,3.5-7.4,7.5c0.1,4.2,3.7,7.6,7.6,7.5
		C703,505.8,706.3,502.5,706.3,498.3z M32.5,490.9c-4.2-0.1-7.6,3.1-7.8,7.1c-0.1,4.2,3,7.7,7.2,7.9c4,0.3,7.6-3.1,7.8-7.2
		C40,494.8,36.7,491,32.5,490.9z M7.5,383.5c4.1,0.1,7.4-3.3,7.4-7.4c0-4.2-3.3-7.6-7.4-7.6c-4-0.2-7.5,3.4-7.6,7.5
		C0,380,3.4,383.5,7.5,383.5z M720.8,419.2c4.1,0,7.5-3.4,7.5-7.5c0-4.2-3.5-7.5-7.5-7.5c-4.1,0-7.5,3.3-7.5,7.5
		C713.4,416,716.6,419.2,720.8,419.2z M17.7,411.7c0-4.2-3.4-7.5-7.4-7.5c-4.2,0-7.5,3.4-7.5,7.5c0,4.2,3.4,7.5,7.5,7.5
		C14.4,419.2,17.7,416,17.7,411.7z M15,358.1c0-4.1-3.3-7.5-7.4-7.5c-4.2,0-7.5,3.4-7.6,7.4c0,4.1,3.5,7.6,7.5,7.6
		C11.6,365.6,15,362.3,15,358.1z M418.8,715.1c-4.2,0-7.5,3.3-7.5,7.5s3.5,7.5,7.5,7.6c4,0,7.6-3.5,7.6-7.5
		C426.4,718.5,423,715.1,418.8,715.1z M567.3,671.7c4.1,0,7.5-3.5,7.5-7.5c-0.1-4-3.6-7.6-7.5-7.6c-4.2,0.2-7.5,3.5-7.5,7.7
		C559.8,668.2,563.1,671.7,567.3,671.7z M383.3,0.5c-4.3,0-7.5,3.3-7.5,7.4c0,4.2,3.2,7.5,7.5,7.5c4.1,0,7.5-3.4,7.6-7.5
		C391,3.9,387.5,0.5,383.3,0.5z M347.5,0.5c-4,0.1-7.5,3.6-7.5,7.6c0.3,4.1,3.7,7.5,7.7,7.4c4.3-0.1,7.4-3.5,7.4-7.6
		S351.6,0.5,347.5,0.5z M375.9,726.3c0,4.3,3.5,7.4,7.6,7.4c4.2-0.2,7.5-3.5,7.5-7.6c-0.3-4.2-3.7-7.5-7.7-7.3
		C379,718.8,375.8,722.1,375.9,726.3z M355.1,726.6c0.1-4.3-2.8-7.7-7-7.9c-4.1-0.4-7.7,2.9-7.9,7.1c-0.3,4.1,2.9,7.6,7.1,7.8
		C351.4,733.8,354.9,730.8,355.1,726.6z M675.6,554.3c4.2,0,7.6-3.4,7.5-7.5c0-4.1-3.5-7.5-7.5-7.4c-4.2,0-7.4,3.4-7.4,7.5
		C668.1,551.1,671.4,554.3,675.6,554.3z M62.9,546.8c0-4.1-3.4-7.5-7.5-7.4c-4.1,0-7.5,3.5-7.5,7.5c0,4.1,3.4,7.5,7.5,7.4
		C59.6,554.3,62.9,551,62.9,546.8z M718.2,437c4.1-0.1,7.4-3.5,7.4-7.5c0-4-3.5-7.5-7.5-7.5c-4.2,0-7.3,3.5-7.3,7.6
		C710.7,433.7,714,437,718.2,437z M684.2,538.5c4-0.1,7.5-3.4,7.5-7.5c0-4.1-3.5-7.5-7.6-7.5c-4,0-7.5,3.4-7.5,7.5
		S680,538.5,684.2,538.5z M17.7,322.2c-0.1-4.2-3.4-7.3-7.5-7.3c-4.2,0.1-7.5,3.4-7.5,7.5c0.1,4,3.5,7.5,7.5,7.5
		C14.4,329.9,17.7,326.4,17.7,322.2z M713.3,322.2c0,4.2,3.2,7.5,7.4,7.7c4.1,0.1,7.5-3.3,7.6-7.4c0.2-4.1-3.3-7.5-7.5-7.6
		C716.6,314.8,713.4,318,713.3,322.2z M16.4,439.6c-4.3,0-7.5,3.4-7.4,7.5c0,4.3,3.5,7.5,7.5,7.4c4.2-0.1,7.6-3.5,7.4-7.5
		C23.8,442.9,20.4,439.5,16.4,439.6z M156.7,653.5c0-4.1-3.5-7.5-7.6-7.4c-4,0-7.4,3.7-7.3,7.7c0.2,4.2,3.5,7.3,7.6,7.3
		C153.7,661,156.8,657.8,156.7,653.5z M581.6,661.1c4.3,0,7.5-3.3,7.6-7.3c0-4.1-3.5-7.7-7.5-7.7c-4.1,0-7.5,3.4-7.5,7.5
		C574.3,657.8,577.4,661.1,581.6,661.1z M722,447.1c0-4.3-3.2-7.5-7.4-7.5c-4.2-0.1-7.5,3.4-7.5,7.5c0,4.1,3.4,7.5,7.5,7.5
		C718.6,454.7,722,451.3,722,447.1z M511.9,35.8c0.1-4.4-3.2-7.6-7.4-7.6c-4,0-7.5,3.3-7.5,7.5s3.5,7.6,7.5,7.6
		C508.7,43.3,511.9,40,511.9,35.8z M24.7,235.8c0.1,4.3,3.4,7.4,7.6,7.4c4-0.1,7.4-3.6,7.4-7.7c-0.1-4-3.6-7.4-7.6-7.4
		C28,228.2,24.7,231.6,24.7,235.8z M372.9,7.6c0.1-4.3-3.1-7.5-7.3-7.6s-7.5,3.2-7.5,7.4c-0.1,4.2,3.2,7.5,7.3,7.6
		C369.4,15.1,372.9,11.8,372.9,7.6z M16.4,294.6c4.1,0,7.5-3.3,7.5-7.5c0.2-4.1-3.3-7.5-7.4-7.7c-4-0.1-7.5,3.4-7.5,7.5
		C9,291.2,12.2,294.5,16.4,294.6z M714.6,294.6c4.2-0.1,7.4-3.4,7.4-7.7c0-4.1-3.4-7.5-7.5-7.5c-4.2,0.2-7.5,3.6-7.5,7.7
		C707.2,291.3,710.5,294.6,714.6,294.6z M656.3,569.3c-4.1,0-7.5,3.3-7.5,7.4c0,4.2,3.3,7.7,7.3,7.8c4.1,0.1,7.5-3.3,7.6-7.5
		C663.8,572.9,660.5,569.5,656.3,569.3z M511.9,698.4c0-4.3-3.3-7.5-7.4-7.5c-4,0-7.5,3.5-7.5,7.5c0,4.2,3.5,7.5,7.5,7.5
		C508.7,705.8,512,702.6,511.9,698.4z M46.6,219.1c0-4.1-3.4-7.5-7.5-7.5c-4,0-7.5,3.5-7.5,7.5c0.1,4.1,3.5,7.5,7.6,7.4
		C43.3,226.6,46.6,223.3,46.6,219.1z M156.7,80.5c0-4.1-3.2-7.5-7.3-7.5c-4.2-0.2-7.6,3.1-7.6,7.3c-0.2,4,3.3,7.4,7.4,7.6
		C153.3,88,156.7,84.7,156.7,80.5z M574.3,80.3c0,4.2,3.4,7.6,7.5,7.6c4.1,0,7.5-3.5,7.5-7.5c0-4.1-3.4-7.5-7.5-7.5
		C577.5,72.9,574.3,76.1,574.3,80.3z M603.1,91.5c-0.1-4.2-3.4-7.4-7.5-7.4c-4.1,0-7.5,3.4-7.5,7.5c0,4.1,3.5,7.4,7.5,7.4
		C599.8,99,603.1,95.7,603.1,91.5z M46.6,514.8c-0.1-4.2-3.4-7.5-7.5-7.5c-4.1,0.2-7.5,3.6-7.5,7.7c0.1,4.1,3.5,7.5,7.6,7.5
		C43.3,522.5,46.6,519,46.6,514.8z M603.1,642.5c-0.1-4.2-3.4-7.6-7.5-7.5c-4,0-7.5,3.5-7.5,7.5c0,4.2,3.4,7.4,7.5,7.4
		C599.9,649.9,603.1,646.6,603.1,642.5z M127.8,642.3c-0.1,4.2,3.2,7.5,7.4,7.6c4.2,0,7.5-3.2,7.6-7.3c0.2-4-3.3-7.6-7.3-7.7
		C131.5,634.9,128,638.2,127.8,642.3z M698.6,243.2c4.3,0,7.5-3.2,7.6-7.4c0-4.2-3.3-7.5-7.4-7.7c-4,0-7.6,3.5-7.6,7.4
		C691.2,239.6,694.6,243.2,698.6,243.2z M621.8,625.6c4.2,0,7.5-3.4,7.5-7.5c0-4.1-3.4-7.4-7.5-7.5c-4.1,0-7.5,3.5-7.5,7.5
		C614.3,622.3,617.6,625.6,621.8,625.6z M226.4,705.8c4,0.1,7.5-3.3,7.5-7.5c0-4-3.5-7.5-7.4-7.5c-4.2,0-7.5,3.3-7.5,7.5
		C219,702.5,222.3,705.8,226.4,705.8z M109.1,625.6c4.2,0,7.5-3.3,7.5-7.4c0-4.2-3.4-7.6-7.3-7.6c-4.2,0-7.7,3.4-7.7,7.5
		C101.7,622.2,104.9,625.6,109.1,625.6z M663.7,157.2c0.1-4.2-3.2-7.5-7.4-7.5c-4.1-0.1-7.5,3.4-7.5,7.5c0,4.1,3.3,7.5,7.4,7.5
		C660.4,164.7,663.7,161.4,663.7,157.2z M74.5,164.6c4.2,0.3,7.5-3,7.7-7.2c0.2-4.1-3-7.7-7.2-7.8c-4.1-0.3-7.5,3-7.7,7.2
		C67.1,161,70.3,164.5,74.5,164.6z M645.3,598.7c4.2,0,7.6-3.3,7.7-7.3c0-4.2-3.4-7.6-7.5-7.7c-4.1,0-7.5,3.3-7.6,7.5
		C637.9,595.2,641.1,598.7,645.3,598.7z M75.1,569.3c-4.1-0.2-7.5,3.1-7.8,7.2c-0.2,4.2,2.9,7.6,7.1,8c3.9,0.2,7.5-3.1,7.7-7.3
		C82.5,573.3,79.2,569.7,75.1,569.3z M621.8,108.5c-4.2,0-7.5,3.4-7.5,7.5c0,4.1,3.4,7.4,7.5,7.4c4,0,7.5-3.5,7.5-7.5
		C629.3,111.8,626,108.5,621.8,108.5z M127.8,91.5c0,4.2,3.3,7.5,7.5,7.5c4.1,0,7.5-3.3,7.5-7.4c0-4.1-3.4-7.5-7.5-7.5
		C131.3,84.1,127.8,87.3,127.8,91.5z M219,35.5c-0.2,4.2,3.1,7.7,7.3,7.7c4,0.2,7.5-3.2,7.6-7.3c0.1-4.2-3.2-7.6-7.3-7.8
		C222.4,28.1,219.1,31.3,219,35.5z M301.9,719.5c0-4.2-3.3-7.5-7.5-7.5c-4,0-7.4,3.5-7.4,7.5c0,4.2,3.4,7.5,7.5,7.5
		C298.8,726.9,302,723.6,301.9,719.5z M443.9,719.7c0.1-4.1-3-7.7-7.2-7.8c-4.1-0.1-7.6,3.2-7.6,7.4c-0.1,4.2,3,7.5,7.2,7.6
		C440.4,727.1,443.7,723.9,443.9,719.7z M372.9,726.6c0.1-4.2-3.2-7.5-7.4-7.5c-4.2-0.1-7.5,3.3-7.5,7.5c0,4.2,3.2,7.4,7.4,7.5
		C369.5,734.2,372.9,730.8,372.9,726.6z M616.4,630.6c0-4.1-3.3-7.4-7.5-7.4c-4,0-7.5,3.4-7.5,7.4c0.2,4.3,3.3,7.5,7.5,7.5
		C613.1,638.1,616.4,634.9,616.4,630.6z M28.2,464.5c0.2-4.2-3.1-7.6-7.3-7.6c-4-0.1-7.5,3.3-7.5,7.5c-0.1,4.2,3.2,7.5,7.2,7.5
		C24.9,471.9,28.2,468.7,28.2,464.5z M717.5,464.4c0-4.2-3.4-7.5-7.3-7.5c-4.2,0-7.5,3.4-7.5,7.5c0,4.2,3.1,7.5,7.3,7.5
		C714.3,471.9,717.5,468.6,717.5,464.4z M85.7,598.7c4,0,7.5-3.4,7.5-7.5c-0.2-4-3.5-7.5-7.7-7.5c-4.1,0-7.5,3.5-7.5,7.5
		C78.1,595.3,81.5,598.7,85.7,598.7z M666.2,569.6c4.2,0.1,7.5-3.3,7.5-7.5c0-4.1-3.3-7.5-7.5-7.5c-4.2-0.1-7.4,3.2-7.5,7.4
		C658.8,566.3,662,569.6,666.2,569.6z M294.6,7.1c-4.1,0-7.5,3.3-7.5,7.4c-0.1,4.1,3.3,7.5,7.4,7.7c4,0,7.5-3.5,7.5-7.4
		C302,10.5,298.8,7.1,294.6,7.1z M429.1,14.5c-0.1,4.2,3.1,7.5,7.3,7.8c4.1,0.1,7.5-3.5,7.5-7.4c0.1-4.2-3-7.6-7.4-7.7
		C432.5,7,429.1,10.3,429.1,14.5z M712.4,481.6c0-4.1-3.4-7.5-7.5-7.5c-4.1,0-7.5,3.3-7.5,7.5c0,4.3,3.2,7.5,7.4,7.5
		C709,489,712.3,485.8,712.4,481.6z M26,489c4.3,0,7.5-3.2,7.5-7.4c0-4.2-3.3-7.5-7.4-7.5c-4.1-0.1-7.5,3.3-7.5,7.5
		C18.6,485.7,21.8,488.9,26,489z M26,245.1c-4.2,0.1-7.4,3.4-7.4,7.6c0.1,4.1,3.5,7.5,7.5,7.4c4.2,0,7.4-3.5,7.4-7.5
		C33.4,248.3,30.2,245.1,26,245.1z M697.5,252.3c-0.1,4.3,3.2,7.7,7.3,7.7c4.2,0.1,7.5-3.2,7.6-7.4c0-4.2-3.3-7.5-7.4-7.6
		C700.7,245.1,697.6,248.1,697.5,252.3z M85.4,150.3c4.2,0,7.5-3.3,7.7-7.3c0-4.2-3.3-7.6-7.5-7.6c-4.2-0.1-7.6,3.3-7.7,7.4
		C78,146.9,81.3,150.3,85.4,150.3z M730,394c0-4.2-3.3-7.5-7.4-7.6c-4.2,0-7.5,3.4-7.5,7.5c0,4.2,3.3,7.5,7.4,7.5
		C726.7,401.4,729.9,398.2,730,394z M116.7,115.9c0-4.1-3.4-7.5-7.5-7.5c-4.1,0.1-7.5,3.4-7.5,7.5c0,3.9,3.5,7.4,7.5,7.4
		C113.3,123.5,116.7,119.9,116.7,115.9z M8.4,401.3c4.1,0.1,7.5-3.2,7.5-7.4c0-4.2-3.3-7.5-7.4-7.6c-4.2,0-7.5,3.4-7.5,7.5
		C1,398.2,4.2,401.3,8.4,401.3z M15.9,340.2c0-4.2-3.3-7.4-7.5-7.4c-4.2-0.2-7.5,3.1-7.5,7.4c0,4.2,3.3,7.5,7.5,7.5
		C12.5,347.7,15.9,344.4,15.9,340.2z M715.1,340.3c0,4.2,3.4,7.5,7.5,7.5c4.1-0.1,7.4-3.5,7.4-7.7c-0.1-4.2-3.3-7.5-7.5-7.3
		C718.3,332.8,715.1,336,715.1,340.3z M601.7,103.4c-0.2,4.2,3.1,7.6,7.2,7.6c4.2,0,7.5-3.3,7.5-7.4c0.2-4.2-3.1-7.5-7.3-7.5
		C605,96,601.7,99.2,601.7,103.4z M717.5,269.6c0-4-3.3-7.4-7.5-7.3c-4.2,0-7.3,3.3-7.3,7.5c0,4.2,3.3,7.5,7.5,7.5
		C714.3,277.2,717.5,273.8,717.5,269.6z M72.2,562.1c-0.1-4.2-3.4-7.5-7.7-7.4c-4,0-7.3,3.4-7.3,7.5c0.1,4.2,3.5,7.4,7.6,7.4
		C69,569.6,72.2,566.3,72.2,562.1z M129.5,630.6c-0.2-4.2-3.5-7.4-7.6-7.4c-4,0-7.3,3.4-7.3,7.5s3.3,7.5,7.5,7.5
		C126.2,638.1,129.5,634.9,129.5,630.6z M20.7,262.3c-4.1,0-7.3,3.3-7.3,7.5c0,4.2,3.4,7.5,7.5,7.5c4-0.1,7.3-3.5,7.3-7.7
		C28.2,265.4,25.1,262.1,20.7,262.3z M121.8,96c-4.1,0-7.2,3.4-7.2,7.5c0,4.2,3.4,7.4,7.5,7.4c4.2,0,7.5-3.5,7.3-7.6
		C129.3,99.2,126,96,121.8,96z M72.2,172.1c0-4.3-3.2-7.5-7.4-7.5c-4.2-0.1-7.5,3-7.6,7.2c-0.2,4.2,3.3,7.6,7.3,7.7
		C68.7,179.5,72.1,176.3,72.2,172.1z M666.2,164.5c-4.3,0-7.5,3.3-7.5,7.5c0.1,4.2,3.4,7.5,7.5,7.5c4.2,0,7.5-3.4,7.5-7.5
		C673.7,167.8,670.4,164.5,666.2,164.5z M194.3,690.3c4.2,0,7.5-3.3,7.5-7.4c0-4.2-3.4-7.5-7.4-7.5c-4.2,0-7.5,3.2-7.5,7.5
		C186.8,687,190.1,690.3,194.3,690.3z M97,597.5c-4.1,0-7.4,3.4-7.4,7.4c0,4.3,3.3,7.5,7.5,7.5c4.2-0.1,7.4-3.4,7.4-7.5
		C104.5,600.8,101.2,597.5,97,597.5z M194.4,43.8c-4.2-0.1-7.5,3.3-7.5,7.5c0,4.2,3.3,7.4,7.5,7.4c4.2,0,7.5-3.3,7.5-7.4
		C201.8,47.2,198.4,43.8,194.4,43.8z M544.1,682.9c0.1-4.3-3-7.4-7.2-7.5c-4.2,0-7.6,3.2-7.7,7.4c0,4,3.3,7.5,7.4,7.5
		C540.8,690.3,544.1,687.2,544.1,682.9z M641.4,605.1c0-4.2-3.2-7.5-7.4-7.5c-4.3,0-7.5,3.3-7.5,7.4c0,4.2,3.3,7.5,7.5,7.5
		C638.1,612.5,641.4,609.2,641.4,605.1z M104.5,129.1c0-4.2-3.3-7.5-7.5-7.5c-4.1,0.1-7.3,3.2-7.4,7.4c0,4.2,3.2,7.5,7.4,7.5
		C101.2,136.7,104.5,133.4,104.5,129.1z M544.1,51.3c0-4.2-3.2-7.5-7.4-7.5c-4.2-0.1-7.5,3.3-7.5,7.5c0,4.1,3.3,7.4,7.5,7.4
		S544.1,55.5,544.1,51.3z M634,121.7c-4.3,0.1-7.5,3.4-7.5,7.5c0.1,4.1,3.3,7.4,7.4,7.4c4.2,0.1,7.5-3.2,7.5-7.4
		C641.4,124.9,638.2,121.7,634,121.7z"/>
	<path class="st1" d="M496.4,656.8c-3.5,0.9-7,1.8-10.5,2.8c-0.2,1.7-0.2,3.3-0.5,5c-1.1,7.5-4.9,13.5-12.2,16.2
		c-8.6,3.2-17.6,5.5-26.6,7.9c-14.5,3.7-29.3,7.4-43.9,10.6c-18.1,3.8-36.6,5.1-54.4,0.5c-21.9-5.3-43.9-7.2-66.2-7.9
		c-5.7-0.1-11.7-1.1-17.4-2.6c-12.2-3.7-18.7-12.5-19.4-25.4c-0.1-2.4-1-3.7-3.5-4c-0.6-0.2-1.3-0.3-1.8-0.5
		c-3.9-1.6-6.5-1.3-9.5,2.4c-4,5.3-10.4,5.5-17.4,1.5c-7.8-4.4-15.4-8.9-22.9-13.6c-20.3-12.7-39.5-26.7-56.6-43.7
		c-6.8-6.8-12.3-15-17-23.7c-3.2-5.6-7.3-10.9-11.5-16c-22.4-26.5-38.1-56.8-50.2-89.2C49,461.1,42.5,445.3,41,428.1
		c-1.4-13.1-2.5-26.2-3.3-39.3c-1-17.2-2.3-34.2-2.3-51.3c0.1-19.7,5-38.4,14.8-55.7c1.4-2.4,2.1-5.5,2.5-8.4
		c1.7-14.2,6.7-27.6,11.6-40.9c8.2-22.2,21.8-41,33.9-60.9c5.4-8.8,12.8-15.8,20.3-22.7c13.4-12.3,26.7-24.8,40.1-37
		c14.4-13.2,31.4-22.7,48.4-31.8c19.8-10.5,39.7-20.3,61.1-27c6.8-2.1,14.1-2.1,21-3.5c11.1-2.2,22-4.8,32.9-7.5
		c24.9-6.4,49.6-6.1,74.7-0.2c26.1,6.1,52.3,11.9,78.6,17.8c14.6,3.4,27.8,10.1,39.8,19.3c12.3,9.5,25.6,17.5,39.2,25.1
		c16.6,9.3,32.5,19.5,45.8,33.4c7.7,8.3,14.2,17.4,18.1,28.1c2.9,7.9,7.4,14.8,14.1,20.1c13.7,10.8,20.8,26.2,26.8,42
		c6.2,16.3,11.8,32.8,17.5,49.2c4.2,11.4,8.5,22.7,12,34.3c1.7,5.8,2.3,12,2.4,18c0.3,21.9,0.3,43.9,0.3,65.8
		c0,11.1-1.9,21.5-5.6,32c-7.6,21.2-13.5,42.9-17,65.1c-2.4,16.1-9.8,30.1-19.3,42.9c-4,5.5-8.7,10.4-12.8,15.8
		c-3,3.7-6.1,7.6-8.3,11.7c-9.3,17.4-20,33.8-35.3,46.3c-11.7,9.8-24.4,18.3-36.8,27.5c-10.6,8.1-21.4,16.4-31.9,24.7
		c-1.6,1.1-3.2,2.5-4.8,3.5c-7.5,5-14.6,3.7-20.2-3.4C498.3,659.8,497.5,658.3,496.4,656.8z M365.4,87.2c3.4,6.6,6.2,12.6,9.4,18.6
		c0.5,1.2,1.9,2.4,3.2,2.6c12.4,2.8,24.9,4.7,37.1,8.1c33.3,9.4,66.2,19.9,93.2,43.2c4.8,4.2,11.4,5.9,17.1,9
		c13.4,7.2,23.6,17.7,32.2,30c11.2,15.8,22,31.7,33,47.7c7.7,11.4,13.2,23.9,16.7,37.2c6.8,27.3,10.1,54.9,10.4,82.9
		c0.4,27.2-2.7,54-10.7,79.9c-6.9,22.6-17.7,43.2-28.9,63.7c-8.3,15-17,29.8-28.4,42.7c-3.3,3.7-7.4,6.7-11.3,9.8
		c-4.1,3-8.7,5.2-12.5,8.4c-7,5.9-13.6,12.4-20.5,18.8c-6.1,5.3-12.9,9.2-21.3,9.4c-1.6,0-3.3,0.5-4.7,0.9c-5.1,1.4-5.5,2.6-2.5,6.8
		c2.4,3.2,5.1,6.3,7.5,9.4c6,7.5,10.5,15.7,11.4,25.5c0.5,5.7,2.2,11.4,5.7,16.3c4.6,6.6,10.4,7.6,16.8,2.7c4.2-3.1,8-6.8,12.2-9.9
		c13.8-10.1,27.5-20.4,41.4-30.3c18.2-12.6,34.2-27.2,45.2-46.4c7.5-13.2,15.7-25.2,25.5-36.6c10.9-12.6,19.2-27.2,22-43.9
		c4-25,10.9-49,18.9-72.8c2.1-5.9,3.3-12.2,3.5-18.3c0.5-25.1,0.5-50.2,0.1-75.2c-0.1-6.6-1.1-13.4-3.1-19.7
		c-3-10.1-7.1-19.9-10.7-29.7c-6.7-18.6-13.3-37.1-20.3-55.5c-5.4-13.9-12.9-26.2-24.7-35.5c-6.4-5.1-10.4-11.9-13.4-19.5
		c-3.9-10.6-10.3-19.6-17.9-27.8c-10.6-11-23.1-19.9-36.3-27.5c-18.3-10.4-36.3-21.1-53.1-33.8c-9.4-7.3-20.1-11.7-31.6-14.4
		c-22.5-5.5-45.2-10.7-67.7-15.7c-12-2.7-24.1-4.8-36.2-6.5c-17.7-2.6-35.1,0.8-52.2,4.7c-11.4,2.6-22.8,5.1-34.2,7.4
		c-5.3,1.1-10.9,1.1-16.2,2.7c-24.7,8-48,19.6-70.5,32.2c-13,7.2-25.6,14.8-36.7,24.7c-14,12.7-27.7,25.9-41.7,38.6
		c-9.3,8.2-17.3,17.4-23.6,28.1c-5,8.6-10.2,17.2-15.4,25.6c-12.4,20-19.9,41.9-24.7,64.8c-0.8,3.6-0.8,7.9-2.6,10.9
		c-13.4,23.4-16.8,48.8-15.2,75.1c0.7,15.1,2,30.1,2.8,45.1c1.5,25.2,6.1,49.3,15.5,73.1c12.6,31.8,27.2,62.3,49.4,88.6
		c4.5,5.3,9.2,10.8,12.4,17c7.3,14,17.5,25.3,29.4,35.3c20.5,17.2,42.4,31.7,65.5,44.8c7.4,4.2,13.3,2.9,16.7-5
		c3-6.5,5-13.5,6.5-20.5c1.5-7.3,4.5-13.7,9.7-19.1c1.4-1.3,2.7-2.9,3.8-4.4c2.3-3.2,2.2-5.4-0.8-7.8c-2.5-2.1-5.2-4.1-8.1-5.4
		c-11.1-5.3-20.5-12.4-29.3-20.8c-3.8-3.6-7.8-6.9-11.8-9.8c-14.2-10.2-26.9-21.7-37.3-35.5c-14.1-18.8-26.3-39-36.2-60.3
		c-3.4-7.2-5.5-15.4-6.2-23.3c-1-10.9-3.5-21.4-6.1-31.9c-3.9-14.4-7.2-28.8-7.6-43.7c-0.5-21.9,1.4-43.4,6.1-64.8
		c3.5-14.9,7.8-29.7,17.9-41.6c6.6-8,11.5-16.7,15-26.4c3.6-10,7.5-20.1,14.4-28.2c15-17.6,30.9-34.2,49.3-48.3
		c21.6-16.5,46.3-27.6,71.3-37.9c23-9.5,46.8-16.1,72-17.5c1,0,2.4-1.4,3-2.4C359.5,99.6,362.3,93.7,365.4,87.2z M537.5,209.3
		c0,10.4,0.1,20.2-0.1,29.9c0,2.7,0.9,4.1,3,5.5c20,12.2,40,24.4,60,36.7c0.7,0.5,1.5,1.1,2.4,1.6c-0.7,1.1-1.3,1.9-1.9,2.8
		c-21-12.9-42-25.7-63.3-38.8c0,10.7,0,20.9-0.1,30.9c0,2.2,0.5,3.5,2.4,5c19.5,16.1,38.9,32.3,58.4,48.4c4.7,3.9,9.6,7.7,14.9,12.2
		c-0.1-1.9-0.1-3.3-0.2-4.5c-2-13.3-3.5-26.7-5.9-40c-3.3-18.6-9.2-36.2-20.2-51.8c-6.8-9.4-13.4-19.1-19.9-28.5
		c-5.1-7.4-9.9-14.8-15.4-21.8c-9.4-12.4-20.7-22.3-35.4-28.4c-5.5-2.4-10.8-5.8-15.4-9.8c-10.8-9.5-23.4-15.9-36.6-21.5
		c-20.1-8.8-40.9-15.2-62.2-20.3c-7.8-1.8-15.5-3.1-24.3-4.8c1.4,2.7,2.5,4.5,3.1,6.3c0.7,2.4,2.4,3.2,4.6,3.5
		c5.4,0.6,10.8,1.5,16.2,2.2c5.8,0.9,11.5,1.8,17.3,2.7c0.3,0.3,0.4,0.6,0.5,0.9c-0.9,0.5-1.7,1.2-2.5,1.9
		c-7.5,7.3-14.9,14.6-22.4,21.8c-1.3,1.3-1.7,2.4-1.4,4.3c1.2,6.4,2.3,12.5,3.3,18.9c0.9,5.1,1.6,10.2,2.5,15.9
		c-10.7-5.7-20.7-11-30.8-16.3c-1.6-0.9-3.2-0.9-4.8,0c-7,3.8-14.1,7.5-21.3,11.3c-2.9,1.5-6.1,3.2-9.4,5c0.2-2,0.4-3.2,0.5-4.5
		c1.7-10,3.3-20.1,5.2-30.2c0.4-1.9-0.1-3-1.5-4.3c-7.5-7.2-14.8-14.5-22.4-21.8c-0.7-0.7-2-1.1-3-1.6c0.3-0.4,0.6-0.7,1-1.2
		c1.3-0.2,2.5-0.5,3.8-0.6c10.2-1.5,20.3-2.9,30.5-4.5c0.8-0.1,2.1-0.5,2.5-1.1c1.5-2.7,2.9-5.5,4.3-8.6
		c-20.5-0.7-82.7,17.7-96,28.7c18.2-0.5,36.3-1,54.2-1.6c0,1.5,0,2.5,0,3.6c-13.2,0.4-26.2,0.8-39.2,1.3c-6.2,0.1-12.4,0.4-18.7,0.5
		c-1.6,0-3.7-0.5-5.2,0c-20.1,9.6-38.3,22-54.4,37.4c-0.4,0.4-0.6,0.9-1.5,2c42.3-12.7,84-25.1,125.8-37.6c0.4,1.5,0.6,2.4,0.9,3.4
		c-1.2,0.5-1.9,0.7-2.7,0.9c-42.8,12.8-85.4,25.5-128.2,38.4c-0.9,0.2-2.2,0.5-2.7,1.3c-14.9,14.8-29.4,29.6-35.8,50.5
		c-3.1,10.4-8.7,19.6-15.6,28.2c-4.2,5.1-7.5,11.2-10.1,17.3c-6.8,16.2-9.5,33.2-11.6,50.5c-2.9,25.1-2.1,50,4.6,74.4
		c3.2,11.5,6.8,22.7,7.1,34.8c0.4,10.4,3.5,20.3,8.6,29.4c6.6,12.2,14.2,24.2,21.1,36.3c8.2,14.4,18.7,26.7,30.7,38.1
		c4.8,4.4,9.9,8.4,15.2,12.9c1.6-4.3,3.3-8.1,4.5-11.8c0.3-0.6,0.2-1.7-0.2-2.2c-4.3-5.2-5.3-11.4-5.5-17.9
		c-0.1-2.9-0.4-6.1-4.8-5.3c-0.7-5-1.5-5.7-6.4-5.5c-0.5,0-0.9,0.1-1.4,0c-3.4-0.2-7,0.1-10.4-0.4c-9.4-1.4-15.9-6.5-17.3-14.4
		c-0.7-3.7-0.5-7.9,0-11.7c0.9-7.5,5.1-13.5,10.6-18.4c1.2-1.3,2.9-2.7,3.3-4.4c0.7-4.3,1.4-8.6,1.5-12.9c0.3-10,3.2-14.2,12.5-17.3
		c1.5-0.5,2.9-1.1,4.4-1.3c2.3-0.3,2.8-1.3,2.8-3.5c-0.1-9.9-0.1-19.7-0.1-29.6c0-0.8-0.1-1.6-0.4-2.9c-16.9,24.5-33.3,48.6-50,72.8
		c-1-0.7-1.9-1.4-2.9-1.9c0.8-1.3,1.5-2.3,2.1-3.3c16.5-24,33-47.9,49.3-72c1-1.5,1.8-3.8,1.8-5.6c0.1-16.5,0-33.2,0-49.8
		c0-1,0-2.1,0-4c-22.5,25.6-44.6,50.5-66.7,75.8c-1-1-1.8-1.6-2.6-2.4c1.1-1.2,1.7-1.9,2.3-2.6c21.6-24.6,43.2-49.2,64.8-73.6
		c1.7-1.8,2.4-3.6,2.4-6.1c-0.1-11.5-0.1-22.9-0.1-34.4c0-1.1-0.1-2-0.1-3.6c-26.1,23.7-51.6,47.1-77.4,70.6
		c-0.8-1.2-1.5-1.9-2.2-2.7c1.2-1.2,1.9-1.9,2.8-2.7c24.9-22.7,49.7-45.3,74.6-68.1c1.7-1.5,2.4-3.1,2.4-5.5
		c-0.1-10.9-0.1-21.9-0.1-32.8c0-1-0.1-2.1-0.1-3.6c-19,12.9-37.4,25.5-56.1,38.2c-0.7-1-1.2-1.9-1.8-2.9c1.1-0.8,2.1-1.6,3-2.3
		c17.5-11.9,35-23.8,52.4-35.7c2-1.4,2.6-2.8,2.6-5c-0.1-11.5-0.1-23.1-0.1-34.7c0-1.1,0-2.3,0-3.5c1.8,0,2.9,0,4.2,0
		c18,0,35.9,0,53.9-0.2c1.6,0,3.5-0.6,5.1-1.5c16.9-11.4,33.7-22.9,50.4-34.4c6-4.1,11.9-8,18.1-12.2c0.6,1.1,1.1,2,1.7,3.1
		c-21.9,15-43.5,29.8-65.3,44.5c8,0.7,15.7,0.7,23.4,0.5c1.6,0,3.5-0.7,4.6-1.8c10.2-9.1,20.3-18.4,30.4-27.6
		c2.8-2.5,5.6-5.1,8.6-7.8c0.9,1.2,1.5,2,2.3,2.9c-12.5,11.4-25,22.6-37.9,34.5c5.4,0,9.7-0.2,14.1,0c2.1,0.1,3.5-0.7,5-2.3
		c5.4-6.4,10.7-12.4,16.3-18.7c1.2,0.8,1.9,1.5,2.8,2.2c-5.5,6.4-10.7,12.3-16.4,18.8c4,0,7.1,0.1,10.4-0.2c1.1-0.1,2.5-0.9,3.4-1.9
		c2.4-3,4.4-6.3,6.7-9.8c1.2,0.8,2.1,1.5,3,2.2c-2.3,3.2-4.4,6.2-6.7,9.8c6,0,11.1,0,16.4,0c1.2-3.7,2.3-7.4,3.5-11.5
		c1.1,0.5,2.1,0.9,3.3,1.3c-0.8,2.9-1.6,5.7-2.4,8.4c-1.2,3.9-0.7,4.6,3.7,6.1c1.4-7,2.8-13.9,4.3-21c1.4,0.4,2.3,0.5,3.4,0.9
		c-1.5,7.4-2.9,14.5-4.3,21.8c-0.3,0.9-0.3,2.3,0.4,3c1.6,2.6,3.7,4.9,5.7,7.6c2.7-3.5,5.4-6.4,7.8-9.7c0.6-1,1.2-2.7,0.9-4
		c-1.5-6.2-3.2-12.3-5-18.6c1.3-0.5,2.3-0.6,3.4-1.1c1.8,6.6,3.6,13,5.2,18.7c4.5-0.9,8.6-1.8,12.6-2.7c-1.5-4.2-3.3-8.5-5-13.1
		c1.3-0.5,2.2-0.8,3.4-1.1c2,5.2,4.1,9.9,5.8,14.6c5.8,0,11.2,0,17.1,0c-4.1-4.6-7.7-8.6-11.6-13.1c1-0.8,1.8-1.5,2.7-2.3
		c4.3,4.7,8.3,9.2,12.3,13.5c0.8,0.8,1.7,1.9,2.6,1.9c5.8,0.2,11.6,0,18.3,0c-9.9-8.2-19.2-15.9-28.5-23.6c0.8-1.1,1.5-1.8,2.3-2.7
		c10,8.4,20,16.5,30,24.8c0.7,0.6,1.6,1.5,1.6,1.5c7.5,0.2,14.3,0,21.2,0c0,0,0-0.3,0-0.5c-18.3-11.3-36.5-22.5-55.1-33.8
		c0.9-1.2,1.5-2,2.2-2.9c1,0.6,1.7,1.1,2.5,1.6c18.7,11.4,37.3,22.9,56.1,34.3c1.4,0.7,3.2,1.3,4.8,1.3c13.8,0.2,27.8,0.2,41.7,0
		c0.7,0,1.5-0.1,3.2-0.3c-37.3-15.2-73.6-29.8-110-44.7c0.5-1.3,0.9-2.2,1.4-3.2c1.2,0.5,2.3,0.8,3.3,1.1
		c35.5,14.6,71.1,28.9,106.7,43.3c5.4,2.4,10.8,4.6,16.9,3.9c0.5-0.2,0.8,0.2,1.1,0.3c0.4,3.5,0.4,3.5,3.5,4.8
		c6.2,2.4,12.3,4.9,18.7,7.5c-0.5,1.2-0.9,2.1-1.4,3.3C551.2,214.8,544.5,212.2,537.5,209.3z M363.7,287.9c-0.2-1.8,0.2-3.9-0.7-5.2
		c-3.1-4.2-6.3-8.2-9.8-12c-3-3.3-6.8-4.6-11.4-4.6c-15.8,0.1-31.4,0.1-47.3,0.1c-1.2,0-2.3,0-3.5,0c0-1.4,0-2.5,0-3.6
		c1.4,0,2.6,0,3.8,0c15.4,0,30.8,0.2,46.2-0.1c6.8-0.1,12,2.4,16.4,7.1c2,2.3,3.8,4.6,5.7,6.9c0.5-1.9,0.6-3.9-0.3-5.3
		c-2.5-3.9-5.4-7.5-8.4-10.8c-3.5-4.1-7.9-5.9-13.4-5.7c-5.9,0.2-11.9,0-18.2,0c0-1.4,0-2.4,0-3.7c6.3,0,12.3,0.3,18.2,0
		c6.5-0.3,11.8,2.2,16.1,6.9c2.1,2.3,4,4.7,6.1,7.1c0.5-1.7,0.8-3.9-0.1-5.3c-3.1-4.1-6.3-8.1-9.7-12c-3.1-3.3-6.9-4.8-11.5-4.5
		c-2.7,0.1-5.5,0-8.3,0c-0.1-0.8-0.2-1.3-0.1-1.8c0-0.6,0.1-1.1,0.1-1.1c13.4-3.1,22.8,2.4,30,13.4c0.1-2,0.3-4.1-0.6-5.5
		c-2.5-3.7-5.3-7.2-8.2-10.5c-3.5-4.2-8.2-6.4-13.7-6c-4.4,0.3-8.9,0.1-13.4,0.1c-4,0-7.9,0-11.9,0c0-1.5,0-2.4,0-3.7
		c8.2,0,16.1,0.4,23.8,0c8.6-0.5,14.8,3.1,19.9,9.4c1.3,1.6,2.5,3.2,3.7,4.7c0.5-1.9,0.8-4,0-5.3c-3.3-4.4-6.9-8.7-10.7-12.7
		c-2.7-3-6.4-4.1-10.5-4c-3.5,0.1-7.4,0-11-0.1c-0.4,0-0.7-0.1-1.2-0.4c0.1-0.9,0.3-1.9,0.3-2.4c14-2.5,25.7,0.1,33.5,13.5
		c0.1-3.5,0.6-6.9-0.7-9.5c-1.9-3.6-5.1-6.8-7.8-10c-3.5-4.2-8-6-13.6-6c-32.5,0.1-65,0.1-97.5,0.1c-1,0-2.3,0.2-3.5,0.3
		c0,76.4,0,152.5,0,229.4c10.6,0,21,0,31.9,0c-0.2,1.5-0.2,2.6-0.3,4.1c-6.5,0-12.5,0-19.2,0c2.5,2.1,4.5,4,6.6,5.6
		c1.5,0.9,3.5,1.9,5.2,2c4.8,0.3,9.6,0,14.4,0c0,1.4,0,2.3,0,3.6c-4.4,0-8.9,0-13.5,0c3.9,5.7,8.3,9.5,15.5,7.6
		c0,1.7-0.2,2.6-0.2,3.5c-1.1,0.4-1.9,0.5-3.5,0.8c6.4,3.8,11.6,7.9,19.3,7.5c14.5-0.5,29.1,0.2,43.7-0.3c8-0.2,13.8,3.1,18.7,8.9
		c1.4,1.7,2.8,3.5,4.4,5.5c1-8.5-10.5-20.5-21.2-22.5c-0.1-0.4-0.3-1-0.3-1.5c0-0.4,0.2-1.1,0.3-1.7c10.4-0.3,15.5,7.4,21.5,13.9
		c-0.1-2.2-0.1-4.5-1.3-5.9c-5.6-7.6-10.4-16.9-22.1-16c0-1.4,0-2.3,0-3.3c11.4-1.6,16.9,6.6,23.4,14.5c-0.2-2.6,0.4-4.5-0.5-5.5
		c-3.3-4.5-6.7-8.8-10.4-13c-5.5-6.1-13-3.5-20-4.4c0.1-1.4,0.2-2.3,0.4-3c13.4-2.7,23.1,2.5,30,13.8c0.4-1.9,0.9-3.8,0.3-4.8
		c-3.5-4.5-6.9-9.1-10.7-13.3c-4.2-4.7-10.2-4.2-16.1-4.2c0-0.9-0.1-1.4-0.1-1.9c0-0.5,0.1-0.9,0.1-1.1c12.6-2.8,20,4.5,26.8,13.5
		c0.1-1.8,0.5-4-0.4-5.1c-3.6-4.8-7.4-9.6-11.7-13.6c-2.1-1.9-5.5-2.6-8.4-3.1c-3.2-0.5-6.4-0.1-10-0.1c0-1.8-1-3.5,1.6-3.7
		c10-0.9,18.9,1,25.2,10.1c1,1.3,2.3,2.6,3.7,4.5c0.7-7.5-4.6-11-8-15.4c-3.7-5.1-8.9-7.6-15.5-7.1c0-1.3,0-1.9,0-2.7
		c0.2-0.1,0.3-0.4,0.5-0.6c11.1-1.3,16.7,6.5,23,13.9c0.1-2,0.4-4.1-0.5-5.4c-3.1-4.2-6.3-8.3-9.8-11.9c-3-3.5-6.8-4.9-11.4-4.7
		c-5.2,0.2-10.5,0-16,0c0.1-1.3,0.1-2.4,0.2-3.5c4.9,0,9.4,0.3,13.9,0c8.3-0.5,14.4,2.8,19.3,9c1.3,1.7,2.6,3.3,4,5
		c0.5-2.1,0.6-4.1-0.3-5.5c-2.5-3.7-5.4-7.2-8.2-10.6c-3.6-4-8.2-5.9-13.7-5.9c-13.3,0.2-26.6,0.1-40.1,0.1c-1.1,0-2.4,0-3.5,0
		c0-1.4,0-2.4,0-3.4c0.5-0.2,1-0.3,1-0.3c15.4,0,30.3-0.1,45.3,0.1c3,0.2,6.5,1.4,9.1,3.2c3.3,2.4,5.8,5.8,8.7,8.8
		c0.6,0.6,1.2,1.3,2,2.2c1.3-6.3-3.5-9.2-6-13c-4.9-7.1-11.7-10.6-20.7-9.1c0-1.5,0-2.4,0-3.3c12.6-2.8,20,4.7,26.8,13.5
		c0-2.1,0.1-4.1-0.8-5.6c-2.1-3.3-4.6-6.3-7.2-9.4c-4-4.7-8.7-7-15.2-7c-30.1,0.4-60.2,0.1-90.1,0.3c-3,0-4.1-0.8-2.7-3.7
		c1.1,0,2.3,0,3.3,0c30.2,0,60.2,0,90.1-0.1c6.4,0,11.6,2.1,15.8,6.7c2.3,2.3,4.3,4.8,6.4,7.3c0.5-1.8,0.8-4-0.1-5.3
		c-3-4.2-6.2-8-9.5-11.7c-3.2-3.5-7.4-5.2-12.2-4.8c-2.6,0-5.3,0-8.1,0c0-1.4,0-2.4,0-3.1c13.4-2.9,23,2.3,30.1,13.5
		c0.3-2,0.6-4.1-0.2-5.2c-6.1-7.8-10.5-17.7-22.8-16.8c0-1.4,0-2.4,0-3.5c11.3-1.1,17.1,6.6,23.3,13.9c0-2.1,0.1-4.2-0.9-5.6
		c-1.9-3.3-4.5-6.2-7-9.1c-4-4.9-8.8-7.4-15.4-7.3c-15.1,0.3-30.3,0.1-45.6,0.1c-15,0-30.2,0-45.2,0c-0.8,0-1.5-0.2-2.5-0.3
		c0.1-1.2,0.2-2.1,0.2-3.2c1.6,0,2.8,0,4.2,0c29.3,0,58.8,0.2,88.2-0.1c8.4-0.2,14.6,2.9,19.5,9.2c1.4,1.6,2.7,3.3,4.4,5.3
		c0.7-8.7-10-19.8-21.6-22.8c0-1,0.2-2.1,0.3-3.2c10.4-0.1,15.5,7.4,21.4,14.5c0-2.3,0.5-4.1-0.1-5.1c-3.5-4.6-6.9-9-10.7-13.3
		c-4.4-4.6-10.3-4.2-16.1-4.2c0-1.3,0-2.2,0-3c12.6-2.8,20,4.5,26.8,13.5c0.1-1.9,0.5-3.9-0.4-5.2c-3.6-4.7-7.4-9.5-11.7-13.5
		c-2.1-1.9-5.5-2.7-8.4-3.1c-3.2-0.5-6.4,0-10,0c0-1.8-1-3.5,1.6-3.8c10-1,18.9,1.1,25.2,10c1,1.5,2.3,2.8,3.8,4.8
		c0.5-7.6-4.7-11.2-8.1-15.6c-3.7-5-8.9-7.6-15.5-7.2c0-1.1,0-1.9,0-2.5c0.2-0.3,0.3-0.4,0.5-0.7
		C351.5,272.9,357.2,280.8,363.7,287.9z M366.7,275c0.5,0.3,0.8,0.4,1.2,0.5c5.8-7.2,11.5-14.3,22.3-12.7c0,1.1,0,2.1,0,3.2
		c-11.8,0.9-24.3,12.7-22.4,21.2c1.5-1.9,2.9-3.7,4.5-5.4c3.4-3.6,7.1-7.2,12.3-7.5c6.6-0.5,13.4-0.3,20-0.3c0,1.3,0,2.4,0,3.5
		c-5.5,0-10.7,0.1-16,0c-4.5-0.2-8.4,1.2-11.5,4.4c-3,3.2-5.8,6.5-8.4,10.3c-1.1,1.6-1.3,3.8-1.8,5.9c0.4,0.1,0.7,0.2,1.1,0.4
		c5.6-7.4,11.4-14.3,22.4-12.9c-0.2,1.3-0.2,2.3-0.3,3.5c-6.5-0.9-11.3,1.7-15.3,6.4c-8.1,9.8-8.5,10.1-7.2,14.3
		c13.5-13.4,17.7-15,33.5-12.4c-0.1,0.9-0.3,1.9-0.3,3.1c-1.6,0-3,0.1-4.3-0.1c-12.7-2.1-21.4,3.6-27.7,14.2
		c-0.2,0.3-0.4,0.4-0.4,0.5c-0.5,2.1-1.2,4.1-1.7,6c0,0,0.5,0.2,0.9,0.3c8.4-11.1,14.8-14,22.6-12.5c-0.2,1-0.2,2-0.3,3.4
		c-6.4-1-11.3,1.7-15.1,6.4c-8.4,10-8.6,10.2-7.4,13.8c3.6-3.3,7.1-7.1,11.2-10.1c4.4-3.3,9.9-2.4,15.4-2.1
		c-0.2,1.3-0.3,2.2-0.4,3.5c-6.5-0.6-12.9-0.5-17.4,4.9c-4,4.6-9.5,8.4-8.8,15.9c6.4-9.1,14.2-15.2,26.2-12.6
		c0.9,2.5-0.1,3.5-2.6,3.3c-8.1-1.1-13.7,2.8-18.4,8.9c-1.4,2-3.1,3.6-4.1,5.6c-1,1.8-1.3,4-1.8,6c0,0,0.7,0.3,1.1,0.3
		c1.1-1.5,2.2-2.8,3.5-4.3c4.7-5.6,10.5-9.3,18.3-8.7c6.7,0.4,13.4,0.1,20.2,0.1c4,0,8.2,0,12.4,0c0,1.4,0,2.3,0,3.5
		c-11.4,0-22.5,0-33.6-0.2c-4.7,0-8.7,1.5-11.8,4.9c-3,3.1-5.6,6.5-8.1,9.8c-1.2,1.7-1.4,4-2,6c0.4,0.2,0.8,0.4,1.2,0.5
		c6.2-9.3,14-15.4,26-12.7c0,0.9-0.1,1.9-0.1,2.8c-13.7,1.9-14.1,2-17.6,5.4c-7,6.8-9.5,11.4-8.3,16.7c7.3-14.4,19.6-15.3,32.9-13.5
		c0,1.1,0,2.1,0,3c-0.5,0.1-0.6,0.2-0.6,0.2c-1.5,0-2.8,0.1-4.2,0c-12.2-2-20.7,3.4-26.6,13.5c-0.4,0.4-0.7,0.7-0.8,1.2
		c-0.5,1.9-1.2,3.9-1.7,5.8c0.4,0.1,0.7,0.3,1.1,0.4c0.4-0.6,1-1.2,1.5-1.8c5.6-7.9,12.9-11.6,23.1-11.4c23.3,0.5,46.4,0.2,69.7,0.2
		c1,0,2.5-0.2,3.1-0.9c1.4-2.2,2.3-4.4,3.5-7.1c-2.4,0-4.5,0-6.5,0c0-1.3,0-2.3,0-3.8c7.5,2.1,12.1-1.3,15.5-7.6
		c-8.9,0-17.5,0-26.5,0c0.2-1.3,0.2-2.4,0.3-3.5c8.1,0,16-0.3,23.8,0c4.6,0.1,8.7-0.4,12.6-3.3c2-1.5,2.7-2.8,2.7-5.2
		c0-45.8,0-91.5,0-137.2c0-1.2,0-2.4,0-3.5c-0.9-0.1-1.4-0.3-1.4-0.3c-34.2,0-68,0-101.8,0c-4,0-7.4,1.5-10,4.2
		c-3.1,3.5-5.7,7-8.6,10.4c-2.7,3-1.5,6.3-1.6,8.9c4.5-3.6,8.4-7.8,13.1-10.6c5.2-3.1,11.4-1.4,17.2-1.5c-0.1,1.4-0.1,2.3-0.2,3.3
		c-6.9,0.5-14-1.4-19.9,4.1c-6.9,6.2-10.7,12.6-9.8,17.1c5.9-7.3,11.7-14.3,22.4-12.9c0,1.1,0,2.1,0,3.5c-6.3-0.8-11.4,1.7-15.1,6.5
		c-3.3,4.3-8.6,7.6-7.4,14.8c7.5-13.8,19.9-14.7,33.3-12.9c0,0.9,0,1.9,0,3.1c-2,0-3.8,0.2-5.4,0c-11.8-2-19.8,3.4-25.8,13.1
		c-0.3,0.4-0.9,0.9-1.1,1.5c-0.5,1.9-1.2,3.9-1.7,5.9c0.4,0.1,0.7,0.3,1.1,0.3c0.8-1.1,1.9-2.3,2.7-3.5c5.3-6.6,11.8-9.6,20.4-9.5
		c29.5,0.4,58.8,0,88.3,0c1.2,0,2.5,0,4.2,0c-0.2,1.5-0.3,2.5-0.4,3.7c-1.5,0-2.8,0-4.1,0c-28.9,0-57.8,0.3-86.7-0.2
		c-9.4-0.1-15.8,3.2-20.7,10.4c-0.8,1.3-1.9,2.3-2.5,3.5C368.3,270.6,367.5,272.9,366.7,275z M175.9,473.2c1.8,0,3.3-0.1,4.8,0
		c12.9,0.4,25.8,1.5,38.3,4.6c20.7,5.1,37,15.8,44.9,36.6c4.6,12.3,11.9,23.1,19,34.1c11.4,17.4,26.2,30.8,45.7,38.6
		c15.5,6,32,8.2,48.5,8.2c13.8,0,27.4-1.5,40.2-6.9c13.1-5.3,23.3-13.8,29.3-27.2c4.5-10.4,3.9-20.4-1.8-30
		c-4.7-7.9-14.4-8.2-19.8-0.7c-1.2,1.5-2.3,3.3-3.3,5c-3.1,5.2-7.7,8.1-13.6,8.7c-15.5,1.6-31.3,2-46.6-2.1
		c-16.9-4.5-31-13.2-40.7-28.4c-4.3-6.9-8.9-13.5-13.2-20.5c-5.8-9.5-13.4-17.2-23.1-22.3c-7.5-4-14-9.4-19.7-15.5
		c-2.5-2.7-5.1-5.2-7.5-7.8c-7-7.2-15.6-11.2-25.6-10.4c-10,0.8-19.8,1.9-29.7,3.5c-5.7,0.9-11.6,2.6-17.4,4.4
		c-3.3,1-6.1,3.4-6.5,7.1C177.1,459,176.6,465.9,175.9,473.2z M372.9,698.8c8.1-0.6,16.4-0.5,24.2-2.1c17.7-3.6,35.1-7.9,52.6-12.4
		c7.7-1.9,15.7-3.9,22.9-7.4c11-5.2,12.7-18.6,4.4-27.3c-1.5-1.7-3.2-3.2-4.6-4.6c-4.9-5.2-6.1-11.7-6.5-18.5
		c-0.3-4.6-0.2-9.2-0.7-13.8c-0.5-4.4-3-5.8-7.3-4.4c-2.7,0.6-5.3,1.8-7.9,3c-5.4,2.8-10.9,4.1-17.2,3.2c-8.3-1-16.5,0.1-24.3,3.6
		c-5.3,2.4-10.5,4.7-15.9,6.7c-10.5,4-21.6,3-32.5,2.7c-16.8-0.4-33-4.7-49.4-8.2c-13.1-2.7-26-5.5-39.2-8.1
		c-2.2-0.5-4.7,0.5-7.1,0.8c0.5,2.3,0.3,4.8,1.4,6.7c2.3,4,1.2,7.2-0.9,10.4c-4.3,7.2-8.8,14.2-12.7,21.5c-1.8,3.3-3.2,7.1-3.3,10.8
		c-0.5,13.3,6.4,22.3,19.8,25.1c7.6,1.5,15.4,1.8,23.2,2c16.5,0.7,33,1.3,49,6C351.4,697.8,362.1,698.8,372.9,698.8z M562.1,429.7
		c1.5,10.6-0.5,20.1-6.7,28.4c-2.8,4-6.8,6.2-11.9,6c-10.4-0.4-20.7-0.4-31-0.9c-14.7-0.9-29.3-3-43.4-7.8
		c-12.5-4.4-25.2-8.7-38.7-8.8c-7.2-0.3-14.4,0.3-21.5,1c-3.7,0.5-6.6,3.2-7.1,7.3c-1.2,9-0.6,17.9,3.3,26.4c0.2,0.5,1,1.2,1,1.2
		c7,0.4,12.3,3.9,18.2,6c20.9,6.8,42.3,11.5,64,15.1c15.4,2.6,30.9,4.7,46.7,3.4c13-1.1,24.4-5.7,32.9-16.2
		c8.1-10.4,13.6-22.2,18.6-34.2c0.9-2.3,0.9-5,0.5-7.5c-1-7.8-5.5-13.7-10.1-19.6c-0.5-0.5-1.7-1-2.5-0.9
		C570.2,428.8,566.3,429.2,562.1,429.7z M465.9,525.3c4.8,17.4,9.5,34.6,14.2,51.9c7.1,0.7,8.1,1.6,9.8,8.8c0.5,2.6,1.4,5.2,2.1,8.1
		c2.5-1.5,4.8-2.4,6.5-3.9c6.7-5.6,13.1-11.6,19.8-17.3c4.8-4.1,9.4-8.9,14.9-11.7c6.8-3.5,12.1-8.3,16.5-14
		c19.2-24.7,33.1-52.5,46.1-80.7c0.3-0.7,0.4-2.1-0.1-2.7c-1.6-2.4-3.5-4.5-5.4-7c-6.2,13.7-12.2,27.2-22,38.4
		c2.1,3.7,4.2,7.4,6.4,11.2c-1.3,0.6-2.1,1-3.1,1.6c-2-3.4-3.9-6.6-6.1-10.1c-8.1,7.5-17.7,10.8-28.2,12.4c0,5.1,0,9.8,0,15
		c-4.9,0-9.5,0-14.4,0c4.3,10.8,8.4,21.2,12.5,31.7c-1.4,0.5-2.3,0.7-3.5,1.1c-4-10.2-8-20.1-11.8-30c-0.8-2.2-1.8-2.9-4.2-2.9
		c-12.6,0.2-25.2,0.1-37.8,0.1C474.2,525.3,470.2,525.3,465.9,525.3z M542,328.4c1.2-2.1,2.8-4,3.7-6.3c0.5-1.4,0.5-3.7-0.3-4.7
		c-0.9-1-3.2-1.6-4.7-1.4c-5.7,0.6-8.2,6.6-4.6,11.4c1.7,2.4,3.6,4.6,5.6,6.8c4.4,4.9,6.6,10.7,7.8,17.2c0.4,2.8,0,4.4-2.4,6.3
		c-1.9,1.4-3.5,3.7-4.3,6c-2.3,6.6-6.8,8.7-13.3,8.2c-1.5-0.3-3-0.3-4.5-0.4c-8-0.8-15.9-1.6-23.6,1.6c-4.6,2-8.4-2-7.6-7
		c0.8-4.7,4.5-8.5,9.7-9.5c2.7-0.5,5.6-0.6,8.4-1.4c1.4-0.4,2.6-1.5,4-2.4c-0.3-0.2-0.4-0.5-0.6-0.8c-2.4,0-4.5,0.2-7-0.1
		c-1.6,0-3.5,0-4.7-0.9c-2.9-2-5.5-1.3-8.2,0.3c-2.4,1.1-4.8,2.4-6.9,3.8c-11.2,7.8-20.1,17.6-22,31.3c-2.1,14-0.2,28.2,5.9,41.2
		c3.3,7.2,9.5,11.1,17.4,12.5c12.1,2,23.1-1.3,33.3-7.5c5.4-3.3,10.5-6.8,16-9.9c6.5-3.5,12.8-2.9,18.6,1.8c0.7,0.6,1.6,1.5,2.5,1.4
		c4-0.2,8.2-0.7,12.6-1.4c-5.2-5.6-10-10.6-16.3-14c-4-2.3-8.5-3-13-2c-10.5,2.7-20.8,5.5-31.3,8.6c-9.2,2.9-18.4,4.5-28,1.6
		c-7.9-2.3-12.2-7.9-13.4-16.2c-1.2-8.5,1.2-15.5,8.9-19.5c10.5-5.5,21.1-5.7,31.3,1.4c2.7,2,5.6,3.9,8.7,5.1
		c11.7,5,23.4,6.9,34.5-1.5c9.7-7.4,18.6-15.7,29.1-21.9c1.2-0.6,2.3-1.8,2.9-2.9c1.1-2.3,2.3-4.6,2.6-7c0.5-5.5-1.8-10.4-5-15.3
		c-0.2,1-0.5,1.6-0.5,2.2c-1.2,7.5-5.3,11.9-12.7,13.6c-2.7,0.5-5.4,2.2-7.8,3.4c-1.4,0.6-2.5,1.4-4.4,2.3c-0.2-2.4-0.3-4.2-0.3-5.8
		c0.1-3.3,0.5-6.5,0.5-9.8c0.2-7.4-3.1-12.8-9.8-15.7C546.9,330.2,544.5,329.5,542,328.4z M476.6,578.1c-4.7-17.3-9.4-34.1-14-50.9
		c-0.2-0.7-1.1-1.8-1.8-1.8c-5-0.2-10.3-0.1-15.7-0.1c6.1,8.4,9,17.9,8,25.6c-2.4,16.7-11.7,28.5-26,36.8c-2.5,1.5-3.3,3-3.2,5.8
		c0.3,5.4,0,10.6,0,16.1c-0.7,0-1.6,0-3.4,0c0-6,0-12,0-18.5c-14.8,6.3-29.8,7.8-44.7,8.1c0,7.9,0,15.4,0,23.1c-1.1,0-2,0-3.5-0.2
		c0-7.7,0-15.2,0-22c-14.2-2.5-27.4-4.7-40.9-7c-1,8.3-2.3,17.1-3.4,26.3c0.9,0.2,1.5,0.4,2.4,0.5c15.5,3.5,31.3,4.8,47.2,4.2
		c7.1-0.5,14.1-2,20.5-5.4c11.9-6,24.1-9.8,37.5-7.7c2.2,0.3,4.7-0.3,6.9-0.4c-0.4-6-0.5-11.3-1-16.7c-0.3-2.9,0.7-5.3,3.3-6.5
		c2.8-1.4,5.9-2.5,9-3.3C461.2,581.9,468.9,580.1,476.6,578.1z M281.5,582.3c1.4-7.2,2.8-14.1,3.9-21.1c0.3-1.4-0.1-3.2-0.9-4.3
		c-6-9.4-12.3-18.7-18-28.4c-1.6-2.5-2.9-4.1-6.3-3.1c-1.9,6.8-3.7,13.8-5.8,20.6c-1.2,3.7,0.1,6.1,2.1,8.5c0.8-0.5,1.3-0.6,1.9-1.2
		c4.1-2.4,7.7-1.7,10.3,1.5c3,3.5,3.1,9.5,0.3,12.8c-2.6,2.9-6,3.2-10.3,0.3c-2.8-2.1-5.5-4-8.7-6.3c-2.7,9.8-5.4,19.2-8.1,28.7
		c-1.2-0.5-2.1-0.7-3.2-1.2c0.2-0.9,0.4-1.8,0.5-2.5c2.4-8.4,4.7-16.6,6.9-25.1c0.4-1,0.2-2.8-0.5-3.4c-4.4-4.1-9.2-7.9-13.7-11.9
		c-1.2,2.5-2.3,4.9-3.4,7.3c-0.1,0.4,0.2,1.3,0.5,1.8c3.5,7.3,3.9,15.2,3.6,23.1c0,1.1-0.1,2.1-0.5,3c-0.4,0.6-1.1,1.5-1.8,1.5
		c-0.6,0-1.5-0.7-1.9-1.4c-0.5-0.8-0.6-1.8-0.6-2.8c-0.3-5-2.2-9.3-5.5-12.7c-4.6-4.7-9.5-9.3-14.6-14.2c-1.5,3.9-2.9,7.3-4,10.5
		c-0.3,0.8,0.1,2,0.6,2.4c7.3,6.5,14.4,13,22,18.7c5.5,4.4,11.5,7.6,17.6,11.4c2.6-6.6,5-12.2,7-17.7c1.7-4.2,4.9-5.9,8.9-4
		c2.4,1.2,5,2.7,6.7,4.6c3.4,3.9,7.4,5.8,12.3,6.8c6.2,1.4,7.8,4.1,6.1,10c-1.4,4.6-3.3,9.2-4.8,13.9c14.7,3.2,29.5,6.5,44.4,9.7
		c1.3-9.6,2.5-18.7,3.7-27.9c-15.4-6.1-28.3-15.4-39.2-28.2c-1.5,7.5-2.8,13.9-4.2,20.6C283.6,582.8,282.7,582.7,281.5,582.3z
		 M610.5,416.2c3.8-23.9,4.5-47.2,2.4-70.1c-1.6-0.3-3-0.6-3.9-1.4c-19-15.8-38.1-31.5-57.1-47.4c-4.5-3.7-9.2-7.5-14.3-11.6
		c0,9.4,0,18.2,0,27.1c4.2-0.9,8-1.3,10.8,2.3c3.3,3.8,1.1,7.5-0.7,11.6c14.7,4.7,16.3,16.4,14.5,29.4c3.3-1.1,5.7-2.4,8.4-2.8
		c6-1.1,8.9-5,9.7-10.6c0.5-3.8,0.3-7.6,0.7-11.5c0.2-1.1,1.2-2.1,1.8-3.1c0.9,0.8,2.6,1.5,2.6,2.5c0.2,5.8,3.5,10.5,5.6,15.6
		c4.1,10.3,1.8,18.2-7,24.4c-2.9,2.2-6,4-9.3,6C586.5,390,598.2,402.8,610.5,416.2z M422.5,415.8c-1.4,0-2.4,0-3.7,0
		c-10.1,0-20.3,0.1-30.4,0c-4.5-0.1-8.3,1.3-11.2,4.5c-3,3.1-5.8,6.5-8.4,10.1c-1.1,1.6-1.3,3.9-1.8,5.9c0.4,0.1,0.7,0.2,1.1,0.4
		c0.8-1.2,1.7-2.3,2.5-3.3c5.3-6.9,11.8-10.1,20.6-9.8c24,0.3,47.8,0.1,71.6,0.1c1.1,0,2.3,0,3.7,0c-0.8-2.8-1.5-5.5-2.2-8
		c-12.7,0-25.3,0-38,0c0.1-1.4,0.1-2.3,0.2-3.6c12.5,0,24.7,0,37.3,0c-0.2-1.4-0.5-2.4-0.5-3.4c-0.5-4.5-0.5-4.5-5.1-4.5
		c-1-0.1-2-0.2-3.3-0.3c0-1.3,0.1-2.2,0.1-3.5c2.6,0,5,0,7.5,0c-0.2-2.7-0.5-5.2-0.6-7.9c-10.7,0-21.3,0-32.1,0
		c0.1-1.2,0.1-2.1,0.3-3.5c1.4,0,2.5,0,3.7,0c8.4,0,17,0.1,25.6,0c1,0,2.5-0.8,2.9-1.6c0.6-1.9,0.8-3.9,1.1-6.3c-1.5,0-2.9,0-4.3,0
		c-21.3,0-42.6,0.6-63.9-0.3c-11.6-0.5-19.6,3.6-25.3,13.3c-0.4,0.5-0.8,0.7-1.1,1.4c-0.6,1.9-1.4,4-2,6.2c0.4,0.1,0.6,0.2,1,0.4
		c1.2-1.4,2.4-2.8,3.5-4.2c4.8-6,10.8-9.3,18.7-8.8c8.4,0.3,16.7,0,25.1,0c1.1,0,2.5,0,3.8,0c0,1.5,0,2.4,0,3.5
		c-8.6,0-17.2,0.7-25.6-0.1c-10.2-0.9-17.1,3.4-22.3,11.5c-0.7,1.1-1.8,2-2.4,3.2c-0.7,1.9-1.3,4-1.9,5.9c0.4,0.4,0.8,0.7,1.2,1
		c6.7-11.8,16.8-15.5,29.6-12.9c-0.1,0.9-0.1,1.8-0.2,2.7c-4.9,0.3-9.5,0-13.9,0.8c-4.7,1.1-7.9,4.6-10.6,8.4
		c-2.5,3.6-6.7,6.5-5.3,12.4c1.4-1.7,2.4-3,3.5-4.3c5-6.3,11.2-9.5,19.4-9.2c9.5,0.4,19.1,0,28.5,0c1.1,0,2.3,0.1,3.5,0.2
		C422.5,413.5,422.5,414.5,422.5,415.8z M472.8,435.2c-1.3-2-2.5-3.3-2.9-4.8c-1.2-2.9-3.2-3.3-5.9-3.3c-22.5,0.2-45.2,0.7-67.6-0.2
		c-12.3-0.5-20.9,3.7-27,14c0,0-0.3,0.4-0.3,0.5c-0.8,2.1-1.5,4.2-2.3,6.2c0.4,0.3,0.7,0.4,1,0.5c1.3-1.5,2.5-2.9,3.7-4.4
		c5-6,10.9-9.2,18.8-8.7c4.8,0.4,9.7,0,14.4,0c4.8,0,9.5,0,14.3,0c0,1.4,0,2.5,0,3.7c-1.5,0-2.6,0-3.7,0c-9.3,0-18.5,0.1-27.6,0
		c-3.6-0.1-7,1-9.5,3.6c-3.3,3.4-6.1,7.1-9.3,10.6c-1.7,2-1.7,4.2-1.2,7.2c6.3-8.5,13-15.5,24.4-13.1c0,0.9,0,1.8,0,3.2
		c-6.4-0.8-12.1,0.7-16.3,5.6c-8,9.4-9.8,11.3-7.7,15.3c5.3-6.7,10.4-13.4,20.3-13c0.5,2.1,0.6,3.3-1.9,3.8
		c-3.1,0.5-6.4,1.7-8.4,3.7c-3.5,3.1-6.4,6.9-9.2,10.6c-1.1,1.5-1.3,3.9-1.8,6c0,0,0.7,0.2,1.1,0.3c5.7-7.5,11.8-14.4,22.9-12.7
		c0,1.1,0,2.2,0,3.5c-6.6-1-11.6,1.4-15.6,6.1c-8.1,9.6-9,10.5-7.2,15.2c7.2-13.8,19.4-15,33.6-13.2c-2.6-3.6-1.3-8.5-7.8-8.7
		c1.4-1.8,2.3-2.9,3.5-4.4c0-1.6,0-4,0-6.5c-1.7-0.1-3.3-0.1-4.9-0.4c0-1.1,0-2.1,0-3.3c1.7-0.1,3.3-0.2,4.7-0.4
		c0.6-2.5,1.1-4.8,1.6-7.5c-1-0.2-2.1-0.5-2.8-0.6c0-1.1,0-1.9,0-2.8c2.4-0.2,4.9,0.1,6.7-0.9c5.4-2.9,11-3.8,16.8-3.4
		c14.9,1.1,29.8,2.7,44.7,4.1c0.4,3.4,0.4,3.4,3.3,4.3c4.4,1.5,8.9,2.8,13.4,3.9c3.1,0.8,6.4,1.4,9.6,2c0-4.7,0-8.6,0-12.3
		c-4.1-1.5-7.8-3.2-11.5-4.5c-1.7-0.7-3.5-1.5-5.3-1.5c-13.5-0.2-26.9-0.1-40.3-0.1c-1.1,0-2.3,0-3.7,0c0.1-1.5,0.3-2.5,0.3-3.5
		C444.3,435.2,458.2,435.2,472.8,435.2z M393.8,184.5c0.2-0.3,0.5-0.4,0.5-0.5c-9.4-13.1-18.9-26.2-28.3-39.2
		c7.4,1.8,14.2,4.1,21,6.1c1.1,0.4,2.7,0.5,3.3,0c3.6-3.4,6.9-7,10.5-10.7c-11,1.1-21.4,2.4-32,3.4c-0.1-0.1-0.1-0.4-0.2-0.5
		c14.5-4.7,29-9.5,43.7-14.4c-0.6-0.3-0.8-0.6-1.1-0.6c-9.8-1.5-19.4-2.9-29.2-4.4c-1,0-2.4,0.8-3.2,1.7c-3.3,4.3-6.4,8.9-9.6,13.4
		c-1.1,1.5-2.2,2.9-3.4,4.4c-0.2-0.1-0.5-0.1-0.6-0.2c0-16.2,0-32.2,0-48.3c-4.7,8.5-8.9,17.2-13.4,25.7c-1.1,2.3-1,3.8,0.5,5.8
		c4.2,5.5,8.3,11.3,12.9,17.7c-16.2-5.2-31.3-10.2-47.2-15.3c0.5,0.9,0.5,1.2,0.7,1.3c4.9,4.7,9.3,10,14.7,14.1
		c6.7,5.2,8.1,11,5.8,19c-1.7,6.7-2.5,13.9-3.5,20.7c0.1,0.2,0.3,0.2,0.5,0.4c9.5-13.2,19-26.2,28.9-40.1c0,8.3,0,15.6,0.1,22.9
		c0,1.1,0.7,2.7,1.4,3.2C375.8,175,384.9,179.8,393.8,184.5z M598.1,461c5.7-14.8,9.7-29.4,12.3-44.4c-1.4,0.7-2.1,1.2-2.9,1.6
		c-12-13.2-23.9-26.3-35.3-39.2c-7.7,6-15.2,11.6-22.9,17.5c2.6,3.3,5.1,8,9,10.6c10.1,6.6,18.1,14.9,24.7,24.4
		c3.2,4.6,6,10.1,7.2,15.5C591.2,452.8,595,456,598.1,461z M197.5,437.3c6.8,0,6.8,0,6.8-6.5c0-73.6,0-147,0-220.6
		c0-1.5,0-3.1,0-4.7c-2.5,0-4.5,0-6.8,0C197.5,282.9,197.5,360.2,197.5,437.3z M208.3,205.4c0,77,0,153.6,0,230.5
		c2.5-0.4,4.6-0.7,6.6-1.2c0-76.7,0-152.9,0-229.3C212.6,205.4,210.6,205.4,208.3,205.4z M225.6,433.5c0-76.1,0-151.9,0-228
		c-2.3,0-4.4,0-6.8,0c0,76.1,0,152.3,0,228.4C221.2,433.9,223.2,433.6,225.6,433.5z M236.4,433.5c0-76.1,0-151.9,0-228
		c-2.3,0-4.4,0-6.7,0c0,76.1,0,151.9,0,228C232.1,433.5,234.1,433.5,236.4,433.5z M494.7,653.4c-0.9-3.9-2-7.3-2.4-10.6
		c-0.8-8-3.7-15-8.5-21.4c-2.7-3.5-5.5-6.8-8.3-10.3c-1.4-1.9-2.7-4-3.7-6.1c-1.3-2.3-0.5-4.4,1.3-6c3.9-3.6,7.7-7.3,11.4-11.1
		c0.9-0.9,1.3-2.8,0.9-4.1c-0.3-1-1.6-2.2-2.9-2.5c-1.5-0.4-3.5-0.1-5.2,0.4c-8.4,2-16.7,4.2-25.1,6.3c-1.5,0.5-3.3,1.3-4.8,2.1
		c-2.5,1.1-3.2,3-1.4,5.2c2.4,2.7,4.9,5.3,7.6,7.5c1.2,1,3.2,1.6,4.6,1.5c6.3-0.4,9.4,1.8,10.3,7.9c0.5,4.9,0.4,9.7,0.8,14.4
		c0.5,6,1.5,11.7,5.9,16.3c3.6,4,7.1,8.2,11,12.6C488.5,655,491.5,654.2,494.7,653.4z M526.6,205.4c0,1.7,0,3.1,0,4.4
		c0,51.2,0,102.4,0,153.6c0,4.9,0,4.9,4.8,4.8c0.7-0.1,1.3-0.3,1.9-0.4c0.1-0.5,0.4-0.9,0.4-1.4c0-11.4,0-23.1-0.1-34.5
		c0-1.1-0.6-2.3-1.2-3.4c-1.8-3.7-2.1-7.5-0.2-11.3c0.7-1.6,1.4-3.5,1.4-5.2c0.1-34.4,0.1-68.8,0.1-103c0-1.2,0-2.4,0-3.7
		C531.3,205.4,529.2,205.4,526.6,205.4z M522.9,367.6c0-54.2,0-108,0-162.1c-2.4,0-4.5,0-6.9,0c0,47.6,0,95,0,142.4
		c3.9,1.5,4.6,2.6,3.3,5.5c-0.4,0.8-0.8,1.5-1.4,2.2c-3.3,3.5-1.7,7.5-2,11.4C518.4,367.3,520.4,367.5,522.9,367.6z M245.6,657.2
		c3.5-10.7,9.8-19.4,15.4-28.4c1.9-3.2,3.4-6.1,0.9-9.6c-0.7-0.9-0.8-2-1.2-3.1c-0.7-3.4-0.5-6.4,3-8.2c0.4-0.2,1-1,1.1-1.7
		c0.8-6.1,2.3-7.7,8.4-9c2.2-0.5,4.5-0.7,6.4-1.7c1-0.7,1.9-2.6,1.9-4c0-0.9-1.6-2.5-2.6-2.6c-6.5-1-11.6-3.8-15.5-8.8
		c-0.5-0.5-1.2-1.1-1.8-1.5c-1.8-0.6-4.1-2-5.6-1.5c-1.2,0.4-2.2,3.3-2.1,5c0.5,6.6,1.1,13.2,2.3,19.6c0.9,4.4-0.1,8.4-2.6,11.9
		c-1.6,2.2-3.8,4.1-5.4,6.4c-2,3-4.6,6.2-5.6,9.8c-2.5,8.1-4.2,16.5-6.2,25.1C238.9,655.5,242.1,656.3,245.6,657.2z M424.1,492.3
		c-2-0.8-3.9-1.1-5.4-2.2c-4.4-3.1-9.5-3.3-14.5-4.5c-0.5-0.1-1.4-0.3-1.8,0.1c-5.5,3.7-10.6,7.9-12.5,14.7c-1.6,6.3,1.4,11.1,6,15
		c7.7,6.5,16.9,8.9,26.5,10.4c0.8,0.2,1.9-0.4,2.6-0.7c1.6-0.9,3.4-2.1,5.2-3.2C423.3,513.3,419.1,503.9,424.1,492.3z M201.7,525.4
		c0.2,2.6,0.8,5,0.8,7.5c-0.2,6.6,2.6,12,7.4,16.6c4.3,4.1,8.8,8.1,13.1,12.3c2.1,2,3.7,4.3,5.5,6.4c0.3-0.1,0.5-0.3,0.8-0.4
		c-1.5-4.6-3.3-9.3-5-14c1.9-4,4.2-8.6,6.5-13.4c1,1,1.8,1.8,2.6,2.5c9.4,7.5,18.4,15.1,27.8,22.6c1.5,1.3,3.3,1.8,5,0
		c1.5-1.7,1.5-5.5,0-7.8c-1.3-1.6-2.8-2.5-4.7-1.5c-1.8,1.2-3.6,2.4-5.5,3.7c-0.9-1.1-2.2-2.2-2.8-3.5c-1.7-3.1-2.9-6.5-4.7-9.3
		c-1-1.6-2.6-3.5-4.3-3.7c-6.9-1.8-8.8-3.9-9.3-11c-0.2-2.4,0-4.7,0-7.1C223.4,525.4,212.6,525.4,201.7,525.4z M505.3,205.5
		c0,1.5,0,2.9,0,4.3c0,44.3,0,88.6,0,132.8c0,6.4,0,6.4,6.2,5.7c0,0,0.4-0.2,0.5-0.3c0-47.5,0-95,0-142.6
		C509.8,205.5,507.7,205.5,505.3,205.5z M501.3,345.6c0-46.7,0-93.4,0-140.1c-2.4,0-4.4,0-6.7,0c0,47.2,0,94.5,0,141.7
		C496.9,346.7,498.9,346.3,501.3,345.6z M420.8,529.9c-10.7-4.2-21.8-5.5-33.3-4.6c-3.1,0.1-6.4-0.5-8.9,2.5
		c-0.9,1.3-2.9,1.7-4.7,1.9c-4.1,0.5-8.1,0.8-12.3,0.7c-4.3-0.1-8.4-0.9-11.6-4.4c-0.3-0.5-1-0.8-1-0.8c-4.6,0-8.6,0-13.4,0
		c5.7,4.9,11.7,8.1,17.9,10.4c16.6,6.7,33.8,6.5,51.1,5.5C412.4,540.7,417.8,537,420.8,529.9z M176.3,476.1
		c-2.3,0.7-4.1,0.9-5.3,1.8c-6.1,5.3-9.2,11.8-9.6,19.9c-0.4,10.1,3.7,15.8,13.6,17.5c6,1,12.3,0.8,18.3,1.2c0-6,0-11.9,0-18.3
		c-3.3,0-6.4,0-9.4,0c-9.3-0.1-11-2-10-11.3c0.2-1.3,0.4-2.6,0.5-3.8C175,481.1,175.5,479.2,176.3,476.1z M306.4,485.1
		c2.1,3.3,4,5.8,5.6,8.8c1.1,1.9,2.4,2.5,4.6,2.5c7.7-0.1,15.4,0.2,22.9-0.1c7.9-0.4,14.3,2.3,19.1,8.4c1.4,1.6,3,1.9,4.2,0.7
		c0.7-0.7,0.8-3.1,0.2-4c-3.2-4.3-6.5-8.4-10.2-12.4c-2.8-3.2-6.7-4.3-11-4.2c-10.8,0-21.6,0-32.4,0
		C308.6,484.8,307.8,484.9,306.4,485.1z M548.2,459.9c1.5-1.2,2.7-2,3.6-3c5.6-6.8,7.6-14.9,7.1-23.5c-0.1-1.4-0.7-2.8-1.5-4
		c-4.5-5.8-13.4-6.6-19.1-1.9c-0.4,0.3-0.8,0.5-0.8,0.9c0,4.5-1,9.4,0.5,13.4C540.4,448,544.5,453.7,548.2,459.9z M262.8,521.6
		c0-2.9-2-2.7-3.6-2.7c-16.8,0-33.6,0-50.4,0c-1.4,0-2.6,0-4.4,0c0-13.5,0-26.9,0-40.2c-2.5-0.3-4.5-0.5-6.8-0.8
		c0,14.6,0,29.2,0,43.7C219.4,521.6,241.1,521.6,262.8,521.6z M363.1,495c0.2,0,0.5,0,0.6-0.1c-0.2-1.6,0.3-3.7-0.6-4.9
		c-3.4-4.6-7.1-8.9-11-13.1c-2.5-2.8-6.2-3.7-10.1-3.7c-14.7,0-29.3,0-44.1,0c0,0-1.5,0.3-2.5,0.4c2,1.8,3.9,3.2,5.3,4.9
		c1.9,2.3,3.9,2.7,6.6,2.6c11.5-0.1,22.7,0.1,34.1,0c5.9-0.1,10.7,1.9,14.7,6C358.5,489.6,360.8,492.3,363.1,495z M432.8,518.8
		c2.1,3.7,5.1,2.8,7.6,2.8c29.9,0,59.9,0,90,0c1,0,2,0,3.1,0c0-3.8,0-7.4,0-10.7c-2.4,0-4.5,0-7,0c0,2.7,0,5.2,0,7.9
		C495.2,518.8,464.3,518.8,432.8,518.8z M260.1,515.2c0-2.5-1.5-2.5-3.3-2.5c-12.7,0.1-25.4,0.1-38.1,0.1c-1.1,0-2.4,0-3.7,0
		c0-11.1,0-21.5,0-32.2c-2.4-0.5-4.5-0.9-6.8-1.4c0,12.2,0,24.2,0,36C225.7,515.2,242.9,515.2,260.1,515.2z M483.6,404.3
		c-3,0-5.6,0-8.5,0c1.6,6.2,2.8,7.4,8.2,8.1c0.7,3.4,2.7,4.4,7.5,3.7c0-9.8,0-19.9,0-29.8c0-0.9-0.1-1.8-0.1-2.8
		c-4.6,0.5-8.5,1.9-12.2,5.4c2,0.3,3.5,0.4,4.9,0.5c0,1.2,0,2.1,0,3.2c-2.7,0.1-5.8-0.6-7.5,0.7c-1.5,1.2-1.4,4.5-2.1,7.5
		c3.8,0,6.7,0,9.6,0C483.6,402,483.6,402.8,483.6,404.3z M365.4,527.4c3.4-0.5,6.6-1.1,10-1.8c1.8-0.4,2.7-1.6,2.6-3.9
		c-0.5-7.1-5.8-12.5-12.5-12.5c-6.8,0-12.1,5.5-12.4,12.6c-0.1,2.1,0.5,3.2,2.5,3.6C358.6,526.2,362.1,526.8,365.4,527.4z
		 M256.9,508.9c0.1-0.5,0.2-0.9,0.4-1.3c-1.3-0.4-2.5-1.3-3.6-1.3c-6-0.2-12.1-0.1-18.1-0.1c-3.2,0-6.3,0-9.5,0
		c0-1.5-0.2-2.5-0.2-3.6c0-5.6,0.2-11.3-0.1-16.8c0-0.9-0.5-2.3-1.2-2.5c-1.6-0.9-3.6-1.3-5.5-1.7c0,9.4,0,18.2,0,27.3
		C231.7,508.9,244.3,508.9,256.9,508.9z M193.4,476.9c-4.2,0-8.2,0-12,0.1c0,0-1.6,0.9-1.8,1.4c-0.7,4.7-1.5,9.3-1.9,14
		c-0.1,0.5,1.4,2,2.2,2c4.4,0.3,8.9,0.2,13.5,0.2C193.4,489,193.4,483.5,193.4,476.9z M428.8,512.7c0.2,2.9,2.1,2.6,4,2.6
		c28.9,0,58,0,86.9,0c1.1,0,2.1,0,3.2,0c0-1.7,0-3,0-4.7c-2.4,0.2-5.8-0.5-6.7,0.6c-1.2,1.6-2.5,1.4-3.8,1.4
		c-26.5,0.1-53.2,0.1-79.7,0.1C431.3,512.7,430.1,512.7,428.8,512.7z M367.4,505.3c2.2,1.3,3.6,0.9,5.2-0.9
		c3.5-4.1,7.6-7.2,13.3-7.8c0.6-0.1,1.5-0.5,1.9-1c2.8-3.4,5.4-6.9,8.1-10.4C382.8,482.4,366.8,493.6,367.4,505.3z M494.6,383.1
		c0,11.6,0,22.5,0,34c2.4-0.2,4.5-0.4,6.6-0.6c0-10.9,0-21.7,0-32.8C498.9,383.5,496.9,383.3,494.6,383.1z M238.1,525.4
		c0.5,4,0.7,7.8,1.5,11.5c0.2,1,1.5,2,2.7,2.5c2.9,1.4,6.1,2.4,9.3,3.6c1.5-5.4,3.1-11.4,4.9-17.6
		C250.3,525.4,244.6,525.4,238.1,525.4z M533.5,460.5c0-10.2,0-19.8,0-30.6c-2.6,2.4-6.4,4.1-6.5,6.1c-0.7,7.9-0.3,15.9-0.3,24.2
		C529,460.2,531,460.3,533.5,460.5z M505.5,385c0,10.7,0,20.6,0,30.7c1.2-0.3,2-0.5,2.8-0.6c3.1-0.4,4.4-1.9,4.1-5.3
		c-0.4-5.8,0-11.6-0.1-17.4c0-1.1-0.4-2.4-1.2-3.1C509.6,387.8,507.7,386.7,505.5,385z M495.1,508.9c0-0.3,0-0.6,0-0.9
		c-22.9-3.5-45.9-0.8-69-1.8c0,3.3,1.9,2.8,3.5,2.8c21,0,41.8,0,62.9,0C492.6,509,494.2,508.9,495.1,508.9z M229.7,502.6
		c8,0,15.5,0,23.2,0c0-0.4,0.2-0.8,0.3-1.1c-5.1-3.1-10.8-0.1-16.5-1.8c0-3.1,0.1-6.3-0.2-9.3c-0.1-1.2-0.9-2.5-1.8-3.1
		c-1.5-1-3.3-1.5-5-2.2C229.7,491,229.7,496.7,229.7,502.6z M522.9,437.2c-2.1,1-3.7,1.8-5.5,2.7c-0.6,0.4-1.5,1.1-1.5,1.6
		c-0.2,6,0,12,0,18.2c2.5,0,4.6,0,7,0C522.9,452.3,522.9,445,522.9,437.2z M516,392.1c0,6.9,0,13.4,0,20.1c2-0.6,3.9-1,5.7-1.8
		c0.5-0.2,1.2-1.2,1.3-1.9c0.1-4.4,0-8.9,0-13.3C520.6,394,518.5,393.1,516,392.1z M512.2,442.2c-2.4,0.5-4.6,1.1-6.7,1.5
		c-0.1,0.5-0.2,0.8-0.2,0.9c0,3,0,6,0,8.9c0,5.9,0,5.9,5.7,5.7c0.4,0,0.7-0.1,1.2-0.2C512.2,453.6,512.2,448,512.2,442.2z
		 M537.5,364.9c2.3-3.3,4.2-6.9,6.9-9.7c2-2.1,1.8-4.1,0.5-5.7c-2-2.9-4.6-5.4-7.5-8.5C537.5,349.5,537.5,357.2,537.5,364.9z
		 M501.3,444.3c-7-0.1-7-0.1-7,6.4c0,0.3,0,0.5,0,0.6c0,6.4,0,6.4,6.3,7c0,0,0.5-0.1,0.7-0.2C501.3,453.7,501.3,449.2,501.3,444.3z
		 M316.8,500.2c-0.2,0.4-0.4,0.6-0.5,1.2c1.1,0.4,2.4,1.3,3.5,1.3c5.4,0.3,10.6,0.2,16.1,0.2c7.1-0.2,14.3-0.6,20.2,5.1
		c-2.9-4-6.2-7.5-11.2-7.6C335.6,499.9,326.2,500.2,316.8,500.2z M462.1,502.8c0.2-0.3,0.3-0.5,0.3-0.7c-3.4-0.6-6.8-1.6-10.3-1.8
		c-8.2-0.4-16.2-0.2-24.3-0.1c-0.8,0-1.7,0.8-2.5,1.3c0.8,0.5,1.6,1.2,2.5,1.2C439.2,502.8,450.8,502.8,462.1,502.8z M537.5,397.8
		c0,2.9,0,5.5,0,8.3c4.5-0.5,8.6-1,12.9-1.5C546,396.8,545.7,396.7,537.5,397.8z M533.7,397.4c-2.4-0.5-4.7-0.8-6.8-1.3
		c0,4.4,0,8.4,0,12.4c6.8-0.6,6.8-0.6,6.8-7.1C533.7,400.3,533.7,399.1,533.7,397.4z M352.7,510.7c0-0.3,0.2-0.6,0.2-1
		c-2.3-1-4.6-2.8-7-2.8c-8.4-0.5-16.7-0.2-25.2-0.2c0.3,2.5,2.3,2.3,3.9,2.4C333.9,509.4,343.5,507.7,352.7,510.7z M324.8,513.3
		c0.5,0.6,1.2,1.9,1.2,1.9c8.7,0.2,16.8,0.2,24.9,0.2c0-0.5,0-0.8,0.1-1.3C342.6,511.3,333.8,513.6,324.8,513.3z M279.8,599.4
		c-3.5,0.9-6.5,1.4-9.3,2.4c-1.1,0.5-1.5,2.6-2,4.1c0,0.2,1.8,1.4,2.9,1.5c1.4,0.4,2.9,0.5,4.5,0.7
		C277.2,605.4,278.4,602.8,279.8,599.4z M349.9,520.1c-0.2-0.4-0.3-0.6-0.4-0.8c-6.5,0-13.1,0-19.6,0c0,0.4,0,0.6-0.2,0.9
		c5.8,3.2,12.1,0.8,18.1,1.5C348.6,521.6,349.3,520.6,349.9,520.1z M512.2,359c-2.5,0.4-4.6,0.7-6.8,0.9c0,2.8,0,5.4,0,7.9
		c2.4-0.4,4.5-0.7,6.8-0.9C512.2,364.2,512.2,361.8,512.2,359z M381.5,519.2c-0.1,0.7-0.2,1.5-0.2,2.2c5.1,0.6,10.4,0.3,15.5-0.2
		C392.2,517.3,386.8,519.5,381.5,519.2z M538.1,449.9c-0.2,0-0.3,0.1-0.3,0.1c-0.3,3.5-0.3,6.9-0.3,10.4c2.3,0,4.2,0,6.6,0
		C542.1,456.7,540,453.2,538.1,449.9z M501.3,361.4c-3.4,2.6-4.9,5.7-3.5,7.4c0.6,0.8,2.3,0.8,3.5,1.3
		C501.3,366.7,501.3,364.4,501.3,361.4z M240.2,496.1c2.5,0,4.8,0,7.8,0c-2.9-2.2-5.2-3.9-7.8-5.8
		C240.2,492.8,240.2,494.3,240.2,496.1z M445.3,600.5c0.4,3.4,0.7,5.8,1.1,8.6c1.9-1.2,3.5-1.8,5.4-2.8
		C449.8,604.4,448,602.8,445.3,600.5z M374.6,507.6c3.5-1.6,6.9-3.1,10.4-4.7c0.5-0.3,0.7-1.5,1.4-2.9
		C380.8,501.2,377.5,504,374.6,507.6z M379.5,515.2c3.7,0,7,0,10.4,0C388,512.1,383.3,512.1,379.5,515.2z M251.8,599.6
		c-0.5-3.5-1-6.4-1.5-9.1c0,0-0.5-0.1-0.7-0.1c-0.7,2-1.5,4-2.4,6C248.9,597.5,250.1,598.4,251.8,599.6z M487.2,590.5
		c-2.4,1.8-4.3,3.2-6.3,4.6c0.2,0.2,0.3,0.5,0.3,0.6c2.4-0.4,4.6-0.5,7.2-1C488,593.3,487.7,592.2,487.2,590.5z M387,508.7
		c-0.8-0.8-1.5-2.1-1.6-2c-2.5,0.9-5,2-7.4,3.1c0.1,0.2,0.2,0.5,0.3,0.8C380.9,510,383.5,509.5,387,508.7z M426.9,496.1
		c2.8,0,5.7,0,9.2,0C428.4,492.8,427.8,492.8,426.9,496.1z"/>
	<path class="st1" d="M250.5,705.1c-0.1,4-3.5,7.5-7.5,7.5c-4.2-0.2-7.4-3.5-7.4-7.6c0-4.2,3.5-7.5,7.5-7.5
		C247.2,697.5,250.7,701,250.5,705.1z"/>
	<path class="st1" d="M242.9,36.7c-4.1,0-7.4-3.5-7.4-7.7c0-4.1,3.5-7.5,7.7-7.4c3.9,0,7.4,3.6,7.3,7.7
		C250.4,33.3,247,36.8,242.9,36.7z"/>
	<path class="st1" d="M495.5,29.3c0,4-3.5,7.5-7.5,7.5c-4.1,0-7.5-3.5-7.5-7.5c0-4.1,3.4-7.7,7.5-7.6
		C492.1,21.6,495.5,25.1,495.5,29.3z"/>
	<path class="st1" d="M495.5,705.1c-0.1,4.1-3.5,7.5-7.7,7.5c-4-0.2-7.5-3.6-7.3-7.7c0-4.1,3.5-7.5,7.6-7.5
		C492.1,697.5,495.6,701,495.5,705.1z"/>
	<path class="st1" d="M552.3,52.7c3.9,0,7.5,3.5,7.5,7.5c0,4.1-3.5,7.5-7.6,7.5c-4,0-7.5-3.5-7.5-7.6
		C544.8,56.2,548.2,52.7,552.3,52.7z"/>
	<path class="st1" d="M401,1.8c4.2-0.1,7.5,3.2,7.7,7.3c0,4.1-3.5,7.6-7.5,7.7c-4.1,0-7.5-3.3-7.6-7.5C393.6,5.2,396.8,1.9,401,1.8z
		"/>
	<path class="st1" d="M312,19c-4,0-7.5-3.5-7.5-7.6c0-4,3.6-7.5,7.7-7.5c3.9,0,7.4,3.5,7.4,7.7C319.5,15.8,316.1,19.1,312,19z"/>
	<path class="st1" d="M559.7,70c0-4.2,3.3-7.4,7.5-7.4c4.1,0,7.5,3.3,7.5,7.4c0,4.1-3.5,7.5-7.5,7.5C563.2,77.5,559.8,74.1,559.7,70
		z"/>
	<path class="st1" d="M528.3,43c0,4.2-3.3,7.5-7.3,7.5c-4.2,0.2-7.7-3.3-7.7-7.3c-0.1-4.1,3.4-7.7,7.5-7.7
		C524.8,35.5,528.3,38.8,528.3,43z"/>
	<path class="st1" d="M329.7,1.8c4.2-0.1,7.5,3.2,7.6,7.3c0,4.2-3.3,7.6-7.4,7.7c-4.2,0-7.5-3.3-7.5-7.5
		C322.2,5.3,325.6,1.8,329.7,1.8z"/>
	<path class="st1" d="M528.3,690.8c0.1,4.2-3.2,7.6-7.3,7.6c-4.1,0.3-7.6-3.3-7.7-7.3c-0.1-4.1,3.3-7.5,7.4-7.7
		C524.8,683.4,528.2,686.7,528.3,690.8z"/>
	<path class="st1" d="M178.6,67.8c-4.1-0.1-7.5-3.6-7.5-7.7c0.1-4,3.7-7.5,7.7-7.4c4.2,0.1,7.4,3.6,7.3,7.6
		C186.2,64.5,182.7,67.8,178.6,67.8z"/>
	<path class="st1" d="M202.7,691.1c0-4.1,3.3-7.6,7.3-7.6c4.1,0,7.7,3.5,7.7,7.5c0,4.1-3.4,7.5-7.4,7.5
		C206.2,698.7,202.7,695.2,202.7,691.1z"/>
	<path class="st1" d="M552.1,681.5c-4.2-0.1-7.5-3.6-7.5-7.7c0.2-4.1,3.5-7.5,7.7-7.5c4.1,0,7.5,3.5,7.4,7.6
		C559.7,677.9,556.1,681.5,552.1,681.5z"/>
	<path class="st1" d="M202.7,43c0-4.1,3.4-7.5,7.5-7.5c3.9,0,7.4,3.6,7.4,7.5c0,4.2-3.6,7.5-7.7,7.5C206,50.5,202.7,47.2,202.7,43z"
		/>
	<path class="st1" d="M55.6,179.8c4.1,0.1,7.4,3.5,7.3,7.6c-0.1,4.2-3.5,7.5-7.5,7.4c-4.2-0.1-7.6-3.6-7.4-7.7
		C48,182.9,51.4,179.8,55.6,179.8z"/>
	<path class="st1" d="M418.8,19c-4,0.1-7.5-3.3-7.5-7.5s3.5-7.6,7.5-7.6c4,0,7.5,3.5,7.6,7.6C426.4,15.4,423,19,418.8,19z"/>
	<path class="st1" d="M461.4,18.6c-0.2,4.2-3.5,7.5-7.5,7.5c-4.2-0.1-7.4-3.6-7.4-7.6c0-4.1,3.5-7.5,7.5-7.5
		C458.1,11.2,461.4,14.5,461.4,18.6z"/>
	<path class="st1" d="M171.2,70c0,4.2-3.3,7.5-7.4,7.5c-4.1,0-7.5-3.5-7.5-7.5c0-4.1,3.5-7.4,7.5-7.4
		C167.9,62.5,171.2,65.8,171.2,70z"/>
	<path class="st1" d="M723.5,383.5c-4.2,0-7.5-3.3-7.5-7.5c0-4.1,3.4-7.5,7.5-7.5c4.1,0,7.5,3.5,7.5,7.5
		C731,380.1,727.5,383.5,723.5,383.5z"/>
	<path class="st1" d="M668.1,187.4c0-4.2,3.3-7.5,7.4-7.5c4.2,0,7.5,3.3,7.5,7.5c0.2,4-3.4,7.5-7.5,7.5
		C671.6,194.8,668.1,191.5,668.1,187.4z"/>
	<path class="st1" d="M401.3,732.3c-4.2,0.1-7.5-3.1-7.6-7.4c0-4.2,3.3-7.5,7.4-7.6c4.1-0.2,7.7,3.4,7.7,7.5
		C408.7,728.9,405.3,732.3,401.3,732.3z"/>
	<path class="st1" d="M718.3,297.1c4,0,7.5,3.5,7.3,7.6c-0.1,4-3.5,7.5-7.5,7.5c-4.2-0.2-7.3-3.5-7.3-7.7
		C710.7,300.3,714,297.1,718.3,297.1z"/>
	<path class="st1" d="M54.2,531.1c0,4.1-3.3,7.5-7.5,7.5c-4,0-7.4-3.4-7.4-7.5c0-4.2,3.5-7.5,7.4-7.5
		C50.9,523.5,54.2,526.9,54.2,531.1z"/>
	<path class="st1" d="M252.6,710.5c0-4.3,3.3-7.5,7.5-7.5c4.2,0.2,7.5,3.5,7.5,7.6c-0.1,4-3.5,7.5-7.5,7.4
		C255.9,718.2,252.5,714.7,252.6,710.5z"/>
	<path class="st1" d="M260,30.9c-4.4,0-7.4-3.3-7.4-7.5c0-4.1,3.4-7.5,7.5-7.5c4.1,0,7.5,3.5,7.5,7.5
		C267.4,27.6,264.1,30.9,260,30.9z"/>
	<path class="st1" d="M478.4,710.5c0.2,4.2-3.3,7.6-7.3,7.6c-4.1,0.1-7.6-3.5-7.6-7.4c-0.1-4.1,3.3-7.5,7.5-7.6
		C475.1,703.1,478.4,706.4,478.4,710.5z"/>
	<path class="st1" d="M691.9,226.6c-4.2,0.1-7.5-3.2-7.5-7.4c0-4.2,3.3-7.5,7.4-7.5c4.1-0.1,7.5,3.4,7.6,7.5
		C699.4,223.2,696,226.6,691.9,226.6z"/>
	<path class="st1" d="M461.4,715.3c0,4.2-3.3,7.6-7.5,7.7c-4,0.1-7.5-3.3-7.5-7.4c-0.2-4,3.3-7.6,7.4-7.6
		C457.8,707.8,461.2,711.3,461.4,715.3z"/>
	<path class="st1" d="M171.2,663.9c0,4.3-3.2,7.6-7.4,7.7c-4,0-7.5-3.5-7.6-7.4c0-4,3.5-7.7,7.5-7.7
		C167.8,656.5,171.2,659.9,171.2,663.9z"/>
	<path class="st1" d="M12.8,297.1c4.2,0,7.5,3.2,7.5,7.5c0,4.2-3.3,7.5-7.3,7.6c-4.1,0-7.5-3.5-7.5-7.6
		C5.3,300.4,8.7,297.1,12.8,297.1z"/>
	<path class="st1" d="M269.6,715.5c0-4.2,3.5-7.7,7.4-7.5c4.1,0,7.6,3.5,7.6,7.4c0,4.2-3.5,7.5-7.5,7.5
		C273,723.1,269.6,719.7,269.6,715.5z"/>
	<path class="st1" d="M269.6,18.6c0-4.1,3.3-7.5,7.4-7.5c4.1,0,7.6,3.5,7.6,7.5s-3.5,7.5-7.5,7.6C273.1,26.2,269.8,22.8,269.6,18.6z
		"/>
	<path class="st1" d="M683.9,195.5c4.3,0,7.7,3.2,7.7,7.4c0.1,4.1-3.5,7.5-7.4,7.7c-4.1,0.1-7.5-3.5-7.7-7.5
		C676.6,199,679.7,195.5,683.9,195.5z"/>
	<path class="st1" d="M337.4,724.9c-0.2,4.3-3.5,7.5-7.6,7.4c-4.2,0-7.5-3.4-7.3-7.5c0-4.2,3.5-7.7,7.5-7.5
		C334.2,717.4,337.4,720.7,337.4,724.9z"/>
	<path class="st1" d="M716,358c0-4.2,3.4-7.4,7.5-7.4c4.1,0.1,7.4,3.6,7.4,7.6c-0.2,4.1-3.7,7.6-7.6,7.5
		C719.2,365.4,715.9,362.2,716,358z"/>
	<path class="st1" d="M47.1,195.5c4.2,0.2,7.4,3.5,7.2,7.7c0,4.1-3.5,7.4-7.5,7.4c-4.1-0.2-7.5-3.7-7.4-7.7
		C39.5,198.7,42.9,195.4,47.1,195.5z"/>
	<path class="st1" d="M478.4,23.4c0.2,4.3-3.1,7.5-7.3,7.5c-4.2,0-7.6-3.3-7.6-7.3c-0.1-4.2,3.5-7.7,7.5-7.7
		C475,15.8,478.4,19.2,478.4,23.4z"/>
	<path class="st1" d="M178.9,681.5c-4,0-7.6-3.5-7.7-7.5c0-4.1,3.4-7.6,7.5-7.6c4.2,0,7.5,3.4,7.5,7.5
		C186.4,677.8,182.9,681.4,178.9,681.5z"/>
	<path class="st1" d="M684.4,515.1c0-4.2,3.2-7.5,7.4-7.7c4.1,0,7.5,3.5,7.6,7.5c0,4.1-3.4,7.6-7.5,7.7
		C687.9,522.6,684.4,519.3,684.4,515.1z"/>
	<path class="st1" d="M319.7,722.4c0,4.2-3.2,7.6-7.4,7.6c-4,0.3-7.5-3.4-7.7-7.4c-0.1-4,3.5-7.5,7.5-7.6
		C316.2,715,319.5,718.3,319.7,722.4z"/>
	<path class="st1" d="M20.3,429.4c0,4.2-3.1,7.5-7.3,7.5c-4.2,0.2-7.5-3.3-7.5-7.4c-0.2-4.1,3.4-7.6,7.4-7.6
		C16.9,421.9,20.3,425.2,20.3,429.4z"/>
	<path class="st1" d="M706.3,498.3c0,4.2-3.3,7.5-7.4,7.6c-3.9,0.2-7.5-3.3-7.6-7.5c-0.1-4,3.2-7.5,7.4-7.5
		C702.8,490.8,706.2,494.1,706.3,498.3z"/>
	<path class="st1" d="M32.5,490.9c4.2,0.1,7.5,3.8,7.2,7.8c-0.2,4.1-3.8,7.5-7.8,7.2c-4.2-0.2-7.3-3.7-7.2-7.9
		C24.9,494,28.4,490.8,32.5,490.9z"/>
	<path class="st1" d="M7.5,383.5C3.4,383.5,0,380,0,376c0.1-4.1,3.6-7.6,7.6-7.5c4.1,0,7.4,3.5,7.4,7.6
		C15,380.3,11.6,383.6,7.5,383.5z"/>
	<path class="st1" d="M720.8,419.2c-4.2,0-7.5-3.2-7.5-7.4c0-4.3,3.4-7.5,7.5-7.5c4.1,0,7.5,3.3,7.5,7.5
		C728.3,415.8,724.9,419.2,720.8,419.2z"/>
	<path class="st1" d="M17.7,411.7c0,4.3-3.3,7.5-7.4,7.5c-4.2,0-7.5-3.3-7.5-7.5c0-4.1,3.4-7.5,7.5-7.5
		C14.4,404.2,17.7,407.5,17.7,411.7z"/>
	<path class="st1" d="M15,358.1c0,4.2-3.4,7.5-7.4,7.5c-4.1,0-7.5-3.5-7.5-7.6c0.1-4.1,3.5-7.4,7.6-7.4C11.7,350.6,15,354,15,358.1z
		"/>
	<path class="st1" d="M418.8,715.1c4.2,0,7.6,3.5,7.6,7.5c0,4-3.6,7.5-7.6,7.5c-4-0.1-7.5-3.5-7.5-7.6S414.6,715.1,418.8,715.1z"/>
	<path class="st1" d="M567.3,671.7c-4.2,0-7.5-3.5-7.5-7.4c0-4.2,3.4-7.5,7.5-7.7c3.9,0,7.5,3.6,7.5,7.6
		C574.8,668.1,571.3,671.7,567.3,671.7z"/>
	<path class="st1" d="M383.3,0.5c4.2,0,7.6,3.5,7.6,7.4c-0.2,4.2-3.5,7.5-7.6,7.5c-4.3,0-7.5-3.4-7.5-7.5
		C375.9,3.7,379.1,0.5,383.3,0.5z"/>
	<path class="st1" d="M347.5,0.5c4.2,0,7.6,3.2,7.6,7.4s-3.1,7.5-7.4,7.6c-4,0.1-7.5-3.3-7.7-7.4C340,4.1,343.5,0.5,347.5,0.5z"/>
	<path class="st1" d="M375.9,726.3c-0.1-4.2,3.1-7.5,7.4-7.5c4-0.3,7.5,3.1,7.7,7.3c0,4.1-3.3,7.5-7.5,7.6
		C379.4,733.7,375.9,730.5,375.9,726.3z"/>
	<path class="st1" d="M355.1,726.6c-0.2,4.2-3.7,7.2-7.8,7c-4.2-0.2-7.4-3.7-7.1-7.8c0.2-4.2,3.8-7.5,7.9-7.1
		C352.3,718.9,355.2,722.4,355.1,726.6z"/>
	<path class="st1" d="M675.6,554.3c-4.2,0-7.4-3.2-7.4-7.4c0-4.2,3.3-7.5,7.4-7.5c4-0.1,7.5,3.4,7.5,7.4
		C683.2,550.9,679.7,554.3,675.6,554.3z"/>
	<path class="st1" d="M62.9,546.8c0,4.2-3.3,7.5-7.5,7.5c-4.1,0.1-7.5-3.3-7.5-7.4c-0.1-4.1,3.4-7.5,7.5-7.5
		C59.5,539.3,62.9,542.7,62.9,546.8z"/>
	<path class="st1" d="M718.2,437c-4.2,0-7.5-3.3-7.5-7.4c0-4.2,3.1-7.6,7.3-7.6c4.1-0.1,7.5,3.5,7.5,7.5
		C725.5,433.5,722.3,436.9,718.2,437z"/>
	<path class="st1" d="M684.2,538.5c-4.2,0-7.6-3.3-7.6-7.5s3.5-7.5,7.5-7.5c4.1-0.1,7.6,3.4,7.6,7.5
		C691.6,535.2,688.2,538.5,684.2,538.5z"/>
	<path class="st1" d="M17.7,322.2c0,4.2-3.4,7.7-7.4,7.7c-4.1,0-7.5-3.5-7.5-7.5c-0.1-4.2,3.3-7.5,7.5-7.5
		C14.4,314.9,17.6,318,17.7,322.2z"/>
	<path class="st1" d="M713.3,322.2c0.1-4.2,3.4-7.5,7.5-7.3c4.2,0.1,7.6,3.5,7.5,7.6c-0.1,4.1-3.5,7.5-7.6,7.4
		C716.5,329.7,713.3,326.4,713.3,322.2z"/>
	<path class="st1" d="M16.4,439.6c4.1-0.1,7.5,3.3,7.5,7.5c0.2,4-3.3,7.5-7.4,7.5c-3.9,0.1-7.5-3.2-7.5-7.4
		C8.9,443,12.1,439.6,16.4,439.6z"/>
	<path class="st1" d="M156.7,653.5c0.1,4.3-3,7.5-7.3,7.6c-4.2,0-7.4-3.1-7.6-7.3c-0.2-4,3.3-7.7,7.3-7.7
		C153.3,646,156.7,649.4,156.7,653.5z"/>
	<path class="st1" d="M581.6,661.1c-4.2,0-7.4-3.4-7.4-7.5c0-4.1,3.4-7.5,7.5-7.5c4.1,0,7.5,3.6,7.5,7.7
		C589.2,657.8,585.9,661.1,581.6,661.1z"/>
	<path class="st1" d="M722,447.1c0,4.2-3.4,7.5-7.5,7.4c-4.1,0-7.5-3.5-7.5-7.5c0-4.1,3.4-7.5,7.5-7.5
		C718.8,439.6,722,442.9,722,447.1z"/>
	<path class="st1" d="M511.9,35.8c0,4.2-3.3,7.5-7.4,7.4c-4,0-7.5-3.5-7.5-7.6s3.5-7.5,7.5-7.5C508.7,28.2,512,31.4,511.9,35.8z"/>
	<path class="st1" d="M24.7,235.8c0-4.2,3.3-7.5,7.4-7.7c4,0,7.5,3.5,7.6,7.4c0.1,4.1-3.4,7.6-7.4,7.7
		C28.1,243.2,24.8,240.1,24.7,235.8z"/>
	<path class="st1" d="M372.9,7.6c0,4.2-3.5,7.5-7.5,7.4c-4.1-0.1-7.4-3.5-7.3-7.6c0-4.2,3.4-7.5,7.5-7.4S373,3.4,372.9,7.6z"/>
	<path class="st1" d="M16.4,294.6c-4.2-0.1-7.4-3.4-7.4-7.7c0-4.1,3.5-7.5,7.5-7.5c4.2,0.2,7.6,3.6,7.4,7.7
		C23.8,291.3,20.4,294.6,16.4,294.6z"/>
	<path class="st1" d="M714.6,294.6c-4.1,0-7.5-3.3-7.5-7.5c-0.1-4.1,3.3-7.5,7.5-7.7c4.1-0.1,7.5,3.4,7.5,7.5
		C722,291.2,718.8,294.5,714.6,294.6z"/>
	<path class="st1" d="M656.3,569.3c4.2,0.2,7.5,3.5,7.4,7.7c-0.2,4.2-3.5,7.5-7.6,7.5c-4-0.1-7.3-3.6-7.3-7.8
		C648.8,572.6,652.2,569.3,656.3,569.3z"/>
	<path class="st1" d="M511.9,698.4c0.1,4.2-3.2,7.5-7.4,7.5c-4,0-7.5-3.3-7.5-7.5c-0.1-4,3.5-7.5,7.5-7.5
		C508.7,690.8,511.9,694.1,511.9,698.4z"/>
	<path class="st1" d="M46.6,219.1c0,4.3-3.3,7.5-7.4,7.5c-4.2,0.1-7.5-3.4-7.6-7.4c0-4.1,3.5-7.5,7.5-7.5
		C43.2,211.6,46.6,215,46.6,219.1z"/>
	<path class="st1" d="M156.7,80.5c0,4.2-3.5,7.5-7.5,7.5c-4.1-0.2-7.5-3.6-7.4-7.6c0-4.2,3.5-7.5,7.6-7.3
		C153.6,73.1,156.7,76.4,156.7,80.5z"/>
	<path class="st1" d="M574.3,80.3c0-4.2,3.3-7.5,7.5-7.3c4.2,0,7.5,3.4,7.5,7.5c0,4-3.5,7.5-7.5,7.5C577.6,88,574.3,84.5,574.3,80.3
		z"/>
	<path class="st1" d="M603.1,91.5c0,4.2-3.4,7.5-7.5,7.5c-4.1,0-7.5-3.4-7.5-7.4c0-4.1,3.4-7.5,7.5-7.5
		C599.8,84.1,603.1,87.3,603.1,91.5z"/>
	<path class="st1" d="M46.6,514.8c0,4.2-3.3,7.6-7.4,7.7c-4.1,0-7.5-3.4-7.6-7.5c0-4.1,3.4-7.5,7.5-7.7
		C43.2,507.4,46.5,510.7,46.6,514.8z"/>
	<path class="st1" d="M603.1,642.5c0,4.1-3.3,7.4-7.5,7.4c-4.2,0-7.5-3.3-7.5-7.4c0-4,3.5-7.5,7.5-7.5
		C599.8,634.9,603.1,638.3,603.1,642.5z"/>
	<path class="st1" d="M127.8,642.3c0.2-4.1,3.6-7.5,7.7-7.4c4,0.1,7.5,3.7,7.3,7.7c-0.1,4.1-3.5,7.3-7.6,7.3
		C131,649.9,127.7,646.5,127.8,642.3z"/>
	<path class="st1" d="M698.6,243.2c-4.1-0.1-7.5-3.6-7.4-7.7c0-4,3.6-7.4,7.6-7.4c4.1,0.2,7.4,3.5,7.4,7.7
		C706.2,240.1,702.9,243.2,698.6,243.2z"/>
	<path class="st1" d="M621.8,625.6c-4.2,0-7.5-3.3-7.5-7.5c0-4.1,3.4-7.5,7.5-7.5c4.2,0.1,7.5,3.5,7.5,7.5
		C629.3,622.2,626,625.6,621.8,625.6z"/>
	<path class="st1" d="M226.4,705.8c-4.2,0-7.5-3.4-7.5-7.5c0-4.2,3.4-7.5,7.5-7.5c3.9,0,7.4,3.5,7.4,7.5
		C233.9,702.6,230.4,705.9,226.4,705.8z"/>
	<path class="st1" d="M109.1,625.6c-4.2,0-7.5-3.4-7.5-7.5c0-4.2,3.5-7.5,7.7-7.5c3.9,0,7.3,3.5,7.3,7.6
		C116.7,622.3,113.3,625.6,109.1,625.6z"/>
	<path class="st1" d="M663.7,157.2c0,4.2-3.3,7.5-7.5,7.5c-4.2,0-7.4-3.5-7.4-7.5c0.1-4.1,3.5-7.5,7.5-7.5
		C660.5,149.7,663.8,153,663.7,157.2z"/>
	<path class="st1" d="M74.5,164.6c-4.2-0.1-7.4-3.6-7.2-7.8c0.2-4.2,3.6-7.4,7.7-7.2c4.2,0.1,7.4,3.7,7.2,7.8
		C82,161.6,78.7,164.9,74.5,164.6z"/>
	<path class="st1" d="M645.6,150.3c-4.2,0.2-7.5-3.3-7.7-7.3c0-4.2,3.3-7.6,7.4-7.6c4.2-0.1,7.6,3.3,7.7,7.4
		C653,146.9,649.7,150.3,645.6,150.3z"/>
	<path class="st1" d="M645.3,598.7c-4.2,0-7.4-3.5-7.4-7.5c0.2-4.2,3.5-7.5,7.6-7.5c4.2,0.1,7.5,3.5,7.5,7.7
		C652.9,595.4,649.5,598.7,645.3,598.7z"/>
	<path class="st1" d="M75.1,569.3c4.1,0.4,7.4,3.9,7,7.9c-0.2,4.2-3.8,7.5-7.7,7.3c-4.2-0.4-7.3-3.8-7.1-8
		C67.6,572.4,71.1,569.2,75.1,569.3z"/>
	<path class="st1" d="M621.8,108.5c4.2,0,7.5,3.4,7.5,7.5c0,4-3.5,7.5-7.5,7.5c-4.1,0-7.5-3.4-7.5-7.4
		C614.3,111.8,617.6,108.5,621.8,108.5z"/>
	<path class="st1" d="M127.8,91.5c0-4.2,3.5-7.4,7.5-7.4c4.1,0,7.5,3.4,7.5,7.5c0,4.2-3.5,7.4-7.5,7.4
		C131.1,99,127.8,95.7,127.8,91.5z"/>
	<path class="st1" d="M219,35.5c0.1-4.2,3.5-7.5,7.6-7.4c4.1,0.2,7.4,3.6,7.3,7.8c-0.2,4.1-3.6,7.5-7.6,7.3
		C222.1,43.2,218.8,39.7,219,35.5z"/>
	<path class="st1" d="M301.9,719.5c0.1,4.2-3.2,7.5-7.4,7.5c-4.1,0-7.5-3.3-7.5-7.5c-0.1-4,3.4-7.5,7.4-7.5
		C298.7,711.9,301.9,715.3,301.9,719.5z"/>
	<path class="st1" d="M443.9,719.7c-0.2,4.2-3.5,7.4-7.6,7.2c-4.2-0.1-7.3-3.5-7.2-7.6c0-4.2,3.5-7.5,7.6-7.4
		C440.9,712,444,715.6,443.9,719.7z"/>
	<path class="st1" d="M372.9,726.6c0,4.2-3.4,7.5-7.5,7.5c-4.2-0.1-7.4-3.4-7.4-7.5c0-4.2,3.3-7.5,7.5-7.5
		C369.7,719.2,373,722.4,372.9,726.6z"/>
	<path class="st1" d="M616.4,630.6c0,4.3-3.3,7.5-7.5,7.5c-4.2,0-7.3-3.3-7.5-7.5c0-4.1,3.5-7.4,7.5-7.4
		C613.1,623.1,616.4,626.5,616.4,630.6z"/>
	<path class="st1" d="M28.2,464.5c0,4.2-3.3,7.4-7.5,7.4c-4,0-7.3-3.4-7.2-7.5c0-4.2,3.5-7.5,7.5-7.5
		C25.1,456.9,28.4,460.3,28.2,464.5z"/>
	<path class="st1" d="M717.5,464.4c0,4.2-3.3,7.5-7.5,7.5c-4.2,0-7.3-3.3-7.3-7.5c0-4.2,3.3-7.5,7.5-7.5
		C714.2,456.9,717.5,460.2,717.5,464.4z"/>
	<path class="st1" d="M85.7,598.7c-4.2,0-7.6-3.4-7.7-7.5c0-4.1,3.4-7.5,7.5-7.5c4.3,0,7.5,3.5,7.7,7.5
		C93.1,595.3,89.7,598.7,85.7,598.7z"/>
	<path class="st1" d="M666.2,569.6c-4.2,0-7.5-3.3-7.5-7.5c0.1-4.2,3.4-7.5,7.5-7.4c4.2,0,7.5,3.4,7.5,7.5
		C673.7,566.3,670.4,569.7,666.2,569.6z"/>
	<path class="st1" d="M294.6,7.1c4.2,0,7.5,3.5,7.4,7.7c0,4-3.5,7.4-7.5,7.4c-4.1-0.2-7.4-3.6-7.4-7.7
		C287.1,10.4,290.5,7.1,294.6,7.1z"/>
	<path class="st1" d="M429.1,14.5c0-4.2,3.5-7.5,7.5-7.4c4.4,0.1,7.5,3.5,7.4,7.7c0,4-3.5,7.5-7.5,7.4C432.1,22,429,18.6,429.1,14.5
		z"/>
	<path class="st1" d="M712.4,481.6c-0.1,4.2-3.4,7.4-7.5,7.4c-4.2-0.1-7.4-3.3-7.4-7.5c0-4.2,3.4-7.5,7.5-7.5
		C709,474,712.4,477.5,712.4,481.6z"/>
	<path class="st1" d="M26,489c-4.2-0.1-7.4-3.4-7.4-7.5c0-4.2,3.5-7.5,7.5-7.5c4.1,0,7.4,3.4,7.4,7.5C33.5,485.8,30.3,489,26,489z"
		/>
	<path class="st1" d="M26,245.1c4.2,0,7.5,3.3,7.5,7.5c0.1,4.1-3.2,7.5-7.4,7.5c-4.1,0.1-7.5-3.3-7.5-7.4
		C18.6,248.4,21.8,245.2,26,245.1z"/>
	<path class="st1" d="M697.5,252.3c0.1-4.2,3.3-7.3,7.5-7.3c4.1,0.1,7.4,3.5,7.4,7.6c-0.1,4.2-3.5,7.5-7.6,7.4
		C700.6,260,697.4,256.6,697.5,252.3z"/>
	<path class="st1" d="M85.4,150.3c-4.1,0-7.5-3.4-7.5-7.5c0.1-4.1,3.5-7.5,7.7-7.4c4.2,0,7.5,3.5,7.5,7.6
		C93,147,89.6,150.3,85.4,150.3z"/>
	<path class="st1" d="M730,394c-0.1,4.2-3.3,7.4-7.5,7.4c-4.1,0-7.4-3.3-7.4-7.5c0-4.2,3.4-7.5,7.5-7.5
		C726.7,386.4,730,389.8,730,394z"/>
	<path class="st1" d="M116.7,115.9c0,4-3.4,7.5-7.5,7.5c-4,0-7.5-3.5-7.5-7.4c0-4.2,3.4-7.5,7.5-7.5
		C113.3,108.5,116.7,111.8,116.7,115.9z"/>
	<path class="st1" d="M8.4,401.3c-4.3,0-7.5-3.2-7.5-7.5c0-4.2,3.4-7.5,7.5-7.5c4.1,0.1,7.4,3.5,7.4,7.6
		C15.9,398.2,12.5,401.4,8.4,401.3z"/>
	<path class="st1" d="M15.9,340.2c0,4.2-3.4,7.5-7.5,7.5c-4.2-0.1-7.5-3.4-7.5-7.5c0-4.4,3.3-7.6,7.5-7.4
		C12.6,332.7,15.9,336,15.9,340.2z"/>
	<path class="st1" d="M715.1,340.3c0-4.3,3.2-7.5,7.4-7.5c4.3-0.2,7.4,3.1,7.5,7.3c0,4.2-3.3,7.6-7.4,7.7
		C718.5,347.7,715.1,344.5,715.1,340.3z"/>
	<path class="st1" d="M601.7,103.4c0-4.2,3.3-7.4,7.5-7.4c4.2,0,7.5,3.4,7.3,7.5c0,4.2-3.4,7.4-7.5,7.4
		C604.8,111,601.5,107.6,601.7,103.4z"/>
	<path class="st1" d="M717.5,269.6c0,4.2-3.3,7.6-7.3,7.7c-4.2,0-7.5-3.4-7.5-7.5c0-4.2,3.1-7.5,7.3-7.5
		C714.3,262.1,717.5,265.6,717.5,269.6z"/>
	<path class="st1" d="M72.2,562.1c0,4.2-3.3,7.5-7.4,7.5c-4.2,0.1-7.5-3.2-7.6-7.4c0-4.2,3.3-7.5,7.3-7.5
		C68.9,554.6,72.1,557.9,72.2,562.1z"/>
	<path class="st1" d="M129.5,630.6c0,4.3-3.3,7.5-7.5,7.5c-4.2,0-7.5-3.3-7.5-7.5s3.3-7.5,7.3-7.5
		C126,623.1,129.3,626.4,129.5,630.6z"/>
	<path class="st1" d="M20.7,262.3c4.4-0.2,7.4,3.1,7.4,7.3c0,4.2-3.3,7.6-7.3,7.7c-4.1,0-7.5-3.4-7.5-7.5
		C13.4,265.6,16.6,262.3,20.7,262.3z"/>
	<path class="st1" d="M121.8,96c4.3,0,7.5,3.2,7.5,7.4c0.2,4.2-3.1,7.6-7.3,7.6c-4.1,0-7.5-3.3-7.5-7.4
		C114.6,99.4,117.7,96,121.8,96z"/>
	<path class="st1" d="M72.2,172.1c-0.1,4.2-3.5,7.5-7.7,7.4c-4-0.1-7.5-3.5-7.3-7.7c0.1-4.2,3.5-7.3,7.6-7.2
		C69.1,164.6,72.2,167.8,72.2,172.1z"/>
	<path class="st1" d="M666.2,164.5c4.2-0.1,7.5,3.3,7.5,7.4c0,4.2-3.3,7.5-7.5,7.5c-4.2,0-7.4-3.3-7.5-7.5
		C658.8,167.8,661.9,164.5,666.2,164.5z"/>
	<path class="st1" d="M194.3,690.3c-4.2,0-7.5-3.3-7.5-7.4c0-4.3,3.4-7.5,7.5-7.5c4.1,0,7.4,3.3,7.4,7.5
		C201.8,687,198.4,690.3,194.3,690.3z"/>
	<path class="st1" d="M97,597.5c4.3,0,7.5,3.3,7.5,7.4c0,4.2-3.3,7.5-7.4,7.5c-4.2,0-7.5-3.3-7.5-7.5
		C89.6,600.9,92.9,597.5,97,597.5z"/>
	<path class="st1" d="M194.4,43.8c4.1,0,7.4,3.4,7.4,7.5c0,4.1-3.4,7.4-7.5,7.4c-4.2,0-7.5-3.3-7.5-7.4
		C186.8,47.1,190.2,43.7,194.4,43.8z"/>
	<path class="st1" d="M544.1,682.9c0,4.3-3.3,7.4-7.5,7.4c-4.1,0-7.4-3.5-7.4-7.5c0.1-4.2,3.5-7.4,7.7-7.4
		C541.1,675.5,544.2,678.7,544.1,682.9z"/>
	<path class="st1" d="M641.4,605.1c0,4.2-3.3,7.5-7.5,7.5c-4.2-0.1-7.5-3.4-7.5-7.5c0.1-4.2,3.3-7.4,7.5-7.4
		C638.2,597.5,641.4,600.9,641.4,605.1z"/>
	<path class="st1" d="M104.5,129.1c0,4.3-3.3,7.5-7.5,7.5c-4.2,0-7.4-3.4-7.4-7.5c0.1-4.2,3.3-7.3,7.4-7.4
		C101.2,121.7,104.5,124.9,104.5,129.1z"/>
	<path class="st1" d="M544.1,51.3c0,4.2-3.3,7.4-7.5,7.4s-7.5-3.4-7.5-7.4c0.1-4.2,3.4-7.5,7.5-7.5
		C540.9,43.8,544.1,47.2,544.1,51.3z"/>
	<path class="st1" d="M634,121.7c4.3,0,7.5,3.3,7.5,7.5c0,4.2-3.4,7.4-7.5,7.4c-4.1,0-7.3-3.3-7.4-7.4
		C626.5,125,629.7,121.8,634,121.7z"/>
	<path class="st1" d="M642.7,438.6c-3.5,1.9-6.8,3.7-10.1,5.6c-3.6,1.9-6.4,1.5-7.6-1.3c-1.4-2.5-0.3-5.2,3.1-7.1
		c4.3-2.3,8.4-5,12.6-6.9c4-1.6,4.8-4.6,5.1-8.6c-5.4-0.7-10.4-3.5-16.4-2.5c0.8-3.7,1.8-7.7,2.6-11.4c1.6,0.8,3,1.8,4.5,2.1
		c11.5,2.7,23.2,5.4,34.8,8.1c0.5,0.1,1.3,0.3,2.2,0.6c-0.5,2.4-0.9,4.9-1.5,7.4c-1,4.4-1.7,9.3-3.3,13.6c-1.2,3.5-2.9,6.9-5,9.8
		c-2.7,3.6-6.7,5.5-11.4,4.5c-4.5-1.1-7.1-4.5-8.4-8.7C643.4,442.2,643,440.6,642.7,438.6z M654.9,422.4c-0.9,5.5-1.8,10.8-2.4,16.3
		c-0.3,1.4,1.1,2.9,1.9,4.5c1.1-0.9,3-1.7,3.5-2.9c1.8-5.3,3.3-10.5,5-16.1C659.9,423.6,657.7,423,654.9,422.4z"/>
	<path class="st1" d="M177.1,173.9c-0.9-1.7-1.4-3.2-2.3-4.2c-7.4-8.9-14.9-17.8-22.3-26.7c-0.7-1.1-1.5-1.9-2.4-3
		c5.9-4.8,11.3-9.9,17.3-14.1c3.2-2.3,7.4-4.1,11.3-4.6c8.7-1,14.2,6.3,11.5,14.7c-0.5,1.9-1.5,3.5-2.4,5.7
		c3.9,0.5,7.8,1.3,11.6,1.8c3.7,0.4,5.6,2.5,5.2,5.5c-0.5,2.9-2.8,4.4-6.5,3.8c-4.6-0.7-9.4-1-13.9-2.2c-4.2-1.1-7.1,0.4-9.6,3.4
		c2.7,5,8.7,11.4,11.6,12.1C183.1,168.8,180,171.5,177.1,173.9z M168.5,147.4c4.2-4.2,8.3-8,12-12.2c0.8-0.9,0.5-2.8,0.8-4.2
		c-1.5,0-3.3-0.5-4.3,0.1c-4.8,3.1-9.2,6.4-13.9,9.8C165,143.3,166.5,145,168.5,147.4z"/>
	<path class="st1" d="M640.9,482.1c-9.4-4.3-18-8.2-26.9-12.4c1.5-3.3,3.1-6.4,4.4-9.4c1.5,1.2,2.7,2.4,4.1,3
		c10.1,4.7,20.1,9.4,30.2,13.9c1.4,0.6,2.8,0.7,4.7,1.2c-1.1,2.6-2.4,5.6-3.8,8.6c-0.4,0.6-1.9,1-2.8,1.2c-10,1.8-19.8,3.6-29.7,5.5
		c-0.8,0.3-1.7,0.4-3,0.8c9,4.3,17.5,8.2,26.4,12.3c-1.6,3.4-3,6.6-4.4,9.7c-1.3-1.1-2.2-2.4-3.3-2.9c-10.4-4.9-20.9-9.6-31.3-14.4
		c-1.3-0.5-2.7-0.7-4.5-1c1.2-2.6,2.4-5.7,4-8.4c0.4-0.8,1.8-1.2,2.6-1.4C618.3,486.3,629.2,484.4,640.9,482.1z"/>
	<path class="st1" d="M93.9,290.9c-10-2.5-19.3-4.7-28.9-7c0.9-3.6,1.7-7,2.5-10.2c1.5,0.8,2.7,1.8,4.2,2.2
		c10.9,2.7,21.7,5.4,32.7,8c1.5,0.2,3,0,4.7,0c-0.5,2.7-1,5.7-1.9,8.7c-0.4,1-1.7,1.7-2.8,2.2c-9.3,3.9-18.6,7.4-28.1,11.2
		c-0.7,0.3-1.4,0.7-2.8,1.4c9.8,2.4,18.9,4.6,28.4,6.9c-0.9,3.7-1.7,7-2.5,9.9c-1.7-0.7-3.4-1.6-5.2-2.1
		c-10.4-2.6-20.7-5.1-31.2-7.5c-1.6-0.4-3.5-0.2-5.5-0.2c0.6-2.8,1.2-5.9,2.1-9.1c0.4-0.9,1.7-1.6,2.7-2
		C72.7,299.2,82.9,295.1,93.9,290.9z"/>
	<path class="st1" d="M241.6,119.5c-1.5,3-2.4,6.3-4.4,8.6c-4.9,6-11.5,9.4-19,11.1c-4.3,0.8-7.4-0.9-8.5-4.7
		c-0.9-2.4-0.4-4.7,1.6-5.7c1.5-0.8,3.6-0.3,5.5-0.2c0.6,0,1.5,0.9,1.9,0.6c4-2.4,8-4.8,11.7-7.5c0.8-0.5,1.3-2.7,0.8-3.3
		c-0.5-0.7-2.3-1.4-3.3-1.3c-2.4,0.6-4.6,1.5-6.7,2.5c-4.2,2.1-8.5,3.6-13.3,2.9c-7.5-1.3-11.7-8.2-8.9-15.3
		c1.1-2.6,2.8-5.5,5.1-7.1c4.7-3.3,9.9-6.2,15.4-8.4c5.2-2,9.7,0.5,10,5.1c0.2,1.6-0.7,4.1-2,5c-1,0.9-3.4,0.2-5.1,0.1
		c-0.8-0.1-1.9-0.9-2.4-0.5c-3.7,2.3-7.5,4.6-11.2,7.1c-0.8,0.7-1.3,2.7-0.9,3.5c0.4,0.7,2.4,1.2,3.4,1.1c2.2-0.5,4.4-1.4,6.4-2.4
		c4-2,8-3.4,12.5-3.1C236.5,108.5,240.9,113.2,241.6,119.5z"/>
	<path class="st1" d="M121.8,516.5c4.6-3.3,10.2-4.9,14.1-9.2c1.8,3.1,3.7,6.6,5.7,10c-1.7,0.4-3.5,0.6-4.8,1.5
		c-9.9,5.4-19.8,10.9-29.6,16.5c-1.2,0.7-1.8,1.9-3,3.2c-1.9-3.3-3.8-6.9-5.8-10.4c6.1-0.4,9.9-5,15.4-7
		c-3.5-6.3-6.8-12.1-10.3-18.5c-4.6,3.2-10.1,4.9-14.2,9.2c-1.7-3.2-3.7-6.5-5.5-9.8c1.5-0.5,3.1-0.6,4.3-1.3
		c9.9-5.5,19.8-11.2,29.6-16.8c1.3-0.6,2.2-1.9,3.5-3c1.7,3.1,3.7,6.6,5.6,10c-6,0.8-10.1,4.9-15.4,7.1
		C115,504.4,118.3,510.1,121.8,516.5z"/>
	<path class="st1" d="M459.1,85.1c-0.1,11.9-9.9,21.7-21.7,21.4c-11.8-0.1-21.4-9.9-21.3-21.7c0.1-11.7,9.9-21.5,21.6-21.4
		C449.5,63.4,459.2,73.3,459.1,85.1z M437.7,72.8c-6.6-0.1-12.1,5.4-12.4,12c-0.1,6.7,5.5,12.4,12.4,12.4c6.6,0,12-5.4,12-12.2
		C449.7,78.2,444.4,72.9,437.7,72.8z"/>
	<path class="st1" d="M64.5,449.4c3.7-1.3,6.9-2.3,10-3.3c0.1,1.7-0.1,3.3,0.3,4.6c1.8,5.7,3.7,11.5,5.8,17.5
		c2.4-0.8,4.4-1.5,7.1-2.3c-1.7-5-3.2-10-4.8-15c2.8-1.1,5.6-2,8.6-3c1.7,4.9,3.3,9.8,5.1,14.9c2.4-0.8,4.6-1.5,7.3-2.4
		c-3.1-7-4-14.6-8.3-21.4c2.8-0.9,6.1-2,9.7-3.3c3.6,10.8,7.1,21.5,10.4,31.8c-1.8,0.3-3.5,0-4.9,0.6c-10.5,3.3-21,6.7-31.5,10.4
		c-1.4,0.5-2.7,1.5-4.4,2.4C71.7,470.9,68.1,460.3,64.5,449.4z"/>
	<path class="st1" d="M115.9,179.1c6.8-8.3,14-16.8,21.3-25.5c3,2.5,5.6,4.8,8.1,6.8c-1.6,1.1-3,1.9-4.1,3
		c-3.8,4.5-7.5,9.1-11.5,13.8c1.9,1.7,3.7,3.2,5.7,4.9c3.4-4.1,6.6-8,10.1-12.1c2.4,1.9,4.5,3.8,7.3,5.9c-3.5,4.1-6.7,7.9-10.2,12.1
		c1.9,1.6,3.5,3.1,5.7,5c4.5-6.2,10.3-11.1,14-18.3c2.3,1.9,4.8,4.2,7.8,6.5c-7.3,8.6-14.4,17.3-21.4,25.6c-1.1-1.5-1.9-3-3.1-4
		c-8.4-7.1-16.9-14.2-25.3-21.4C119,180.7,117.5,180,115.9,179.1z"/>
	<path class="st1" d="M676.8,373.1c0.1,12-9.4,21.7-21.4,21.7c-11.7,0-21.4-9.8-21.4-21.7c0-11.8,9.6-21.5,21.4-21.5
		C667.4,351.5,676.8,361.3,676.8,373.1z M667.6,373.5c0.1-6.8-5-12.3-11.7-12.4c-6.8-0.3-12.4,5-12.6,11.9
		c-0.2,6.5,5.4,12.2,11.9,12.4C661.8,385.5,667.4,380.1,667.6,373.5z"/>
	<path class="st1" d="M618.3,184.1c3,4.3,6.2,9,9.1,13.3c-1.4,1.3-2.5,2.1-3.4,3.1c-6.8,8.9-13.5,17.8-20.3,26.9
		c-1.4,1.9-2.3,4-3.6,6.4c-2.1-3-4.4-6.4-6.7-9.9c2.5-0.2,4.8-2.6,8.6-8.3c-2.9-4.3-5.9-8.7-9-13.2c-0.4-0.5-0.6-0.9-1.1-1.1
		c-1.5-0.5-9.4,3.4-10.3,5.2c-2.5-3.5-4.9-6.9-7.4-10.6c6.2,1.4,11.3-1.8,16.7-3.2c7.9-1.9,15.6-4.4,23.5-6.6
		C615.8,185.5,616.8,184.7,618.3,184.1z M607.6,207.3c3.5-4.4,6.3-8.3,9.9-12.9c-5.7,1.6-10.4,2.9-15.5,4.5
		C604,201.9,605.7,204.4,607.6,207.3z"/>
	<path class="st1" d="M605.1,567c-3.4,4-7.1,8.3-10.4,12.2c-1.6-1-2.6-2-3.9-2.5c-10.5-4.6-21.3-9-32-13.4c-1.8-0.7-3.9-1-6.1-1.5
		c2.5-2.7,5.1-5.7,7.6-8.8c2.6,3.5,6.4,4.4,9.9,6c0.3,0.1,1.2-0.8,1.6-1.4c3.4-3.8,6.7-7.6,10.4-11.8c-2.4-3-3.3-7.2-7.5-9.3
		c2.5-2.9,5.3-6.1,7.8-8.9c0.8,2.4,1.3,4.5,2.5,6.3c5.6,10.1,11.5,20,17.4,29.8C603.1,564.9,604.2,565.8,605.1,567z M580.1,562.5
		c5,2.1,9.5,3.9,14,5.8c0.2-0.2,0.2-0.5,0.4-0.6c-2.5-4.2-5-8.4-7.6-12.9C584.5,557.5,582.3,559.9,580.1,562.5z"/>
	<path class="st1" d="M53.2,373.1c0.3-3.8,0.5-7.6,0.5-11.3c2.2,0.4,4,1,5.9,1.3c5.6,0.2,11.3,0.5,17.1,0.5
		c5.3,0.1,9.2-2.5,10.7-6.9c2-5.8-1.4-12.3-7.8-13.2c-7.3-1-14.5-1.2-21.9-1.5c-0.8,0-1.7,0.6-2.6,1c0-3.8,0-7.8,0-11.5
		c2.1,0.4,3.7,1,5.5,1.3c6.5,0.5,12.9,0.4,19.4,1.3c10.9,1.5,18.2,10.4,17.3,20.6C96.4,365.4,88.1,373,77,373
		c-6.5,0-12.7-0.5-19.1-0.6C56.5,372.4,55.1,372.8,53.2,373.1z"/>
	<path class="st1" d="M591.1,171.7c-2.8-3.6-7.1-5.6-7.4-11.4c-0.2-6.1-6.9-10.7-12.8-10.1c-6.4,0.8-11.4,6.3-11.1,12.7
		c0.2,6.3,5.2,11.3,11.5,11.7c1.5,0.1,3.1,1,4.4,1.9c2,1.4,3.7,3.2,5.6,4.9c-8.9,5-20.5,2.1-26.6-6.2c-6.4-8.7-5.5-20.6,2.3-28.2
		c7.7-7.6,19.7-8.3,28.2-1.7C593.1,151.8,595.9,163.4,591.1,171.7z"/>
	<path class="st1" d="M663.4,315.5c-3.3,0.5-6,0.9-9.1,1.4c0.8,6.4,1.7,12.6,2.6,19.2c-3,0.5-5.9,0.9-9.1,1.4
		c-0.9-6.4-1.9-12.4-3-19.1c-4.8,1.1-9.9,0.2-14.5,3.5c-0.6-3.9-1.3-7.9-1.8-11.7c1.7,0.2,3.1,0.7,4.4,0.5
		c10.9-1.5,21.9-3.2,32.7-4.8c1.7-0.4,3.3-1.1,5.3-1.7c1.6,10.4,3.3,21.4,5.1,32.8c-3.5,0.5-7,1.1-10.4,1.6c0.2-1.6,0.6-2.8,0.5-4
		C665.3,328.2,664.3,322.1,663.4,315.5z"/>
	<path class="st1" d="M482.5,76.6c9.8,4.6,19.9,9.4,30.3,14.3c-1.7,3.4-3.2,6.5-4.5,9.4c-1.4-1-2.4-2.3-3.6-2.9
		c-5.4-2.6-10.8-5.2-16.5-7.9c-1.4,2.9-2.6,5.5-4,8.4c5.9,2.8,11.5,5.5,17.5,8.4c-1.4,2.8-2.6,5.5-4,8.4c-5.8-2.7-11.5-5.5-17.3-8
		c-3.5,5.4-5.7,11.3-5,14.1c-4-1.8-7.6-3.5-11-5.2c1.1-1.4,2.3-2.4,2.9-3.6c4.9-10.3,9.6-20.4,14.4-30.7
		C482.1,80,482.1,78.5,482.5,76.6z"/>
	<path class="st1" d="M82,235.2c1.4-2.4,2.3-4.8,3.7-6.6c0.8-0.9,2.4-1.1,3.7-1c10.9,0.7,21.8,1.5,33.2,2.3
		c-0.5-0.9-0.9-1.7-1.4-2.3c-5.7-8.4-11.4-16.7-17.4-24.7c-1.7-2.4-2-4.2-0.3-6.5c1.1-1.4,1.7-3,2.7-4.7
		c7.7,10.8,15.3,21.5,22.7,32.2c0.5,0.6,0.8,1.4,1.4,1.8c3.4,3.3,3.3,6.5,0.5,10.3c-1.5,2-2.5,2.9-5,2.7c-13.7-1-27.4-1.9-41.2-2.9
		C84,235.5,83.1,235.4,82,235.2z"/>
	<path class="st1" d="M265.1,81.5c-0.9-3.3-1.8-6.5-3-10.3c12.7-3.5,25.1-7,38-10.7c1,3.5,2,6.9,2.7,9.4c-4.8,1.1-9.5,2.3-14.2,3.3
		c0.3,6.1,7.8,30.6,10.1,32.5c-4,1.1-7.8,2.3-11.5,3.3c0-1.8,0.1-3.5-0.2-5.1c-2.5-9.2-5.1-18.3-7.8-27.9
		C274.5,78,269.3,77.8,265.1,81.5z"/>
	<path class="st1" d="M113.5,552.1c3.1-2.5,5.7-4.7,8.3-7c0.5,3.1,1.7,4.8,8.4,12.3c5.3-2.9,24.4-19.5,25.1-22.6
		c2.8,3.4,5.4,6.5,8.1,9.8c-1.5,0.3-2.5,0.4-3.4,0.5c-0.5,0.3-0.9,0.8-1.4,1.1c-7.4,6.2-14.6,12.4-22.3,18.8
		c3.8,3.4,5.5,8.4,10.8,10.5c-2.6,2.2-5.4,4.5-8.3,6.9C130.4,572.4,122.1,562.3,113.5,552.1z"/>
	<path class="st1" d="M644.3,226.2c1.3,3.1,2.6,6.2,4.1,9.6c-10.2,4.4-20.5,8.8-30.9,13.3c3.9,8,6.2,16.5,11,24.1
		c-2.4,1.2-5.6,2.5-9.1,4.1c-5-11.5-9.8-22.8-14.6-34.1c1.8-0.3,3.5-0.3,4.9-0.9c10.4-4.3,20.6-8.8,30.9-13.4
		C641.9,228.4,643,227.3,644.3,226.2z"/>
	<path class="st1" d="M343.1,98.2c-3.7,0.4-7.7,0.8-11,1.2c0-2.3,0-4,0-6.1c0.2-7-2.2-13.1-6.8-18.4c-2.2-2.5-3.6-5.3-5.5-7.8
		c-2.4-3.1-4.9-6-7.3-8.9c3.5-0.4,7.4-0.7,10.2-1.1c4.3,6,8.2,11.5,12.2,17.4c2.8-6.7,5.5-12.8,8.3-19.6c2.9-0.4,6.9-0.7,11.4-1.2
		c-5.7,5.5-6.6,13-10.1,19.1c-4,6.8-4.4,13.8-2.7,21.1C342,95.4,342.5,96.6,343.1,98.2z"/>
	<path class="st1" d="M74.1,256.2c1.4-3.5,2.9-7.3,4.3-10.9c1.4,1.1,2.5,2.2,3.7,2.7c10.4,4.3,20.6,8.4,31.1,12.5
		c1.5,0.7,3.2,0.7,4.9,1c-1.2,3.4-2.6,7.1-4.2,10.5c-1.6-1-3.3-2.4-5-3.2c-10.1-4.1-20.2-8-30.2-12C77.4,256.5,76,256.5,74.1,256.2z
		"/>
	<path class="st1" d="M621.6,285.9c1.8-0.1,3.5,0,5.1-0.5c10.6-3,21.2-6.2,31.6-9.4c1.6-0.5,2.9-1.5,4.5-2.3c1,3.5,2.2,7.4,3.3,11
		c-1.9,0.1-3.7,0-5.3,0.5c-10.5,2.9-21.2,6.1-31.6,9.2c-1.5,0.5-2.7,1.4-4.3,2.3C623.8,293.3,622.7,289.4,621.6,285.9z"/>
	<path class="st1" d="M265.8,116.6c-3.4,1.4-7,2.9-10.4,4.5c-0.4-2-0.4-3.6-1.2-5.3c-4.2-10.1-8.4-20.3-12.8-30.5
		c-0.6-1.3-1.7-2.4-2.7-3.8c3.3-1.5,7-3,10.4-4.5c0.4,1.9,0.4,3.6,0.9,4.9c4.3,10.4,8.6,20.4,13,30.6
		C263.6,113.8,264.8,115,265.8,116.6z"/>
	<path class="st1" d="M587.7,518.7c2-3.2,4.2-6.5,6.1-9.6c1.2,1.3,2.1,2.6,3.4,3.4c9.4,6.3,18.6,12.3,28,18.4
		c1.4,0.7,2.9,1.1,4.7,1.8c-2,3-4.2,6.4-5.3,8.1c-1.4-0.8-3.2-1.3-4.6-2.3c-9.3-6-18.5-12.1-27.8-18.1
		C591,519.6,589.3,519.3,587.7,518.7z"/>
	<path class="st1" d="M534.6,598.1c0-4.2,3.3-7.5,7.5-7.5s7.5,3.4,7.5,7.5c-0.1,4.2-3.4,7.5-7.5,7.5
		C537.9,605.6,534.5,602.2,534.6,598.1z"/>
	<path class="st1" d="M196.4,598.2c-0.1,4.1-3.5,7.5-7.5,7.4c-4.1-0.1-7.4-3.4-7.4-7.6c0.2-4.2,3.5-7.4,7.6-7.4
		C193.2,590.7,196.4,594.1,196.4,598.2z"/>
	<path class="st1" d="M78,412.5c-4.1,0.1-7.5-3.2-7.5-7.4s3.4-7.6,7.4-7.6c4.2,0,7.5,3.4,7.5,7.5C85.4,409.2,82.1,412.5,78,412.5z"
		/>
	<path class="st1" d="M531.8,135.9c-4.2,0-7.5-3.4-7.5-7.5c0-4.2,3.4-7.4,7.5-7.4c4.2,0.1,7.5,3.5,7.5,7.5
		C539.4,132.6,536,136,531.8,135.9z"/>
	<path class="st1" d="M390.6,76.1c0,4.4-3.2,7.7-7.4,7.7c-4.3-0.1-7.5-3.3-7.4-7.5c0-4.1,3.2-7.4,7.1-7.4
		C387.3,68.9,390.6,72,390.6,76.1z"/>
	<path class="st1" d="M480.3,151.4c-0.3,1.5-0.5,2.4-0.5,3.5c-22-1.8-43.8-3.5-65.8-5.3c0-1.2,0-2.2,0-3.6
		C436,147.7,458,149.6,480.3,151.4z"/>
	<path class="st1" d="M247.5,265.9c0-12.6,0-25,0-37.6c12.6,0,24.9,0,37.7,0c0,12.4,0,24.9,0,37.6
		C272.8,265.9,260.2,265.9,247.5,265.9z M251.1,231.9c0,10.2,0,20.3,0,30.5c10.1,0,20.2,0,30.4,0c0-10.2,0-20.3,0-30.5
		C271.2,231.9,261.2,231.9,251.1,231.9z"/>
	<path class="st1" d="M268.6,289c0-1.1,0-2,0-3.3c17.7,0,35.5,0,53.5,0c0,1.1,0,2,0,3.3C304.3,289,286.6,289,268.6,289z"/>
	<path class="st1" d="M275.7,404c0-1.2,0-2.1,0-3.1c20.3,0,40.3,0,60.5,0c0.3,0.9,0.4,1.8,0.4,3.1C316.2,404,296.1,404,275.7,404z"
		/>
	<path class="st1" d="M286.1,377.9c0,1,0,1.9,0,3.1c-12.9,0-25.8,0-38.9,0c-0.1-0.9-0.2-1.9-0.3-3.1
		C260.1,377.9,273,377.9,286.1,377.9z"/>
	<path class="st1" d="M282.9,392.6c-12.1,0-23.8,0-35.7,0c0-1.1,0-2,0-3.2c11.9,0,23.5,0,35.5,0
		C282.7,390.5,282.7,391.4,282.9,392.6z"/>
	<path class="st1" d="M329.2,412.3c0,1.3,0,2.2,0,3.5c-9.5,0-18.8,0-28.4,0c0-1.2,0-2.2,0-3.5C310.3,412.3,319.7,412.3,329.2,412.3z
		"/>
	<path class="st1" d="M279.4,334.9c0-1,0-2,0-3.1c9.5,0,18.8,0,28.3,0c0,1,0,2,0,3.1C298.3,334.9,288.9,334.9,279.4,334.9z"/>
	<path class="st1" d="M300.4,366.4c0,1.3,0,2.2,0,3.3c-10.5,0-21,0-31.8,0c0-1.1,0-2,0-3.3C279.2,366.4,289.7,366.4,300.4,366.4z"/>
	<path class="st1" d="M304.5,438.7c0-1.1,0-2.2,0-3.3c8.3,0,16.3,0,24.7,0c0,1,0,2,0,3.3C321,438.7,312.9,438.7,304.5,438.7z"/>
	<path class="st1" d="M297.1,427.1c-9.6,0-18.9,0-28.4,0c0-1,0-2,0-3.2c9.5,0,18.8,0,28.3,0C297,424.8,297,425.8,297.1,427.1z"/>
	<path class="st1" d="M286.6,392.5c0-1,0-1.9,0-3.1c9.4,0,18.7,0,28.3,0c0,1.1,0,2,0.2,3.1C305.4,392.5,296.1,392.5,286.6,392.5z"/>
	<path class="st1" d="M304.5,369.5c0-1.2,0-2.1,0-3.2c9.4,0,18.6,0,28.1,0c0.2,1,0.2,2,0.3,3.2C323.4,369.5,314.1,369.5,304.5,369.5
		z"/>
	<path class="st1" d="M247.2,335.1c0-1.2-0.1-2-0.2-3.3c7.2,0,14.1,0,21.2,0c0.1,1,0.3,2,0.3,3.3
		C261.2,335.1,254.5,335.1,247.2,335.1z"/>
	<path class="st1" d="M311.4,297.4c0,1,0,1.8,0,3c-8.3,0-16.4,0-24.8,0c0-0.9-0.2-1.7-0.3-3C294.7,297.4,302.8,297.4,311.4,297.4z"
		/>
	<path class="st1" d="M290.9,231.5c0-1.2,0-2.1,0-3.2c6.7,0,13.6,0,20.6,0c0,1,0,2,0,3.2C304.6,231.5,297.9,231.5,290.9,231.5z"/>
	<path class="st1" d="M311.6,251.3c0,1,0,2,0,3.2c-7,0-13.7,0-20.7,0c0-1.2,0-2,0-3.2C297.6,251.3,304.5,251.3,311.6,251.3z"/>
	<path class="st1" d="M289.8,343.3c0,1.3,0,2.2,0,3.2c-8.3,0-16.3,0-24.7,0c0-1,0-1.9,0-3.2C273.3,343.3,281.5,343.3,289.8,343.3z"
		/>
	<path class="st1" d="M311.8,277.4c0-1.1,0-2,0-3.2c8.1,0,16.2,0,24.4,0c0,1.1,0,2.1,0,3.2C328.2,277.4,320.1,277.4,311.8,277.4z"/>
	<path class="st1" d="M311.8,447c8.3,0,16.3,0,24.4,0c0,1,0,1.9,0,3.3c-5.9,0-11.9,0-17.9,0c-1.5,0-2.8,0-4.3,0
		C311.6,450.4,311,449.4,311.8,447z"/>
	<path class="st1" d="M247.2,289c-0.7-2.6-0.1-3.6,2.5-3.6c4.8,0.3,9.7,0.1,14.9,0.1c0.1,1.3,0.2,2.3,0.3,3.5
		C258.9,289,253.2,289,247.2,289z"/>
	<path class="st1" d="M322.2,346.5c-7.4,0-14.4,0-21.4,0c0-1,0-1.9,0-3.2c7,0,13.9,0,21.2,0C322.1,344.4,322.1,345.3,322.2,346.5z"
		/>
	<path class="st1" d="M258,412.3c5.8,0,11.4,0,17.4,0c0.1,1.2,0.1,2.1,0.2,3.3c-6,0-11.7,0-17.6,0C258,414.4,258,413.4,258,412.3z"
		/>
	<path class="st1" d="M293.3,435.4c0,1.1,0,2.2,0,3.2c-5.8,0-11.6,0-17.6,0c0-1,0-1.9-0.1-3.2C281.5,435.4,287.2,435.4,293.3,435.4z
		"/>
	<path class="st1" d="M318.7,335.1c0-1.4,0.1-2.3,0.1-3.5c6,0,11.6,0,17.6,0c0,1.3,0,2.2,0,3.5C330.6,335.1,324.8,335.1,318.7,335.1
		z"/>
	<path class="st1" d="M264.7,404c-5.8,0-11.5,0-17.5,0c0-0.9-0.1-1.8-0.2-3.1c5.9,0,11.7,0,17.7,0
		C264.7,401.8,264.7,402.8,264.7,404z"/>
	<path class="st1" d="M264.8,369.6c-6,0-11.6,0-17.5,0c0-1.1,0-2,0-3.3c5.9,0,11.5,0,17.5,0C264.8,367.5,264.8,368.4,264.8,369.6z"
		/>
	<path class="st1" d="M304.8,242.9c0-1,0-1.9,0-3c5.8,0,11.6,0,17.5,0c0.2,0.8,0.2,1.9,0.3,3C316.6,242.9,310.7,242.9,304.8,242.9z"
		/>
	<path class="st1" d="M286.9,219.9c0-1.1,0-2,0-3.1c5.8,0,11.5,0,17.5,0c0,0.9,0.1,1.9,0.2,3.1C298.7,219.9,292.9,219.9,286.9,219.9
		z"/>
	<path class="st1" d="M332.7,297.4c0,1,0,1.9,0,3c-5.9,0-11.6,0-17.5,0c-0.1-0.9-0.2-1.9-0.2-3C321,297.4,326.7,297.4,332.7,297.4z"
		/>
	<path class="st1" d="M308.2,216.8c6.1,0,11.7,0,17.7,0c0.1,0.9,0.1,1.9,0.1,3.2c-5.9,0-11.6,0-17.5,0
		C308.3,219,308.3,218.1,308.2,216.8z"/>
	<path class="st1" d="M307.8,450.1c-6.1,0-11.7,0-17.7,0c0-1.1-0.1-2.1-0.1-3.2c6,0,11.6,0,17.5,0
		C307.7,448,307.8,448.9,307.8,450.1z"/>
	<path class="st1" d="M308,427.1c0-1.2,0-2.1,0-3.3c5.8,0,11.5,0,17.4,0c0.6,2.2,0.5,3.5-2.3,3.5C318.1,427.1,313.2,427.1,308,427.1
		z"/>
	<path class="st1" d="M330.6,312.2c-4.4,0-8.8,0-13.5,0c0-1.2-0.1-2.2-0.2-3.6c4.4,0,8.6-0.1,12.8,0.1c0,0,1.3,1.8,1.8,2.7
		C331.3,311.6,330.9,311.8,330.6,312.2z"/>
	<path class="st1" d="M300.4,274.4c0,1,0,1.9,0,3c-4.6,0-9,0-13.8,0c0-0.9-0.2-1.8-0.3-3C291,274.4,295.7,274.4,300.4,274.4z"/>
	<path class="st1" d="M268.5,277.4c0-1.1,0-2,0-3c4.6,0,9.2,0,14.1,0c0.1,0.9,0.1,1.7,0.3,3C277.9,277.4,273.3,277.4,268.5,277.4z"
		/>
	<path class="st1" d="M269,219.9c0-1.1,0-2,0-3.1c4.6,0,9.2,0,13.9,0c0,0.9,0.1,1.8,0.2,3.1C278.4,219.9,273.8,219.9,269,219.9z"/>
	<path class="st1" d="M247.2,300.4c0-1.1,0-2,0-3.1c4.6,0,9.2,0,13.9,0c0.1,1,0.1,1.9,0.2,3.1C256.5,300.4,252.1,300.4,247.2,300.4z
		"/>
	<path class="st1" d="M298.8,308.7c0,1.3,0,2.3,0,3.4c-3.6,0-6.9,0-10.4,0c0-1.1,0-2.1,0-3.4C291.8,308.7,295,308.7,298.8,308.7z"/>
	<path class="st1" d="M289.8,412.3c0,1.3,0,2.3,0,3.5c-3.5,0-6.8,0-10.3,0c0-1.3,0-2.2,0-3.5C282.9,412.3,286.2,412.3,289.8,412.3z"
		/>
	<path class="st1" d="M258,312c0-1.1,0-2.1,0-3.4c3.5,0,6.8,0,10.2,0c0,1.3,0,2.3,0,3.4C264.8,312,261.5,312,258,312z"/>
	<path class="st1" d="M247.2,277.3c0-0.9,0-1.9,0-2.9c3.5,0,6.8,0,10.4,0c0.2,0.9,0.2,1.7,0.3,2.9
		C254.1,277.3,250.8,277.3,247.2,277.3z"/>
	<path class="st1" d="M257.7,423.9c0,1.2,0,1.9,0,3.1c-3.5,0-6.8,0-10.5,0c0-0.9-0.1-1.9-0.2-3.1
		C250.7,423.9,254.1,423.9,257.7,423.9z"/>
	<path class="st1" d="M247.5,219.9c0-1.1,0-2,0-3.1c3.5,0,6.7,0,10.4,0c0,1,0.1,1.9,0.1,3.1C254.5,219.9,251.1,219.9,247.5,219.9z"
		/>
	<path class="st1" d="M275.5,297.3c0,1.2,0,2,0,3.1c-3.4,0-6.6,0-10.4,0c0-0.9-0.2-1.9-0.2-3.1C268.6,297.3,271.9,297.3,275.5,297.3
		z"/>
	<path class="st1" d="M290.9,242.9c0-1,0-1.9,0-3c3.3,0,6.5,0,10,0c0.2,1,0.2,1.9,0.3,3C297.6,242.9,294.3,242.9,290.9,242.9z"/>
	<path class="st1" d="M253.8,412.5c0,0.9,0,1.9,0,3.2c-2.2,0-4.3,0-6.4,0C246.7,411.7,247.4,411.4,253.8,412.5z"/>
	<path class="st1" d="M247.2,312c0-1.2,0-2.1,0-3.4c2.4,0,4.5,0,6.6,0c0,1.3,0,2.2,0,3.4C251.8,312,249.8,312,247.2,312z"/>
	<path class="st1" d="M247.2,343.3c2.4,0,4.4,0,6.6,0c0,1.1,0,2.1,0,3.3c-2.2,0-4.4,0-6.6,0C247.2,345.5,247.2,344.6,247.2,343.3z"
		/>
	<path class="st1" d="M284.7,312c-2,0-3.5,0-5.1,0c0-1.1,0-2.1,0-3.4c1.5,0,3,0,4.8,0C284.5,309.8,284.5,310.8,284.7,312z"/>
	<path class="st1" d="M328.6,457.7c0.8,0.7,1.7,1.5,2.6,2.3c-0.9,0.7-1.7,1.5-2.6,2.5c-0.4-0.4-0.5-0.5-0.9-0.8
		c-0.1-1-0.1-1.9-0.2-3C327.8,458.3,328.2,458,328.6,457.7z"/>
	<path class="st1" d="M323.9,458.1c0,1.4,0,2.4,0,3.5c-1.3,0-2.2,0-3.4,0c-0.2-1-0.2-2-0.3-3.3C321.6,458.3,322.6,458.2,323.9,458.1
		z"/>
	<path class="st1" d="M306.5,458.3c0.9,0,1.8,0,3,0c0.1,1,0.1,2,0.2,2.9C305.9,462,305.8,461.9,306.5,458.3z"/>
	<path class="st1" d="M302.6,461.8c-1.4,0-2.3,0-3.4,0c-0.1-1.2-0.3-2.2-0.3-3.5c1.3,0,2.2-0.1,3.3-0.2
		C302.4,459.3,302.4,460.3,302.6,461.8z"/>
	<path class="st1" d="M309.7,308.7c1.3,0,2.1,0,3.3,0c0.2,1.2,0.2,2.2,0.3,3.4c-1.2,0-2.1,0.2-3.3,0.3
		C309.8,311.1,309.7,310,309.7,308.7z"/>
	<path class="st1" d="M284.9,461.6c0-1.3,0-2.1,0-3.3c1,0,1.9,0,3.1,0c0,1,0,2,0,3.3C286.8,461.6,285.9,461.6,284.9,461.6z"/>
	<path class="st1" d="M426.6,346.4c0-1,0-1.9,0-3.1c19,0,37.8,0,56.9,0c0.1,1.1,0.1,2,0.3,3.1C464.7,346.4,445.8,346.4,426.6,346.4z
		"/>
	<path class="st1" d="M394.4,231.2c0-0.9,0-1.8,0-2.9c15.3,0,30.5,0,45.8,0c0.5,1.5,1.5,3.4-1.6,3.4c-14.4,0-28.8-0.1-43.2-0.1
		C395.4,231.6,394.9,231.5,394.4,231.2z"/>
	<path class="st1" d="M397.8,358.4c0-1.5,0-2.5,0-3.6c14.3,0,28.4,0,42.7,0c0,1.6,1.1,3.6-1.8,3.6
		C425.2,358.4,411.7,358.4,397.8,358.4z"/>
	<path class="st1" d="M483.5,308.7c0,1.3,0,2.2,0,3.3c-10.6,0-21.2,0-31.9,0c0-1.1,0-2,0-3.3C462.1,308.7,472.8,308.7,483.5,308.7z"
		/>
	<path class="st1" d="M451.6,231.5c0-1.3,0-2.2,0-3.3c10.7,0,21.3,0,31.9,0c0,1.1,0,2,0,3.3C472.8,231.5,462.4,231.5,451.6,231.5z"
		/>
	<path class="st1" d="M394.3,311.9c0-1,0-2,0-3.2c10.6,0,21.1,0,31.8,0c0.1,1.1,0.1,2.1,0.3,3.2
		C415.8,311.9,405.3,311.9,394.3,311.9z"/>
	<path class="st1" d="M394.3,266.1c0-1.2,0-2.1,0-3.2c10.7,0,21.2,0,31.9,0c0,1.1,0,2,0,3.2C415.5,266.1,405.1,266.1,394.3,266.1z"
		/>
	<path class="st1" d="M451.7,266.1c0-1.2,0-2.1,0-3.2c10.7,0,21.2,0,31.8,0c0,1.1,0,2,0,3.2C472.8,266.1,462.4,266.1,451.7,266.1z"
		/>
	<path class="st1" d="M444.4,285.7c8.3,0,16.3,0,24.6,0c0.1,1.1,0.1,2.1,0.3,3.4c-8.4,0-16.6,0-24.9,0
		C444.4,287.9,444.4,286.9,444.4,285.7z"/>
	<path class="st1" d="M408.7,277.4c0-1.1,0-2,0-3.2c8.1,0,16.3,0,24.5,0c0,1.1,0,1.9,0,3.2C425.1,277.4,417.2,277.4,408.7,277.4z"/>
	<path class="st1" d="M441,334.9c0-1,0-2,0-3.1c7,0,13.9,0,21,0c0,1,0,2,0,3.1C455,334.9,448,334.9,441,334.9z"/>
	<path class="st1" d="M458.6,366.5c0,1,0,1.9,0,2.9c-8.3,0-16.4,0-24.7,0c-0.2-0.7-0.3-1.6-0.4-2.9
		C441.9,366.5,450,366.5,458.6,366.5z"/>
	<path class="st1" d="M462,274.4c0,1,0,1.7,0,3c-8.2,0-16.4,0-24.7,0c-0.1-0.9-0.2-1.8-0.4-3C445.3,274.4,453.5,274.4,462,274.4z"/>
	<path class="st1" d="M426.6,243c0-1.1,0-2,0-3.1c8.3,0,16.3,0,24.7,0c0,0.8,0,2,0.1,3.1C443.1,243,435.1,243,426.6,243z"/>
	<path class="st1" d="M441,219.9c0-1.1,0-2,0-3.1c8.3,0,16.3,0,24.6,0c0,1.1,0,2,0,3.1C457.4,219.9,449.2,219.9,441,219.9z"/>
	<path class="st1" d="M462.4,300.4c0-1.1,0-2,0-3.1c7,0,13.9,0,21.1,0c0.1,1,0.1,1.9,0.3,3.1C476.5,300.4,469.5,300.4,462.4,300.4z"
		/>
	<path class="st1" d="M412.2,300.4c0-1.1,0-1.9,0-3c7,0,14,0,21.3,0c0,1,0,1.9,0,3C426.2,300.4,419.5,300.4,412.2,300.4z"/>
	<path class="st1" d="M466,334.9c0-1.1,0-2,0-3.3c5.8,0,11.6,0,17.4,0c0.1,1.2,0.1,2.1,0.1,3.3C477.8,334.9,472.1,334.9,466,334.9z"
		/>
	<path class="st1" d="M415.3,335.1c-5.9,0-11.6,0-17.5,0c0-1.2,0-2.2,0-3.3c5.8,0,11.5,0,17.5,0
		C415.3,332.8,415.3,333.8,415.3,335.1z"/>
	<path class="st1" d="M447.6,308.7c0,1.3,0,2.2,0,3.4c-5.8,0-11.5,0-17.4,0c0-1.1,0-2.1,0-3.4C436,308.7,441.8,308.7,447.6,308.7z"
		/>
	<path class="st1" d="M419.2,285.8c0,1.1,0,2.2,0,3.3c-6,0-11.7,0-17.6,0c0-1.1,0-2,0-3.3C407.3,285.8,413.1,285.8,419.2,285.8z"/>
	<path class="st1" d="M405,369.5c0-1,0-1.9,0-3.1c5.7,0,11.5,0,17.4,0c0.1,0.9,0.3,1.8,0.3,3.1C416.8,369.5,411.1,369.5,405,369.5z"
		/>
	<path class="st1" d="M447.6,262.9c0.1,1.1,0.1,2,0.1,3.2c-5.8,0-11.6,0-17.5,0c0-0.9-0.2-2-0.3-3.2
		C435.9,262.9,441.6,262.9,447.6,262.9z"/>
	<path class="st1" d="M483.5,216.8c0,1.1,0,2,0,3.2c-4.6,0-9.1,0-14,0c-0.1-1-0.1-1.9-0.2-3.2C474,216.8,478.6,216.8,483.5,216.8z"
		/>
	<path class="st1" d="M468.9,243.2c-4.6,0-9,0-13.8,0c0-1.1-0.1-2.1-0.2-3c0.5-0.2,1-0.4,1.4-0.4c3.4-0.1,6.7,0,10-0.1
		C468.9,239.5,469.9,240.1,468.9,243.2z"/>
	<path class="st1" d="M437,297.3c5,0,9.5,0,14.3,0c0.1,1,0.1,1.9,0.4,3.1c-4.9,0-9.5,0-14.3,0C437.2,299.5,437.1,298.7,437,297.3z"
		/>
	<path class="st1" d="M423,289c0-1.1,0-2,0-3.5c3.1,0,6-0.2,8.9,0.2c0.8,0.1,1.5,1.6,2.5,3.4C429.9,289,426.5,289,423,289z"/>
	<path class="st1" d="M483.5,285.8c0,1.1,0,2,0,3.3c-3.4,0-6.7,0-10.3,0c0-1.1,0-2,0-3.3C476.6,285.8,480,285.8,483.5,285.8z"/>
	<path class="st1" d="M429.8,331.8c0,1.1,0,2,0,3.3c-3.5,0-6.8,0-10.3,0c-0.1-1.2-0.3-2-0.3-3.3
		C422.8,331.8,426.1,331.8,429.8,331.8z"/>
	<path class="st1" d="M455,320.3c3.8,0,7.2,0,10.7,0c0,1.2,0,2.1,0,3.2c-3.5,0-6.9,0-10.5,0C455.1,322.5,455,321.6,455,320.3z"/>
	<path class="st1" d="M429.7,216.8c0,1.1,0,2,0,3.2c-3.5,0-6.7,0-10.2,0c-0.1-1-0.3-1.9-0.3-3.2
		C422.8,216.8,426.1,216.8,429.7,216.8z"/>
	<path class="st1" d="M437,320.3c0,1.3,0,2.1,0,3.1c-3.5,0-6.8,0-10.4,0c0-0.9,0-1.8,0-3.1C430,320.3,433.4,320.3,437,320.3z"/>
	<path class="st1" d="M397.8,323.5c0-1.1,0-2,0-3.1c3.5,0,6.7,0,10.4,0c0,0.9,0,2,0,3.1C404.7,323.5,401.4,323.5,397.8,323.5z"/>
	<path class="st1" d="M473.1,277.4c0-1.1,0-2,0-3.2c3.5,0,6.7,0,10.4,0c0.1,1.1,0.1,1.9,0.3,3.2
		C480.2,277.4,476.8,277.4,473.1,277.4z"/>
	<path class="st1" d="M483.6,239.9c0,1.1,0,2,0,3c-3.5,0-6.8,0-10.4,0c0-1,0-1.9,0-3C476.6,239.9,479.8,239.9,483.6,239.9z"/>
	<path class="st1" d="M405,243c0-1.1,0-2,0-3.1c3.4,0,6.6,0,10.4,0c0.1,0.8,0.1,1.9,0.2,3.1C412,243,408.7,243,405,243z"/>
	<path class="st1" d="M483.5,320.3c0,1.3,0,2.2,0,3.2c-2.3,0-4.4,0-6.7,0c0-1,0-1.9,0-3.2C478.9,320.3,481.1,320.3,483.5,320.3z"/>
	<path class="st1" d="M415.3,216.8c0,1.1,0,2,0,3.2c-2.2,0-4.3,0-6.6,0c0-1-0.2-1.9-0.3-3.2C410.7,216.8,412.9,216.8,415.3,216.8z"
		/>
	<path class="st1" d="M451.3,320.4c0,0.9,0,2,0,3.1c-1.1,0-2.1,0-3.4,0c0-1,0-1.9,0-3.1C449,320.4,450,320.4,451.3,320.4z"/>
	<path class="st1" d="M422.5,319.7c0,1.7,0,2.7,0,3.7c-1,0-1.9,0-3.3,0c0-0.9-0.2-2,0.2-2.5C420.1,320.4,421.1,320.3,422.5,319.7z"
		/>
	<path class="st1" d="M402.4,581.8c-3-7.5-5.8-14.6-8.9-22.3c4.7-1.5,9.6-3.8,14.7-5c5.7-1.2,9.3,3,8,8.6c6.5,4.6,4.2,10.4-1.8,13.5
		C410.6,578.6,406.3,580.3,402.4,581.8z M400.3,562.5c0.5,1.4,1,2.5,1.5,3.9c3.5-1.9,7.7-2,9.9-6.5
		C407.2,558.9,404.1,561.3,400.3,562.5z M415.4,568.6c-4.8-1-7.9,1.4-11.6,2.5c0.5,1.5,1,2.5,1.6,3.9
		C408.9,573.3,412.9,572.9,415.4,568.6z"/>
	<path class="st1" d="M355.1,571.9c0.9,1.8,1.7,3.6,2.6,5.5c0.8,1.6,0.9,3.5-1,4c-1.1,0.3-2.9-0.7-3.5-1.7c-1.4-2.1-2.1-4.5-3.5-6.7
		c-1-1.5-2.4-2.7-3.6-3.9c-0.4,0.1-0.7,0.2-1.1,0.5c-0.8,2.9-1.5,5.7-2.4,8.9c-1.5-0.4-3.3-0.9-5.1-1.4c2-7.7,4.2-15,6.2-22.9
		c4.1,1.1,8.2,2.1,12.1,3.4c4.6,1.5,7.2,4.6,7,8C362.6,568.8,360.6,570.5,355.1,571.9z M347.4,560.4c-0.4,1.6-0.6,2.7-1,4.1
		c3.9,0.6,7.4,2.8,11.6,0.9C355.3,561.6,351.2,561.7,347.4,560.4z"/>
	<path class="st1" d="M319,537c1.1,1.1,2.3,2.5,3.5,4.1c-6,5.1-12.1,10.1-18.1,15.2c-1-1.1-2.3-2.7-3.4-4c2.2-2,4.6-3.7,7.1-5.9
		c-2.4-2.9-4.9-5.6-7.4-8.8c-2.4,2-4.6,4-7,6.1c-1-1.1-2.3-2.7-3.4-4.1c6.1-5,12-10,18.1-15.2c1,1.2,2.4,2.8,3.4,4.1
		c-2.4,1.9-4.5,3.6-7.1,5.7c2.5,3,4.8,5.9,7.3,9C314.4,541.1,316.7,539,319,537z"/>
	<path class="st1" d="M255,468c2.4,1.9,4.5,3.6,6.7,5.3c-1,1.5-1.9,2.6-2.9,4c-2.4-1.7-4.6-3.3-7.1-5c-0.8,1.2-1.5,2.2-2.4,3.3
		c3.4,2.5,6.6,4.9,10,7.5c-0.9,1.3-2,2.6-3.1,4.1c-4.9-3.6-9.5-7.1-14.2-10.6c4.7-6.3,9.4-12.4,14.3-18.9c4.4,3.4,9.3,6.9,14.1,10.7
		c-1.1,1.5-2.2,2.9-3,4.2c-3.5-2.6-6.6-5-10-7.7C256.5,465.9,255.9,466.8,255,468z"/>
	<path class="st1" d="M327.7,550.9c-0.8,1.4-1.5,2.4-2.3,3.5c2.4,1.5,4.7,3,7.2,4.6c-0.7,1.5-1.5,2.8-2.5,4.4
		c-2.4-1.5-4.7-2.8-7.4-4.5c-0.8,1.2-1.4,2.2-2.1,3.5c3.5,2.1,7,4.3,10.7,6.4c-0.8,1.2-1.8,2.7-2.8,4.5c-5.1-3.3-10.2-6.3-15.1-9.4
		c4.2-6.7,8.3-13.3,12.4-20.2c4.7,2.9,9.8,6.1,15.1,9.5c-1,1.7-2,3.2-2.8,4.4C334.7,555.5,331.3,553.4,327.7,550.9z"/>
	<path class="st1" d="M371.4,565c-0.1,1.5-0.3,2.4-0.5,4c2.8,0.3,5.4,0.6,8.4,1.1c-0.1,1.5-0.3,2.9-0.4,4.7
		c-2.8-0.1-5.6-0.2-8.4-0.4c-0.2,1.3-0.4,2.4-0.5,4c4.2,0.2,8.1,0.5,12.4,0.9c-0.2,1.5-0.3,3.3-0.4,5.3c-6.2-0.5-12.1-1-17.7-1.5
		c0.8-7.9,1.4-15.7,2.2-23.6c5.6,0.5,11.4,1,17.4,1.5c-0.1,2-0.2,3.6-0.4,5.3C379.8,565.8,375.8,565.4,371.4,565z"/>
	<path class="st1" d="M423.2,551.4c0.9,1.4,1.5,2.4,2.1,3.4c2.5-1.5,4.8-2.8,7.4-4.4c0.9,1.5,1.8,2.9,2.7,4.4
		c-2.5,1.6-4.7,3-7.2,4.7c0.7,1.1,1.3,2.2,2.1,3.4c3.6-2.3,7-4.4,10.6-6.6c0.8,1.1,1.6,2.5,2.7,4.3c-5.2,3.3-10.2,6.5-15.1,9.5
		c-4.1-6.6-8.2-13.3-12.4-20.1c4.8-3,9.8-6.1,15.1-9.5c1,1.7,1.9,3.3,2.7,4.5C430.3,546.9,427,549.1,423.2,551.4z"/>
	<path class="st1" d="M298.9,518c-5.2,3.7-10,7.3-15,10.8c-0.9-1.2-2-2.9-2.9-4.4c5.1-3.5,9.9-7,15.1-10.6c-1.6-2.3-3.3-4.3-4.9-6.5
		c1.1-0.9,2.5-1.9,4.4-3.3c4.1,6,8.1,11.7,12.4,18c-1.5,1-3,2-4.4,3C302.2,522.6,300.7,520.6,298.9,518z"/>
	<path class="st1" d="M276.3,483.3c-1.7-2.5-3.3-4.5-4.9-6.7c1.2-0.8,2.4-1.7,4.2-3c4.2,5.7,8.4,11.4,12.6,17.4
		c-1.5,1.2-2.8,2.2-4.2,3.2c-1.5-2.3-3-4.4-4.7-6.7c-5.1,3.5-9.9,7.3-14.9,10.9c-0.9-1.2-2-2.7-3.2-4.3
		C266.2,490.5,271.2,487,276.3,483.3z"/>
	<path class="st1" d="M230.3,445.8c1.3,0.5,2.8,1.3,4.7,1.9c-1.4,3.1-2.5,5.9-3.7,8.6c-1,2.7-2.3,5.5-3.5,8.5
		c4.6,1.9,8.9,3.7,13.5,5.6c-0.6,1.4-1.4,3-2.2,4.7c-6.2-2.5-12.2-5.2-18.1-7.6C224.3,460.1,227.3,453,230.3,445.8z"/>
	<path class="st1" d="M321.3,652.7c-2.3-7.2-0.6-12.4,4.9-15.8c5.4-3.2,12.8-2.4,17.3,2.2c4.5,4.4,4.9,9.9,1.1,16.3
		c0.4,0.5,0.7,0.9,1.2,1.4c5.4,6.9,3.6,15-4,19.1c-6.9,3.7-16.5,2.4-22.5-2.6C312.5,667.1,313.2,659.2,321.3,652.7z M331.9,669
		c2.4-0.6,4.2-0.9,5.7-1.8c2.3-1,2.4-2.9,0.6-4.7c-2.7-2.5-9.2-3.4-12.4-1.4c-2.4,1.4-2.7,3.5-0.5,4.9
		C327.4,667.4,329.9,668.1,331.9,669z M333.5,651.8c2.1-1.7,4.1-2.7,4.2-3.9c0.4-2.6-1.9-3.5-4.2-3.5c-1.9,0-4.2,0.7-3.8,3
		C329.9,648.8,331.8,649.9,333.5,651.8z"/>
	<path class="st1" d="M408,653c-3.8-4.7-4.5-9.7-1.5-14.8c2.8-4.7,8.7-7.4,14.4-6.3c5.3,1,9.9,4,10.1,9.4c0.3,5.4,2.1,9,5.6,12.8
		c3.3,3.9,2,9.7-1.6,13.9c-5.4,6.4-15.8,8.5-23.4,4.9c-7.5-3.6-9.6-11.4-4.7-18.4C407.2,654.1,407.5,653.6,408,653z M419.2,666.3
		c3.3-1.5,6.1-2.5,8.5-4.3c2.1-1.5,1.6-4-0.9-4.6c-2.8-0.5-6-0.5-8.8,0.3c-1.8,0.5-3,3-4.5,4.5C415.4,663.5,417.2,664.8,419.2,666.3
		z M416.3,647.4c3.7,0.1,6.4-1.6,5.9-3.3c-0.5-1.3-2.2-2.5-3.5-2.8c-2.5-0.5-5.1,1.5-4.6,3.4C414.5,645.9,415.9,646.9,416.3,647.4z"
		/>
	<path class="st1" d="M392.9,641.8c-1.8,2.1-3.6,4.3-5.8,6.6c-3.5-2.3-7.5-4.1-11.4-1.8c-2.4,1.3-4.1,3.7-5.7,5.5
		c5.2,0.5,10,0.5,14.5,1.8c5,1.5,8.4,5.2,9,10.7c0.5,5-1.8,8.8-5.8,11.5c-6.9,4.4-14.2,4.8-21.4,1c-5.3-2.8-7.4-7.4-7.2-13.1
		c0.3-6.3,0.8-12.4,3.9-17.9C369.1,635,384.2,632.8,392.9,641.8z M376.3,670.8c2.2-0.9,4.5-1.5,6.4-2.6c2.1-1.3,2-3.3,0.1-4.8
		c-3.3-2.5-9.9-2.1-12.9,0.7c-1.5,1.5-1.6,3.1,0.3,4.4C371.9,669.5,374,669.9,376.3,670.8z"/>
	<path class="st1" d="M301,673.1c-3.6-0.8-7.5-1.7-11.4-2.6c0.8-1.5,1.8-2.4,2.2-3.8c1.9-8.1,3.7-16.3,5.5-24.3c0.2-1,0-2.1,0-3.7
		c3.4-2.2,7.4-4.6,12-7.5c-0.3,1.5-0.5,2.6-0.6,3.7c-2.5,11.3-5.3,22.6-7.7,34C300.7,669.9,301,671.3,301,673.1z"/>
	<path class="st1" d="M283.4,644.1c-0.1,4.1-3.6,7.5-7.5,7.5c-4.2,0-7.4-3.6-7.4-7.5c0-4.2,3.4-7.5,7.5-7.5
		C280.1,636.7,283.4,639.9,283.4,644.1z"/>
	<path class="st1" d="M455.1,636.6c4.1,0,7.5,3.4,7.5,7.5c0,4.1-3.5,7.5-7.5,7.5c-3.9,0-7.5-3.5-7.5-7.5
		C447.6,639.9,450.9,636.6,455.1,636.6z"/>
	<path class="st1" d="M526,474c2,0,3.9,0,5.7,0c0,7.7,0,15.5,0,23.4c-1.7,0-3.7,0-5.7,0c0-2.9,0-5.7,0-8.8c-3.5,0-7.1,0-10.9,0
		c0,2.8,0,5.9,0,8.9c-1.8,0-3.7,0-5.5,0c0-7.9,0-15.7,0-23.4c1.5,0,3.6,0,5.5,0c0,2.9,0,5.9,0,8.9c3.8,0,7.3,0,11,0
		C526,479.9,526,477,526,474z"/>
	<path class="st1" d="M495.6,490.5c0.4-2.5,0.5-4.4,0.6-6.7c1.8,0.2,3.8,0.5,5.5,0.7c-0.6,4-1.2,7.7-1.9,11.8
		c-3.7-0.6-7.3-0.9-10.8-1.7c-4.3-1-6.6-4.5-6.6-8.9c-0.3-4.3,1.4-7.8,4-10.8c4.8-5,11.2-4.5,16.2,0.9c-1.1,0.8-2.4,1.7-3.8,3
		c-2-1.5-4.6-3.6-7.9-1c-2.4,2-4.2,6.5-3.2,9.1C488.9,490.7,492.3,489.8,495.6,490.5z"/>
	<path class="st1" d="M535,478.2c-0.2-1.5-0.3-3.2-0.3-5.1c7-0.6,14-1.4,21.3-2.1c0.2,2.1,0.5,3.9,0.5,5.4c-2.7,0.2-5.4,0.4-8.3,0.6
		c0.5,6.3,1.2,12.2,1.7,18.5c-1.5,0.1-3.3,0.4-5.2,0.5c-0.5-6.1-1.1-12-1.6-18.5C540.4,477.8,537.8,477.9,535,478.2z"/>
	<path class="st1" d="M449.4,480.9c5.1,0.6,9.7,1.4,14.4,1.9c-0.2,1.4-0.5,2.9-0.8,5.1c-6.5-0.9-13.1-1.7-19.5-2.6
		c1.2-7.9,2.2-15.4,3.3-23.4c1.5,0.1,3.2,0.4,5.1,0.6C451.1,468.9,450.3,474.7,449.4,480.9z"/>
	<path class="st1" d="M472.4,465.3c1.6,0.3,3.3,0.5,5.1,0.9c-1.4,7.8-2.7,15.4-4,23.4c-1.6-0.4-3.5-0.6-5.3-0.9
		C469.6,480.8,471.1,473.1,472.4,465.3z"/>
	<path class="st1" d="M412.2,404c0-1.2,0-2,0-3.1c7,0,14,0,21.3,0c0,1,0,1.9,0,3.1C426.2,404,419.5,404,412.2,404z"/>
	<path class="st1" d="M451.3,400.9c0,1,0,1.9,0,3.1c-4.7,0-9.3,0-14.1,0c0-0.9-0.1-2-0.1-3.1C441.9,400.9,446.4,400.9,451.3,400.9z"
		/>
	<path class="st1" d="M401.3,400.9c2.5,0,4.6,0,6.9,0c0,1,0,1.9,0,3.1c-2.3,0-4.4,0-6.7,0C401.4,403.1,401.4,402.2,401.3,400.9z"/>
	<path class="st1" d="M256.1,261.1c-1.1-0.5-1.9-1-3.2-1.5c4.4-8.9,8.7-17.5,13.4-26.9c4.6,9.2,8.9,17.9,13.4,26.9
		c-1.2,0.5-2,1-3.2,1.5c-1.5-3-2.8-6-4.4-8.6c-0.6-0.9-2.1-1.9-3.1-2.1c-7.5-0.4-7.5-0.4-10.6,6.4
		C257.7,258.1,257,259.3,256.1,261.1z M266.3,240.7c-1.1,2.5-1.9,4.1-2.7,5.7c2.1,0,3.6,0,5.5,0
		C268.1,244.4,267.4,242.9,266.3,240.7z"/>
</g>
</svg>
