<?xml version="1.0" encoding="utf-8"?>
<!-- Generator: Adobe Illustrator 22.0.0, SVG Export Plug-In . SVG Version: 6.00 Build 0)  -->
<svg version="1.1" id="Capa_1" xmlns="http://www.w3.org/2000/svg" xmlns:xlink="http://www.w3.org/1999/xlink" x="0px" y="0px"
	 viewBox="0 0 731 734.2" style="enable-background:new 0 0 731 734.2;" xml:space="preserve">
<style type="text/css">
	.st0{fill-rule:evenodd;clip-rule:evenodd;fill:#FFFFFF;}
</style>
<g>
	<path class="st0" d="M145,84.9c-3.8,4.8-7.5,9.7-11.2,14.7c-124,168.5-31.2,410,174,451.9c15.4,3.3,31.2,3.5,46.9,5.7
		c9.6,1.3,14.1-3.4,17.8-11.4c27.1-58.7,10.9-126.6-41-168.8c-42.3-34.6-69.2-78.2-80.8-131.8C231.5,154.5,277,53.6,358.4,8.7
		c1.7-0.9,3.4-1.4,6.5-3c-0.4,2.6-0.3,4-1,5.3c-34.6,62.9-15.8,138.1,39.5,182.6c113.8,91.4,106.3,269.2-13.3,353.3
		c-3.7,2.6-7.4,5.1-10.3,9c89.5-5.3,161.9-43,216-114.3c40.3-53.3,59-114.3,56.8-180.9c-2.1-65.9-24.9-124.7-69-177.9
		c36.1,16.3,93.3,90.4,116.7,148.7c23.9,60,31.9,122.2,22.9,186c-24.3,170.6-162.4,297.4-330,310c-170.1,12.7-324-92.6-373.2-253.6
		C-27.6,318,35.6,162.9,145,84.9z"/>
</g>
</svg>
